<svg width="1027" height="1027" viewBox="0 0 1027 1027" fill="none" xmlns="http://www.w3.org/2000/svg">
<g filter="url(#filter0_d_1558_74586)">
<circle cx="513.496" cy="489.764" r="450" fill="#ECD5A4" shape-rendering="crispEdges"/>
<circle cx="513.496" cy="489.764" r="451.5" stroke="black" stroke-opacity="0.2" stroke-width="3" shape-rendering="crispEdges"/>
</g>
<circle opacity="0.6" cx="513.496" cy="489.764" r="420" fill="#F1D9AA"/>
<g filter="url(#filter1_i_1558_74586)">
<circle cx="513.496" cy="489.764" r="348" fill="#8D38B3"/>
</g>
<circle cx="513.496" cy="489.764" r="396" stroke="black" stroke-width="72"/>
<g filter="url(#filter2_d_1558_74586)">
<rect x="453.396" y="725.264" width="120.2" height="77" rx="6" fill="#F2D6A5" shape-rendering="crispEdges"/>
<rect x="453.666" y="725.534" width="119.66" height="76.46" rx="5.73" stroke="black" stroke-width="0.54" shape-rendering="crispEdges"/>
<path d="M493.243 777.718C489.992 777.718 487.51 776.597 485.796 774.354C484.108 772.086 483.264 768.835 483.264 764.601C483.264 760.393 484.108 757.167 485.796 754.925C487.51 752.682 489.992 751.56 493.243 751.56C496.494 751.56 498.963 752.682 500.652 754.925C502.365 757.167 503.222 760.393 503.222 764.601C503.222 768.835 502.365 772.086 500.652 774.354C498.963 776.597 496.494 777.718 493.243 777.718ZM499.14 770.082C499.568 768.57 499.782 766.743 499.782 764.601C499.782 761.3 499.24 758.768 498.157 757.004C497.098 755.24 495.46 754.358 493.243 754.358C491.605 754.358 490.257 754.862 489.198 755.87L499.14 770.082ZM493.243 774.921C494.982 774.921 496.38 774.354 497.439 773.22L487.459 758.894C487.207 759.675 487.018 760.544 486.892 761.502C486.766 762.459 486.703 763.493 486.703 764.601C486.703 767.903 487.233 770.448 488.291 772.237C489.375 774.026 491.025 774.921 493.243 774.921ZM517.754 777.718C514.503 777.718 512.021 776.597 510.307 774.354C508.619 772.086 507.775 768.835 507.775 764.601C507.775 760.393 508.619 757.167 510.307 754.925C512.021 752.682 514.503 751.56 517.754 751.56C521.005 751.56 523.474 752.682 525.163 754.925C526.876 757.167 527.733 760.393 527.733 764.601C527.733 768.835 526.876 772.086 525.163 774.354C523.474 776.597 521.005 777.718 517.754 777.718ZM523.651 770.082C524.079 768.57 524.293 766.743 524.293 764.601C524.293 761.3 523.751 758.768 522.668 757.004C521.609 755.24 519.971 754.358 517.754 754.358C516.116 754.358 514.768 754.862 513.709 755.87L523.651 770.082ZM517.754 774.921C519.493 774.921 520.891 774.354 521.95 773.22L511.97 758.894C511.718 759.675 511.529 760.544 511.403 761.502C511.277 762.459 511.214 763.493 511.214 764.601C511.214 767.903 511.744 770.448 512.802 772.237C513.886 774.026 515.536 774.921 517.754 774.921ZM538.333 777.264V758.213H531.605V755.681C532.815 755.681 533.936 755.592 534.969 755.416C536.028 755.24 536.935 754.887 537.691 754.358C538.472 753.828 539.039 753.047 539.392 752.014H541.509V777.264H538.333Z" fill="black"/>
</g>
<g filter="url(#filter3_d_1558_74586)">
<path fill-rule="evenodd" clip-rule="evenodd" d="M494.702 243.317C483.077 244.031 473.21 246.804 461.592 252.62C458.359 254.238 451.352 258.169 449.246 259.545C448.663 259.926 448.046 260.311 447.874 260.4C447.703 260.49 447.254 260.784 446.877 261.053C446.5 261.322 445.489 262.004 444.632 262.568C441.252 264.79 438.633 266.668 434.293 269.981C432.314 271.492 431.949 271.782 430.393 273.087C429.891 273.508 429.2 274.064 428.857 274.323C428.514 274.581 427.812 275.168 427.298 275.626C426.783 276.084 425.942 276.824 425.427 277.269C424.913 277.715 424.321 278.244 424.112 278.445C423.903 278.646 423.145 279.344 422.428 279.996C420.187 282.034 415.205 286.959 412.96 289.356C412.254 290.109 406.693 296.426 405.599 297.718C405.221 298.163 404.782 298.668 404.621 298.84C404.461 299.012 404.191 299.367 404.022 299.629C403.852 299.892 403.478 300.342 403.191 300.63C402.903 300.917 402.331 301.623 401.92 302.199C401.508 302.774 401.014 303.419 400.821 303.632C400.629 303.845 400.377 304.16 400.262 304.331C400.147 304.503 399.575 305.282 398.991 306.063C398.407 306.844 397.721 307.77 397.465 308.122C397.21 308.474 396.886 308.91 396.745 309.091C396.313 309.646 395.907 310.232 395.546 310.819C395.358 311.126 395.101 311.488 394.976 311.622C394.851 311.756 394.749 311.904 394.749 311.951C394.749 311.998 394.314 312.63 393.783 313.356C393.251 314.081 392.592 315.028 392.317 315.46C391.482 316.775 390.654 318.098 390.379 318.558C390.236 318.798 389.996 319.2 389.846 319.45C389.696 319.701 389.357 320.284 389.091 320.746C388.825 321.208 388.452 321.817 388.262 322.1C388.071 322.382 387.813 322.838 387.688 323.113C387.563 323.388 387.307 323.844 387.119 324.127C386.931 324.411 386.433 325.309 386.013 326.124C385.593 326.939 385.168 327.697 385.069 327.808C384.97 327.919 384.643 328.511 384.343 329.124C384.043 329.738 383.708 330.314 383.599 330.404C383.49 330.495 383.401 330.676 383.401 330.806C383.401 330.936 383.26 331.266 383.087 331.539C382.915 331.812 382.804 332.036 382.84 332.036C382.94 332.036 382.302 333.254 382.177 333.303C382.117 333.327 381.588 334.329 381.002 335.53C376.388 344.988 372.595 354.897 370.192 363.774C367.124 375.106 365.694 385.42 365.693 396.21C365.692 401.67 365.998 405.121 366.891 409.721C367.698 413.878 369.308 419.251 370.643 422.242C372.469 426.336 375.833 432.512 378.408 436.498C378.685 436.927 378.911 437.333 378.911 437.4C378.911 437.492 377.091 439.584 376.662 439.984C376.491 440.145 372.91 444.264 371.292 446.162C359.728 459.729 348.659 475.608 340.938 489.705C340.678 490.18 340.078 491.275 339.606 492.139C338.645 493.896 334.544 502.057 333.893 503.506C333.662 504.02 333.265 504.891 333.01 505.44C328.506 515.157 323.95 528.124 321.25 538.908C318.532 549.764 317.115 558.697 316.223 570.583C315.909 574.78 315.908 586.664 316.222 590.114C316.589 594.14 316.956 596.828 317.62 600.347C319.925 612.556 325.256 623.538 332.455 630.905C336.384 634.927 340.336 637.908 345.427 640.693C348.664 642.464 350.238 643.091 363.51 647.896C364.813 648.368 366.946 649.142 368.249 649.617C369.552 650.091 372.582 651.192 374.983 652.063C377.384 652.935 379.563 653.73 379.826 653.832C380.089 653.933 382.539 654.827 385.271 655.819C388.004 656.811 390.454 657.705 390.717 657.806C390.98 657.908 393.356 658.774 395.996 659.732C398.637 660.69 407.84 664.04 416.448 667.177C425.056 670.313 432.604 673.063 433.221 673.287C436.824 674.593 443.235 676.927 444.196 677.282C444.813 677.51 447.366 678.439 449.87 679.345C452.373 680.251 454.842 681.213 455.357 681.483C460.494 684.176 464.101 685.615 468.759 686.826C474.276 688.261 479.162 688.872 485.1 688.87C494.878 688.867 503.988 687.091 515.715 682.903C521.403 680.871 528.775 677.461 536.105 673.472C541.203 670.697 548.766 666.004 554.811 661.865C560.798 657.765 570.083 650.646 574.515 646.758C574.721 646.577 575.843 645.599 577.009 644.584C581.747 640.458 584.292 638.044 589.917 632.337C595.265 626.91 600.088 621.625 604.133 616.758C604.989 615.728 605.72 614.858 605.759 614.824C605.837 614.754 609.548 610.16 611.001 608.334C614.968 603.35 620.928 595.085 625.021 588.892C626.072 587.303 626.829 586.272 626.923 586.306C627.118 586.376 629 587.594 635.563 591.897C640.685 595.256 641.677 595.904 646.908 599.312C648.382 600.273 649.78 601.124 650.013 601.202C650.59 601.397 651.569 601.38 652.393 601.16C653.33 600.911 653.727 600.698 659.254 597.478C659.699 597.219 660.99 596.473 662.122 595.822C663.254 595.17 665.442 593.907 666.985 593.014C670.885 590.759 675.568 588.052 678.521 586.346C685.698 582.199 692.765 578.117 696.042 576.226C702.386 572.566 702.238 572.66 703.49 571.468C705.429 569.623 706.76 567.466 707.581 564.843C708.518 561.849 708.379 559.282 707.194 557.728C706.884 557.321 705.748 556.526 694.67 548.968C692.098 547.213 688.759 544.933 687.25 543.901C683.322 541.216 681.323 539.851 677.648 537.344C670.416 532.413 668.001 530.765 667.11 530.15C666.348 529.625 659.401 524.874 658.956 524.574C658.879 524.521 659.076 523.877 659.471 522.889C665.615 507.547 669.234 496.817 674.343 478.796C677.343 468.21 679.881 457.253 682.189 444.914C682.771 441.806 683.812 435.347 684.383 431.311C684.652 429.406 684.786 428.418 685.201 425.258C685.626 422.03 685.578 420.692 684.99 419.381C684.684 418.698 683.753 417.646 683.454 417.646C683.387 417.646 683.106 417.314 682.83 416.907C682 415.684 681.105 415.074 679.082 414.35C678.43 414.118 674.867 412.82 671.163 411.468C667.459 410.115 663.84 408.796 663.12 408.536C662.399 408.277 660.562 407.609 659.035 407.052C657.509 406.495 655.012 405.585 653.486 405.028C651.96 404.471 650.122 403.803 649.402 403.544C648.682 403.284 644.136 401.628 639.3 399.863C634.465 398.097 629.919 396.44 629.199 396.18C628.479 395.92 626.01 395.024 623.712 394.188C621.414 393.352 618.608 392.331 617.477 391.92C616.345 391.509 615.138 391.065 614.795 390.935C614.452 390.804 608.981 388.809 602.636 386.501C596.292 384.193 586.948 380.785 581.873 378.927L572.644 375.55L571.272 375.539C569.591 375.525 569.342 375.611 566.783 377.086C565.754 377.679 563.566 378.943 561.919 379.895C558.332 381.969 555.892 383.379 553.128 384.975C551.996 385.628 550.537 386.471 549.885 386.847C549.234 387.224 547.55 388.197 546.144 389.009C543.497 390.539 541.36 391.774 537.726 393.875C536.56 394.549 535.213 395.322 534.733 395.592C534.253 395.862 533.535 396.336 533.138 396.644C532.49 397.146 532.422 397.174 532.48 396.911C532.515 396.75 532.689 395.832 532.865 394.871C534.586 385.499 538.912 376.498 545.476 368.637C550.479 362.645 555.946 357.679 562.294 353.36C564.806 351.651 568.806 349.218 570.556 348.336L571.211 348.005L573.486 348.832C574.738 349.287 576.351 349.872 577.071 350.132C579.913 351.159 591.886 355.52 592.473 355.743C592.816 355.873 594.022 356.316 595.154 356.727C602.22 359.295 607.244 361.126 609.308 361.887C611.362 362.643 611.819 362.768 612.738 362.822C613.359 362.858 614.03 362.823 614.359 362.737C614.668 362.657 615.284 362.535 615.728 362.467C617.308 362.225 618.531 361.639 620.026 360.408C620.887 359.7 621.633 358.845 623.18 356.796C623.745 356.047 626.046 353.011 628.293 350.049C630.541 347.086 634.343 342.069 636.744 338.901C639.145 335.732 642.063 331.884 643.229 330.35C650.526 320.748 650.297 321.068 651.158 319.244C651.75 317.991 652.197 316.455 652.394 314.998C652.662 313.024 652.338 311.807 650.531 308.013C646.829 300.238 641.678 294.396 634.873 290.255C632.414 288.758 631.838 288.429 630.453 287.734C627.079 286.041 623.649 284.9 619.778 284.183C618.883 284.017 617.76 283.734 617.284 283.553C616.807 283.373 615.406 282.859 614.172 282.412C612.937 281.965 610.805 281.187 609.433 280.684C608.061 280.181 605.592 279.282 603.946 278.686C602.3 278.091 599.83 277.191 598.459 276.688C595.454 275.584 588.851 273.182 580.251 270.063C576.753 268.794 573.667 267.669 573.394 267.563C572.968 267.398 568.338 265.707 566.409 265.013C566.066 264.889 564.074 264.162 561.982 263.396C559.89 262.63 557.112 261.621 555.809 261.153C554.506 260.685 553.215 260.217 552.94 260.112C552.666 260.007 551.516 259.586 550.384 259.175C549.252 258.764 547.176 258.007 545.77 257.493C544.364 256.978 541.866 256.07 540.22 255.474C538.574 254.878 536.105 253.979 534.733 253.476C533.361 252.973 530.668 251.99 528.747 251.292C526.827 250.593 522.587 249.05 519.326 247.862C511.829 245.13 510.334 244.662 507.235 244.071C503.304 243.32 498.928 243.057 494.702 243.317ZM503.743 247.481C506.087 247.79 508.529 248.3 510.478 248.888C511.061 249.063 513.614 249.961 516.152 250.883C518.69 251.805 521.047 252.66 521.39 252.784C522.92 253.335 527.99 255.184 528.409 255.343C528.663 255.439 529.798 255.854 530.93 256.265C532.061 256.676 533.857 257.33 534.92 257.718C535.983 258.107 540.024 259.575 543.899 260.98C547.774 262.385 551.169 263.621 551.443 263.727C552.035 263.956 559.122 266.536 567.656 269.629C569.576 270.325 571.344 270.971 571.584 271.063C571.824 271.156 574.911 272.28 578.443 273.562C581.976 274.843 585.09 275.978 585.363 276.083C585.637 276.188 587.168 276.748 588.766 277.327C590.363 277.905 591.879 278.458 592.134 278.555C592.389 278.651 593.523 279.067 594.655 279.478C595.787 279.89 597.891 280.656 599.332 281.18C600.772 281.705 602.836 282.453 603.919 282.843C605.238 283.318 605.813 283.579 605.665 283.633C605.542 283.678 604.685 283.781 603.759 283.861C596.572 284.482 587.804 286.945 579.446 290.69C569.665 295.073 557.821 302.399 547.329 310.558C544.925 312.427 540.546 316.059 538.724 317.696C531.506 324.177 525.426 330.358 520.195 336.531C502.703 357.173 489.808 380.505 482.97 403.884C481.256 409.747 479.625 417.327 478.924 422.7C478.861 423.181 478.755 423.995 478.688 424.51C477.603 432.884 477.506 442.258 478.438 448.907C479.124 453.807 480.809 460.236 482.362 463.883C483.429 466.388 486.329 472.015 488.07 474.958C488.384 475.49 488.627 475.926 488.609 475.926C488.591 475.926 484.792 474.546 480.166 472.859C475.541 471.172 470.998 469.519 470.072 469.186C469.146 468.853 467.856 468.386 467.204 468.148C466.553 467.91 464.448 467.145 462.528 466.448C460.607 465.751 458.755 465.073 458.412 464.941C457.846 464.724 439.569 458.067 431.351 455.084C422.536 451.885 415.408 449.289 414.391 448.906C413.773 448.673 412.23 448.109 410.961 447.652C409.692 447.195 408.458 446.745 408.218 446.652C407.977 446.559 406.21 445.914 404.289 445.218C402.369 444.523 400.292 443.77 399.675 443.545C399.058 443.32 397.823 442.873 396.931 442.552C396.04 442.23 395.114 441.893 394.874 441.801C394.634 441.709 392.473 440.922 390.073 440.052C387.672 439.181 385.31 438.32 384.824 438.138L383.941 437.807L382.711 435.932C379.497 431.03 376.318 425.302 374.261 420.703C372.446 416.646 370.747 410.252 370.067 404.917C369.046 396.898 369.593 385.985 371.548 375.403C373.933 362.49 378.315 349.799 385.013 336.404C398.505 309.419 418.058 286.369 442.076 269.132C452.954 261.325 464.332 255.016 473.601 251.652C480.772 249.048 486.343 247.873 494.453 247.251C496.03 247.13 502.254 247.284 503.743 247.481ZM614.047 287.996C620.726 288.604 626.2 290.5 632.285 294.311C636.146 296.729 638.386 298.585 641.044 301.571C643.935 304.819 646.882 309.679 648.656 314.128C649.027 315.059 649.05 315.202 648.992 316.249C648.89 318.063 648.538 318.739 645.845 322.279C644.921 323.493 641.248 328.333 637.681 333.034C634.115 337.736 630.004 343.154 628.546 345.074C625.182 349.504 621.722 354.075 620.939 355.123C619.239 357.398 617.715 358.36 616.381 358.001C615.747 357.83 615.397 357.422 614.608 355.934C610.712 348.59 605.87 343.334 600.529 340.653C597.989 339.378 595.258 338.638 592.138 338.379C587.509 337.995 581.651 339.265 575.543 341.975C566.354 346.053 555.773 353.413 549.075 360.385C542.291 367.446 538.399 372.81 534.918 379.895C531.551 386.747 529.636 393.466 528.731 401.61C528.41 404.495 528.404 411.932 528.72 414.152C529.466 419.382 530.794 423.927 532.865 428.334C534.516 431.846 538.792 438.108 542.868 442.98C546.378 447.176 549.88 450.795 555.061 455.582C558.047 458.342 562.295 461.692 570.649 467.876C571.746 468.689 573.262 469.811 574.016 470.37C577.172 472.711 578.11 473.388 582.808 476.723C590.162 481.943 597.332 487.038 603.198 491.212C606.078 493.261 610.82 496.63 613.735 498.698C616.65 500.766 620.302 503.36 621.851 504.463C623.4 505.566 624.795 506.538 624.952 506.621C625.437 506.881 626.394 506.8 627.049 506.442C628.056 505.894 629.158 504.713 629.733 503.565C630.309 502.416 633.791 490.908 635.434 484.724C638.697 472.444 641.15 460.479 643.1 447.332C643.507 444.591 643.842 443.63 644.86 442.282C645.774 441.072 645.766 441.078 650.524 438.332C652.136 437.401 655.279 435.587 657.508 434.3C659.737 433.014 662.809 431.239 664.335 430.357C667.888 428.303 671.87 426.003 675.653 423.819C679.381 421.666 679.436 421.639 680.18 421.639C680.944 421.639 681.547 422.017 681.868 422.695C682.252 423.507 682.214 424.059 681.328 430.687C680.058 440.188 677.455 454.285 675.328 463.189C673.659 470.175 672.168 475.868 670.409 481.978C669.816 484.037 669.202 486.171 669.045 486.72C668.592 488.307 667.734 491.184 667.613 491.525C667.551 491.697 667.214 492.764 666.862 493.896C664.165 502.577 660.073 513.992 656.752 522.1C655.661 524.765 655.509 525.288 655.497 526.412C655.482 527.926 655.711 528.225 658.131 529.839C658.783 530.273 660.382 531.358 661.685 532.25C666.363 535.451 669.948 537.9 671.754 539.131C672.765 539.819 674.084 540.719 674.685 541.13C677.962 543.373 683.963 547.469 685.317 548.387C686.175 548.969 687.634 549.962 688.56 550.595C693.537 553.996 702.107 559.848 703.049 560.488C704.506 561.478 704.772 561.895 704.772 563.195C704.772 564.963 704.049 566.694 702.727 568.092C702.005 568.856 701.147 569.418 698.024 571.176C697.723 571.345 696.803 571.874 695.98 572.352C695.157 572.829 693.333 573.884 691.927 574.696C687.551 577.224 680.769 581.143 676.12 583.831C673.668 585.248 670.96 586.812 670.103 587.306C667.803 588.631 664.602 590.479 663.182 591.301C662.496 591.699 661.233 592.429 660.376 592.924C659.519 593.418 657.919 594.342 656.822 594.977C653.247 597.046 653.532 596.911 652.707 596.913C651.98 596.915 651.916 596.887 650.462 595.927C649.058 594.999 640.307 589.27 636.993 587.109C636.17 586.572 634.038 585.176 632.254 584.007C629.097 581.937 628.995 581.881 628.353 581.879C627.533 581.877 626.672 582.29 625.798 583.105C625.404 583.472 624.265 585.048 622.718 587.368C618.206 594.131 614.025 599.911 609.131 606.15C607.658 608.028 602.717 614.069 601.915 614.972C601.714 615.199 600.772 616.284 599.823 617.382C598.873 618.48 597.892 619.603 597.642 619.878C597.392 620.152 596.605 621.023 595.893 621.812C592.2 625.904 585.685 632.578 581.935 636.11C580.202 637.742 576.975 640.619 574.427 642.803C556.803 657.911 536.776 670.556 519.519 677.472C517.417 678.314 516.809 678.541 514.156 679.466C511.011 680.563 505.801 682.062 503.307 682.586C501.816 682.899 500.745 683.114 500.189 683.212C499.846 683.273 499.089 683.406 498.506 683.509C493.835 684.332 487.826 684.725 483.752 684.475C477.287 684.078 472.238 683.143 466.83 681.341C459.305 678.834 451.942 674.205 446.563 668.597C442.779 664.651 439.099 658.729 436.658 652.656C434.002 646.049 432.486 639.221 431.702 630.332C431.431 627.256 431.391 616.162 431.639 612.702C432.079 606.573 432.644 601.058 433.155 597.914C433.973 592.887 434.266 591.229 434.798 588.616C435.398 585.669 435.743 584.143 436.532 580.941C439.696 568.096 444.939 553.918 451.163 541.381C454.26 535.142 457.414 529.459 461.449 522.849C469.205 510.141 480.168 495.488 490.517 483.996C491.485 482.921 492.499 481.725 492.77 481.338C493.742 479.95 494.317 477.801 494.041 476.591C493.976 476.305 493.306 475.07 492.553 473.846C488.679 467.554 485.87 461.956 484.457 457.714C482.124 450.709 481.173 444.633 481.175 436.74C481.178 426.599 482.52 416.89 485.453 405.79C486.723 400.982 489.12 393.94 491.271 388.693C493.17 384.062 496.946 376.097 499.199 371.971C502.896 365.197 506.656 359.111 510.598 353.519C511.389 352.396 512.121 351.355 512.224 351.205C512.326 351.055 512.556 350.738 512.733 350.501C512.91 350.263 513.469 349.507 513.975 348.821C515.732 346.438 519.869 341.242 521.776 339.024C533.574 325.301 546.934 313.721 562.044 304.12C567.067 300.929 571.147 298.615 575.513 296.481C579.237 294.661 580.144 294.257 583.244 293.04C590.578 290.162 596.825 288.677 604.258 288.047C607.919 287.737 611.023 287.72 614.047 287.996ZM592.036 342.904C598.477 343.9 603.735 347.556 608.447 354.312C609.685 356.088 610.926 358.101 610.837 358.19C610.806 358.221 610.028 357.972 609.109 357.637C608.19 357.301 606.103 356.541 604.472 355.948C602.84 355.354 601.297 354.788 601.042 354.69C600.618 354.528 595.436 352.642 592.286 351.503C591.566 351.243 590.134 350.724 589.106 350.349C588.077 349.974 586.197 349.291 584.928 348.83C583.659 348.369 581.723 347.663 580.626 347.262C579.528 346.86 578.112 346.345 577.479 346.117C576.845 345.888 576.326 345.666 576.325 345.624C576.323 345.525 578.268 344.783 579.85 344.279C582.459 343.447 585.226 342.878 587.422 342.722C588.41 342.652 591.088 342.758 592.036 342.904ZM573.67 380.131C576.708 381.223 584.135 383.923 584.716 384.146C584.976 384.246 587.445 385.147 590.203 386.148C592.96 387.15 596.367 388.389 597.773 388.903C599.179 389.417 601.255 390.174 602.387 390.584C603.519 390.995 604.725 391.438 605.068 391.567C605.411 391.697 607.88 392.597 610.555 393.567C613.23 394.537 616.541 395.742 617.913 396.245C620.111 397.051 621.404 397.522 626.144 399.242C634.993 402.453 638.471 403.72 638.989 403.92C639.332 404.052 643.877 405.709 649.09 407.6C654.303 409.492 658.848 411.147 659.191 411.277C659.534 411.407 660.755 411.855 661.904 412.271C667.096 414.154 668.198 414.554 668.607 414.708C668.847 414.798 671.091 415.615 673.595 416.524C676.098 417.432 678.192 418.216 678.247 418.267C678.302 418.317 677.152 419.05 675.691 419.894C670.906 422.66 666.834 425.015 664.803 426.192C663.706 426.827 662.078 427.768 661.187 428.283C660.295 428.797 657.742 430.272 655.512 431.56C653.283 432.849 650.337 434.547 648.965 435.335C647.593 436.122 646.027 437.107 645.483 437.523L644.496 438.28L643.426 437.895C641.61 437.242 636.216 435.279 628.077 432.309C623.79 430.745 619.441 429.163 618.412 428.793C617.383 428.424 616.261 428.015 615.918 427.884C615.575 427.754 614.368 427.311 613.237 426.9C612.105 426.489 610.028 425.733 608.622 425.218C607.216 424.704 604.719 423.796 603.073 423.2C601.427 422.604 598.958 421.705 597.586 421.201C596.214 420.697 593.773 419.808 592.161 419.224C590.549 418.64 587.519 417.536 585.427 416.772C583.335 416.007 581.258 415.252 580.813 415.093C580.367 414.934 574.755 412.891 568.342 410.553C561.929 408.215 555.503 405.873 554.063 405.35C551.091 404.27 547.804 403.071 546.331 402.53C545.782 402.328 543.436 401.472 541.117 400.628C538.797 399.785 536.889 399.052 536.877 399.001C536.864 398.95 538.312 398.064 540.096 397.033C541.879 396.002 544.46 394.51 545.832 393.716C547.204 392.923 549.028 391.869 549.885 391.375C550.743 390.88 551.977 390.167 552.629 389.791C553.28 389.414 554.964 388.441 556.37 387.629C557.776 386.817 560.105 385.471 561.545 384.638C571.115 379.106 570.677 379.347 571.175 379.338C571.328 379.336 572.45 379.692 573.67 380.131ZM538.786 403.948C547.948 407.289 550.12 408.08 552.566 408.968C553.458 409.292 555.338 409.976 556.744 410.488C558.15 411 562.163 412.458 565.661 413.727C569.159 414.997 572.245 416.122 572.518 416.228C572.792 416.333 574.323 416.894 575.921 417.472C577.519 418.051 579.034 418.605 579.289 418.703C579.544 418.801 581.015 419.339 582.559 419.898C584.102 420.457 586.908 421.477 588.794 422.165C590.68 422.852 592.813 423.627 593.533 423.887C596.12 424.819 608.324 429.264 608.934 429.497C609.277 429.627 610.512 430.079 611.678 430.5C612.844 430.921 614.078 431.372 614.421 431.502C614.764 431.633 616.279 432.185 617.788 432.73C619.297 433.274 623.254 434.714 626.58 435.928C629.907 437.142 633.386 438.407 634.312 438.739C637.257 439.793 641.844 441.49 641.9 441.546C641.929 441.575 641.698 442.126 641.385 442.769C640.452 444.688 640.208 445.642 639.607 449.718C637.236 465.803 633.584 481.843 628.74 497.453C628.293 498.894 627.796 500.508 627.635 501.039C627.474 501.57 627.297 502.086 627.242 502.185C627.135 502.375 627.568 502.679 595.731 480.033C594.436 479.113 593.174 478.215 592.925 478.038C592.676 477.861 591.799 477.24 590.976 476.657C585.198 472.567 581.034 469.6 579.753 468.66C578.93 468.055 577.779 467.213 577.196 466.787C574.129 464.547 564.587 457.383 563.291 456.348C556.697 451.078 549.38 443.845 544.59 437.863C541.204 433.634 537.726 428.496 536.243 425.533C535.013 423.075 533.641 419.311 532.991 416.612C532.213 413.382 531.924 411.179 531.838 407.827C531.78 405.549 531.808 404.748 531.998 403.3C532.192 401.818 532.259 401.553 532.421 401.619C532.527 401.662 535.391 402.71 538.786 403.948ZM383.477 441.812C384.155 442.056 385.215 442.44 385.833 442.665C386.45 442.889 389.209 443.893 391.964 444.895C394.719 445.897 397.188 446.799 397.451 446.899C397.714 446.998 398.883 447.425 400.049 447.846C401.215 448.268 402.45 448.719 402.793 448.849C403.136 448.979 407.681 450.634 412.894 452.526C418.107 454.419 422.652 456.074 422.995 456.206C423.338 456.337 424.331 456.699 425.201 457.011C426.072 457.322 426.998 457.658 427.259 457.757C427.52 457.856 428.66 458.274 429.792 458.685C430.924 459.097 433.73 460.117 436.027 460.953C438.325 461.789 442.366 463.256 445.006 464.213C447.647 465.17 450.088 466.062 450.431 466.194C450.946 466.392 462.527 470.616 465.334 471.629C465.779 471.79 467.21 472.309 468.514 472.782C469.817 473.256 472.847 474.357 475.248 475.23C477.648 476.102 480.033 476.973 480.548 477.165C481.062 477.357 483.321 478.182 485.567 478.997C487.812 479.813 489.65 480.529 489.651 480.588C489.651 480.646 489.184 481.208 488.613 481.835C488.042 482.463 486.567 484.156 485.335 485.597C470.125 503.39 458.157 521.214 448.759 540.066C445.682 546.239 443.33 551.572 440.806 558.102C434.102 575.44 430.029 592.76 428.612 609.956C428.175 615.249 428.118 616.815 428.118 623.372C428.119 630.237 428.198 631.929 428.732 636.476C429.995 647.229 432.972 656.476 437.714 664.37C439.273 666.964 441.695 670.226 443.43 672.064C443.969 672.636 444.352 673.103 444.281 673.103C444.167 673.103 440.323 671.727 438.708 671.108C438.366 670.976 436.542 670.31 434.655 669.628C429.51 667.766 424.983 666.118 417.695 663.454C416.289 662.94 414.101 662.147 412.832 661.691C411.563 661.235 410.244 660.753 409.901 660.621C409.189 660.347 404.182 658.522 400.673 657.257C399.37 656.787 397.546 656.125 396.62 655.785C395.694 655.445 393.898 654.791 392.629 654.332C391.36 653.873 390.126 653.423 389.886 653.331C389.645 653.239 386.263 652.005 382.368 650.589C378.474 649.173 375.079 647.934 374.823 647.836C374.568 647.738 373.321 647.284 372.052 646.827C370.784 646.369 369.549 645.92 369.309 645.828C369.069 645.736 367.301 645.094 365.381 644.402C363.46 643.709 361.608 643.035 361.265 642.904C360.922 642.773 359.098 642.106 357.212 641.423C352.248 639.623 351.394 639.278 349.041 638.119C339.652 633.492 332.766 626.969 327.958 618.146C323.526 610.014 321.064 600.965 320.092 589.24C319.799 585.702 319.801 576.126 320.096 571.644C320.648 563.268 321.629 555.733 323.118 548.432C328.396 522.548 339.067 497.851 355.529 473.419C362.758 462.69 372.053 450.827 380.133 442.018L381.302 440.744L381.773 441.055C382.031 441.227 382.798 441.567 383.477 441.812ZM517.93 503.944C517.107 504.247 516.445 504.805 514.281 507.02C505.826 515.675 499.095 524.076 493.716 532.687C488.226 541.478 484.467 549.573 481.722 558.521C479.627 565.348 478.474 571.533 477.657 580.317C477.432 582.729 477.433 593.11 477.658 595.231C478.225 600.585 478.821 603.835 479.903 607.482C481.807 613.894 485.342 619.605 489.631 623.197C500.027 631.904 515.629 631.819 535.327 622.948C554.365 614.373 571.252 601.443 585.625 584.436C591.092 577.966 598.35 568.258 599.338 566.091C600.07 564.488 600.2 563.146 599.722 562.145C599.493 561.666 599.524 561.689 589.542 554.588C584.734 551.168 577.594 546.088 569.838 540.569C567.266 538.739 561.542 534.668 557.118 531.523C552.694 528.377 547.363 524.586 545.271 523.098C543.179 521.61 539.587 519.056 537.29 517.423C533.947 515.047 528.726 511.184 525.902 508.997C524.795 508.14 522.24 506.087 521.063 505.11C519.351 503.689 518.99 503.555 517.93 503.944ZM518.28 508.974C520.172 510.563 523.675 513.319 526.814 515.69C530.155 518.213 531.21 518.973 543.338 527.59C547.042 530.222 551.054 533.077 552.255 533.935C553.455 534.793 555.952 536.569 557.804 537.882C561.176 540.273 571.526 547.633 581.935 555.044C584.987 557.217 589.522 560.444 592.013 562.215C594.798 564.196 596.517 565.496 596.48 565.593C596.354 565.921 593.895 569.346 591.283 572.83C582.974 583.914 575.118 592.318 565.91 599.974C553.017 610.693 536.806 619.618 523.447 623.351C508.716 627.468 496.6 624.973 489.386 616.335C485.049 611.143 482.522 604.717 481.356 595.917C480.607 590.27 480.632 581.491 481.416 574.639C481.586 573.154 482.011 570.162 482.169 569.335C482.575 567.216 482.949 565.367 483.102 564.718C483.789 561.817 484.053 560.811 484.724 558.541C489.083 543.797 498.417 528.313 511.466 514.18C513.816 511.635 517.126 508.248 517.263 508.248C517.347 508.248 517.804 508.575 518.28 508.974Z" fill="#F1D9AA"/>
<path fill-rule="evenodd" clip-rule="evenodd" d="M494.702 243.317C483.077 244.031 473.21 246.804 461.592 252.62C458.359 254.238 451.352 258.169 449.246 259.545C448.663 259.926 448.046 260.311 447.874 260.4C447.703 260.49 447.254 260.784 446.877 261.053C446.5 261.322 445.489 262.004 444.632 262.568C441.252 264.79 438.633 266.668 434.293 269.981C432.314 271.492 431.949 271.782 430.393 273.087C429.891 273.508 429.2 274.064 428.857 274.323C428.514 274.581 427.812 275.168 427.298 275.626C426.783 276.084 425.942 276.824 425.427 277.269C424.913 277.715 424.321 278.244 424.112 278.445C423.903 278.646 423.145 279.344 422.428 279.996C420.187 282.034 415.205 286.959 412.96 289.356C412.254 290.109 406.693 296.426 405.599 297.718C405.221 298.163 404.782 298.668 404.621 298.84C404.461 299.012 404.191 299.367 404.022 299.629C403.852 299.892 403.478 300.342 403.191 300.63C402.903 300.917 402.331 301.623 401.92 302.199C401.508 302.774 401.014 303.419 400.821 303.632C400.629 303.845 400.377 304.16 400.262 304.331C400.147 304.503 399.575 305.282 398.991 306.063C398.407 306.844 397.721 307.77 397.465 308.122C397.21 308.474 396.886 308.91 396.745 309.091C396.313 309.646 395.907 310.232 395.546 310.819C395.358 311.126 395.101 311.488 394.976 311.622C394.851 311.756 394.749 311.904 394.749 311.951C394.749 311.998 394.314 312.63 393.783 313.356C393.251 314.081 392.592 315.028 392.317 315.46C391.482 316.775 390.654 318.098 390.379 318.558C390.236 318.798 389.996 319.2 389.846 319.45C389.696 319.701 389.357 320.284 389.091 320.746C388.825 321.208 388.452 321.817 388.262 322.1C388.071 322.382 387.813 322.838 387.688 323.113C387.563 323.388 387.307 323.844 387.119 324.127C386.931 324.411 386.433 325.309 386.013 326.124C385.593 326.939 385.168 327.697 385.069 327.808C384.97 327.919 384.643 328.511 384.343 329.124C384.043 329.738 383.708 330.314 383.599 330.404C383.49 330.495 383.401 330.676 383.401 330.806C383.401 330.936 383.26 331.266 383.087 331.539C382.915 331.812 382.804 332.036 382.84 332.036C382.94 332.036 382.302 333.254 382.177 333.303C382.117 333.327 381.588 334.329 381.002 335.53C376.388 344.988 372.595 354.897 370.192 363.774C367.124 375.106 365.694 385.42 365.693 396.21C365.692 401.67 365.998 405.121 366.891 409.721C367.698 413.878 369.308 419.251 370.643 422.242C372.469 426.336 375.833 432.512 378.408 436.498C378.685 436.927 378.911 437.333 378.911 437.4C378.911 437.492 377.091 439.584 376.662 439.984C376.491 440.145 372.91 444.264 371.292 446.162C359.728 459.729 348.659 475.608 340.938 489.705C340.678 490.18 340.078 491.275 339.606 492.139C338.645 493.896 334.544 502.057 333.893 503.506C333.662 504.02 333.265 504.891 333.01 505.44C328.506 515.157 323.95 528.124 321.25 538.908C318.532 549.764 317.115 558.697 316.223 570.583C315.909 574.78 315.908 586.664 316.222 590.114C316.589 594.14 316.956 596.828 317.62 600.347C319.925 612.556 325.256 623.538 332.455 630.905C336.384 634.927 340.336 637.908 345.427 640.693C348.664 642.464 350.238 643.091 363.51 647.896C364.813 648.368 366.946 649.142 368.249 649.617C369.552 650.091 372.582 651.192 374.983 652.063C377.384 652.935 379.563 653.73 379.826 653.832C380.089 653.933 382.539 654.827 385.271 655.819C388.004 656.811 390.454 657.705 390.717 657.806C390.98 657.908 393.356 658.774 395.996 659.732C398.637 660.69 407.84 664.04 416.448 667.177C425.056 670.313 432.604 673.063 433.221 673.287C436.824 674.593 443.235 676.927 444.196 677.282C444.813 677.51 447.366 678.439 449.87 679.345C452.373 680.251 454.842 681.213 455.357 681.483C460.494 684.176 464.101 685.615 468.759 686.826C474.276 688.261 479.162 688.872 485.1 688.87C494.878 688.867 503.988 687.091 515.715 682.903C521.403 680.871 528.775 677.461 536.105 673.472C541.203 670.697 548.766 666.004 554.811 661.865C560.798 657.765 570.083 650.646 574.515 646.758C574.721 646.577 575.843 645.599 577.009 644.584C581.747 640.458 584.292 638.044 589.917 632.337C595.265 626.91 600.088 621.625 604.133 616.758C604.989 615.728 605.72 614.858 605.759 614.824C605.837 614.754 609.548 610.16 611.001 608.334C614.968 603.35 620.928 595.085 625.021 588.892C626.072 587.303 626.829 586.272 626.923 586.306C627.118 586.376 629 587.594 635.563 591.897C640.685 595.256 641.677 595.904 646.908 599.312C648.382 600.273 649.78 601.124 650.013 601.202C650.59 601.397 651.569 601.38 652.393 601.16C653.33 600.911 653.727 600.698 659.254 597.478C659.699 597.219 660.99 596.473 662.122 595.822C663.254 595.17 665.442 593.907 666.985 593.014C670.885 590.759 675.568 588.052 678.521 586.346C685.698 582.199 692.765 578.117 696.042 576.226C702.386 572.566 702.238 572.66 703.49 571.468C705.429 569.623 706.76 567.466 707.581 564.843C708.518 561.849 708.379 559.282 707.194 557.728C706.884 557.321 705.748 556.526 694.67 548.968C692.098 547.213 688.759 544.933 687.25 543.901C683.322 541.216 681.323 539.851 677.648 537.344C670.416 532.413 668.001 530.765 667.11 530.15C666.348 529.625 659.401 524.874 658.956 524.574C658.879 524.521 659.076 523.877 659.471 522.889C665.615 507.547 669.234 496.817 674.343 478.796C677.343 468.21 679.881 457.253 682.189 444.914C682.771 441.806 683.812 435.347 684.383 431.311C684.652 429.406 684.786 428.418 685.201 425.258C685.626 422.03 685.578 420.692 684.99 419.381C684.684 418.698 683.753 417.646 683.454 417.646C683.387 417.646 683.106 417.314 682.83 416.907C682 415.684 681.105 415.074 679.082 414.35C678.43 414.118 674.867 412.82 671.163 411.468C667.459 410.115 663.84 408.796 663.12 408.536C662.399 408.277 660.562 407.609 659.035 407.052C657.509 406.495 655.012 405.585 653.486 405.028C651.96 404.471 650.122 403.803 649.402 403.544C648.682 403.284 644.136 401.628 639.3 399.863C634.465 398.097 629.919 396.44 629.199 396.18C628.479 395.92 626.01 395.024 623.712 394.188C621.414 393.352 618.608 392.331 617.477 391.92C616.345 391.509 615.138 391.065 614.795 390.935C614.452 390.804 608.981 388.809 602.636 386.501C596.292 384.193 586.948 380.785 581.873 378.927L572.644 375.55L571.272 375.539C569.591 375.525 569.342 375.611 566.783 377.086C565.754 377.679 563.566 378.943 561.919 379.895C558.332 381.969 555.892 383.379 553.128 384.975C551.996 385.628 550.537 386.471 549.885 386.847C549.234 387.224 547.55 388.197 546.144 389.009C543.497 390.539 541.36 391.774 537.726 393.875C536.56 394.549 535.213 395.322 534.733 395.592C534.253 395.862 533.535 396.336 533.138 396.644C532.49 397.146 532.422 397.174 532.48 396.911C532.515 396.75 532.689 395.832 532.865 394.871C534.586 385.499 538.912 376.498 545.476 368.637C550.479 362.645 555.946 357.679 562.294 353.36C564.806 351.651 568.806 349.218 570.556 348.336L571.211 348.005L573.486 348.832C574.738 349.287 576.351 349.872 577.071 350.132C579.913 351.159 591.886 355.52 592.473 355.743C592.816 355.873 594.022 356.316 595.154 356.727C602.22 359.295 607.244 361.126 609.308 361.887C611.362 362.643 611.819 362.768 612.738 362.822C613.359 362.858 614.03 362.823 614.359 362.737C614.668 362.657 615.284 362.535 615.728 362.467C617.308 362.225 618.531 361.639 620.026 360.408C620.887 359.7 621.633 358.845 623.18 356.796C623.745 356.047 626.046 353.011 628.293 350.049C630.541 347.086 634.343 342.069 636.744 338.901C639.145 335.732 642.063 331.884 643.229 330.35C650.526 320.748 650.297 321.068 651.158 319.244C651.75 317.991 652.197 316.455 652.394 314.998C652.662 313.024 652.338 311.807 650.531 308.013C646.829 300.238 641.678 294.396 634.873 290.255C632.414 288.758 631.838 288.429 630.453 287.734C627.079 286.041 623.649 284.9 619.778 284.183C618.883 284.017 617.76 283.734 617.284 283.553C616.807 283.373 615.406 282.859 614.172 282.412C612.937 281.965 610.805 281.187 609.433 280.684C608.061 280.181 605.592 279.282 603.946 278.686C602.3 278.091 599.83 277.191 598.459 276.688C595.454 275.584 588.851 273.182 580.251 270.063C576.753 268.794 573.667 267.669 573.394 267.563C572.968 267.398 568.338 265.707 566.409 265.013C566.066 264.889 564.074 264.162 561.982 263.396C559.89 262.63 557.112 261.621 555.809 261.153C554.506 260.685 553.215 260.217 552.94 260.112C552.666 260.007 551.516 259.586 550.384 259.175C549.252 258.764 547.176 258.007 545.77 257.493C544.364 256.978 541.866 256.07 540.22 255.474C538.574 254.878 536.105 253.979 534.733 253.476C533.361 252.973 530.668 251.99 528.747 251.292C526.827 250.593 522.587 249.05 519.326 247.862C511.829 245.13 510.334 244.662 507.235 244.071C503.304 243.32 498.928 243.057 494.702 243.317ZM503.743 247.481C506.087 247.79 508.529 248.3 510.478 248.888C511.061 249.063 513.614 249.961 516.152 250.883C518.69 251.805 521.047 252.66 521.39 252.784C522.92 253.335 527.99 255.184 528.409 255.343C528.663 255.439 529.798 255.854 530.93 256.265C532.061 256.676 533.857 257.33 534.92 257.718C535.983 258.107 540.024 259.575 543.899 260.98C547.774 262.385 551.169 263.621 551.443 263.727C552.035 263.956 559.122 266.536 567.656 269.629C569.576 270.325 571.344 270.971 571.584 271.063C571.824 271.156 574.911 272.28 578.443 273.562C581.976 274.843 585.09 275.978 585.363 276.083C585.637 276.188 587.168 276.748 588.766 277.327C590.363 277.905 591.879 278.458 592.134 278.555C592.389 278.651 593.523 279.067 594.655 279.478C595.787 279.89 597.891 280.656 599.332 281.18C600.772 281.705 602.836 282.453 603.919 282.843C605.238 283.318 605.813 283.579 605.665 283.633C605.542 283.678 604.685 283.781 603.759 283.861C596.572 284.482 587.804 286.945 579.446 290.69C569.665 295.073 557.821 302.399 547.329 310.558C544.925 312.427 540.546 316.059 538.724 317.696C531.506 324.177 525.426 330.358 520.195 336.531C502.703 357.173 489.808 380.505 482.97 403.884C481.256 409.747 479.625 417.327 478.924 422.7C478.861 423.181 478.755 423.995 478.688 424.51C477.603 432.884 477.506 442.258 478.438 448.907C479.124 453.807 480.809 460.236 482.362 463.883C483.429 466.388 486.329 472.015 488.07 474.958C488.384 475.49 488.627 475.926 488.609 475.926C488.591 475.926 484.792 474.546 480.166 472.859C475.541 471.172 470.998 469.519 470.072 469.186C469.146 468.853 467.856 468.386 467.204 468.148C466.553 467.91 464.448 467.145 462.528 466.448C460.607 465.751 458.755 465.073 458.412 464.941C457.846 464.724 439.569 458.067 431.351 455.084C422.536 451.885 415.408 449.289 414.391 448.906C413.773 448.673 412.23 448.109 410.961 447.652C409.692 447.195 408.458 446.745 408.218 446.652C407.977 446.559 406.21 445.914 404.289 445.218C402.369 444.523 400.292 443.77 399.675 443.545C399.058 443.32 397.823 442.873 396.931 442.552C396.04 442.23 395.114 441.893 394.874 441.801C394.634 441.709 392.473 440.922 390.073 440.052C387.672 439.181 385.31 438.32 384.824 438.138L383.941 437.807L382.711 435.932C379.497 431.03 376.318 425.302 374.261 420.703C372.446 416.646 370.747 410.252 370.067 404.917C369.046 396.898 369.593 385.985 371.548 375.403C373.933 362.49 378.315 349.799 385.013 336.404C398.505 309.419 418.058 286.369 442.076 269.132C452.954 261.325 464.332 255.016 473.601 251.652C480.772 249.048 486.343 247.873 494.453 247.251C496.03 247.13 502.254 247.284 503.743 247.481ZM614.047 287.996C620.726 288.604 626.2 290.5 632.285 294.311C636.146 296.729 638.386 298.585 641.044 301.571C643.935 304.819 646.882 309.679 648.656 314.128C649.027 315.059 649.05 315.202 648.992 316.249C648.89 318.063 648.538 318.739 645.845 322.279C644.921 323.493 641.248 328.333 637.681 333.034C634.115 337.736 630.004 343.154 628.546 345.074C625.182 349.504 621.722 354.075 620.939 355.123C619.239 357.398 617.715 358.36 616.381 358.001C615.747 357.83 615.397 357.422 614.608 355.934C610.712 348.59 605.87 343.334 600.529 340.653C597.989 339.378 595.258 338.638 592.138 338.379C587.509 337.995 581.651 339.265 575.543 341.975C566.354 346.053 555.773 353.413 549.075 360.385C542.291 367.446 538.399 372.81 534.918 379.895C531.551 386.747 529.636 393.466 528.731 401.61C528.41 404.495 528.404 411.932 528.72 414.152C529.466 419.382 530.794 423.927 532.865 428.334C534.516 431.846 538.792 438.108 542.868 442.98C546.378 447.176 549.88 450.795 555.061 455.582C558.047 458.342 562.295 461.692 570.649 467.876C571.746 468.689 573.262 469.811 574.016 470.37C577.172 472.711 578.11 473.388 582.808 476.723C590.162 481.943 597.332 487.038 603.198 491.212C606.078 493.261 610.82 496.63 613.735 498.698C616.65 500.766 620.302 503.36 621.851 504.463C623.4 505.566 624.795 506.538 624.952 506.621C625.437 506.881 626.394 506.8 627.049 506.442C628.056 505.894 629.158 504.713 629.733 503.565C630.309 502.416 633.791 490.908 635.434 484.724C638.697 472.444 641.15 460.479 643.1 447.332C643.507 444.591 643.842 443.63 644.86 442.282C645.774 441.072 645.766 441.078 650.524 438.332C652.136 437.401 655.279 435.587 657.508 434.3C659.737 433.014 662.809 431.239 664.335 430.357C667.888 428.303 671.87 426.003 675.653 423.819C679.381 421.666 679.436 421.639 680.18 421.639C680.944 421.639 681.547 422.017 681.868 422.695C682.252 423.507 682.214 424.059 681.328 430.687C680.058 440.188 677.455 454.285 675.328 463.189C673.659 470.175 672.168 475.868 670.409 481.978C669.816 484.037 669.202 486.171 669.045 486.72C668.592 488.307 667.734 491.184 667.613 491.525C667.551 491.697 667.214 492.764 666.862 493.896C664.165 502.577 660.073 513.992 656.752 522.1C655.661 524.765 655.509 525.288 655.497 526.412C655.482 527.926 655.711 528.225 658.131 529.839C658.783 530.273 660.382 531.358 661.685 532.25C666.363 535.451 669.948 537.9 671.754 539.131C672.765 539.819 674.084 540.719 674.685 541.13C677.962 543.373 683.963 547.469 685.317 548.387C686.175 548.969 687.634 549.962 688.56 550.595C693.537 553.996 702.107 559.848 703.049 560.488C704.506 561.478 704.772 561.895 704.772 563.195C704.772 564.963 704.049 566.694 702.727 568.092C702.005 568.856 701.147 569.418 698.024 571.176C697.723 571.345 696.803 571.874 695.98 572.352C695.157 572.829 693.333 573.884 691.927 574.696C687.551 577.224 680.769 581.143 676.12 583.831C673.668 585.248 670.96 586.812 670.103 587.306C667.803 588.631 664.602 590.479 663.182 591.301C662.496 591.699 661.233 592.429 660.376 592.924C659.519 593.418 657.919 594.342 656.822 594.977C653.247 597.046 653.532 596.911 652.707 596.913C651.98 596.915 651.916 596.887 650.462 595.927C649.058 594.999 640.307 589.27 636.993 587.109C636.17 586.572 634.038 585.176 632.254 584.007C629.097 581.937 628.995 581.881 628.353 581.879C627.533 581.877 626.672 582.29 625.798 583.105C625.404 583.472 624.265 585.048 622.718 587.368C618.206 594.131 614.025 599.911 609.131 606.15C607.658 608.028 602.717 614.069 601.915 614.972C601.714 615.199 600.772 616.284 599.823 617.382C598.873 618.48 597.892 619.603 597.642 619.878C597.392 620.152 596.605 621.023 595.893 621.812C592.2 625.904 585.685 632.578 581.935 636.11C580.202 637.742 576.975 640.619 574.427 642.803C556.803 657.911 536.776 670.556 519.519 677.472C517.417 678.314 516.809 678.541 514.156 679.466C511.011 680.563 505.801 682.062 503.307 682.586C501.816 682.899 500.745 683.114 500.189 683.212C499.846 683.273 499.089 683.406 498.506 683.509C493.835 684.332 487.826 684.725 483.752 684.475C477.287 684.078 472.238 683.143 466.83 681.341C459.305 678.834 451.942 674.205 446.563 668.597C442.779 664.651 439.099 658.729 436.658 652.656C434.002 646.049 432.486 639.221 431.702 630.332C431.431 627.256 431.391 616.162 431.639 612.702C432.079 606.573 432.644 601.058 433.155 597.914C433.973 592.887 434.266 591.229 434.798 588.616C435.398 585.669 435.743 584.143 436.532 580.941C439.696 568.096 444.939 553.918 451.163 541.381C454.26 535.142 457.414 529.459 461.449 522.849C469.205 510.141 480.168 495.488 490.517 483.996C491.485 482.921 492.499 481.725 492.77 481.338C493.742 479.95 494.317 477.801 494.041 476.591C493.976 476.305 493.306 475.07 492.553 473.846C488.679 467.554 485.87 461.956 484.457 457.714C482.124 450.709 481.173 444.633 481.175 436.74C481.178 426.599 482.52 416.89 485.453 405.79C486.723 400.982 489.12 393.94 491.271 388.693C493.17 384.062 496.946 376.097 499.199 371.971C502.896 365.197 506.656 359.111 510.598 353.519C511.389 352.396 512.121 351.355 512.224 351.205C512.326 351.055 512.556 350.738 512.733 350.501C512.91 350.263 513.469 349.507 513.975 348.821C515.732 346.438 519.869 341.242 521.776 339.024C533.574 325.301 546.934 313.721 562.044 304.12C567.067 300.929 571.147 298.615 575.513 296.481C579.237 294.661 580.144 294.257 583.244 293.04C590.578 290.162 596.825 288.677 604.258 288.047C607.919 287.737 611.023 287.72 614.047 287.996ZM592.036 342.904C598.477 343.9 603.735 347.556 608.447 354.312C609.685 356.088 610.926 358.101 610.837 358.19C610.806 358.221 610.028 357.972 609.109 357.637C608.19 357.301 606.103 356.541 604.472 355.948C602.84 355.354 601.297 354.788 601.042 354.69C600.618 354.528 595.436 352.642 592.286 351.503C591.566 351.243 590.134 350.724 589.106 350.349C588.077 349.974 586.197 349.291 584.928 348.83C583.659 348.369 581.723 347.663 580.626 347.262C579.528 346.86 578.112 346.345 577.479 346.117C576.845 345.888 576.326 345.666 576.325 345.624C576.323 345.525 578.268 344.783 579.85 344.279C582.459 343.447 585.226 342.878 587.422 342.722C588.41 342.652 591.088 342.758 592.036 342.904ZM573.67 380.131C576.708 381.223 584.135 383.923 584.716 384.146C584.976 384.246 587.445 385.147 590.203 386.148C592.96 387.15 596.367 388.389 597.773 388.903C599.179 389.417 601.255 390.174 602.387 390.584C603.519 390.995 604.725 391.438 605.068 391.567C605.411 391.697 607.88 392.597 610.555 393.567C613.23 394.537 616.541 395.742 617.913 396.245C620.111 397.051 621.404 397.522 626.144 399.242C634.993 402.453 638.471 403.72 638.989 403.92C639.332 404.052 643.877 405.709 649.09 407.6C654.303 409.492 658.848 411.147 659.191 411.277C659.534 411.407 660.755 411.855 661.904 412.271C667.096 414.154 668.198 414.554 668.607 414.708C668.847 414.798 671.091 415.615 673.595 416.524C676.098 417.432 678.192 418.216 678.247 418.267C678.302 418.317 677.152 419.05 675.691 419.894C670.906 422.66 666.834 425.015 664.803 426.192C663.706 426.827 662.078 427.768 661.187 428.283C660.295 428.797 657.742 430.272 655.512 431.56C653.283 432.849 650.337 434.547 648.965 435.335C647.593 436.122 646.027 437.107 645.483 437.523L644.496 438.28L643.426 437.895C641.61 437.242 636.216 435.279 628.077 432.309C623.79 430.745 619.441 429.163 618.412 428.793C617.383 428.424 616.261 428.015 615.918 427.884C615.575 427.754 614.368 427.311 613.237 426.9C612.105 426.489 610.028 425.733 608.622 425.218C607.216 424.704 604.719 423.796 603.073 423.2C601.427 422.604 598.958 421.705 597.586 421.201C596.214 420.697 593.773 419.808 592.161 419.224C590.549 418.64 587.519 417.536 585.427 416.772C583.335 416.007 581.258 415.252 580.813 415.093C580.367 414.934 574.755 412.891 568.342 410.553C561.929 408.215 555.503 405.873 554.063 405.35C551.091 404.27 547.804 403.071 546.331 402.53C545.782 402.328 543.436 401.472 541.117 400.628C538.797 399.785 536.889 399.052 536.877 399.001C536.864 398.95 538.312 398.064 540.096 397.033C541.879 396.002 544.46 394.51 545.832 393.716C547.204 392.923 549.028 391.869 549.885 391.375C550.743 390.88 551.977 390.167 552.629 389.791C553.28 389.414 554.964 388.441 556.37 387.629C557.776 386.817 560.105 385.471 561.545 384.638C571.115 379.106 570.677 379.347 571.175 379.338C571.328 379.336 572.45 379.692 573.67 380.131ZM538.786 403.948C547.948 407.289 550.12 408.08 552.566 408.968C553.458 409.292 555.338 409.976 556.744 410.488C558.15 411 562.163 412.458 565.661 413.727C569.159 414.997 572.245 416.122 572.518 416.228C572.792 416.333 574.323 416.894 575.921 417.472C577.519 418.051 579.034 418.605 579.289 418.703C579.544 418.801 581.015 419.339 582.559 419.898C584.102 420.457 586.908 421.477 588.794 422.165C590.68 422.852 592.813 423.627 593.533 423.887C596.12 424.819 608.324 429.264 608.934 429.497C609.277 429.627 610.512 430.079 611.678 430.5C612.844 430.921 614.078 431.372 614.421 431.502C614.764 431.633 616.279 432.185 617.788 432.73C619.297 433.274 623.254 434.714 626.58 435.928C629.907 437.142 633.386 438.407 634.312 438.739C637.257 439.793 641.844 441.49 641.9 441.546C641.929 441.575 641.698 442.126 641.385 442.769C640.452 444.688 640.208 445.642 639.607 449.718C637.236 465.803 633.584 481.843 628.74 497.453C628.293 498.894 627.796 500.508 627.635 501.039C627.474 501.57 627.297 502.086 627.242 502.185C627.135 502.375 627.568 502.679 595.731 480.033C594.436 479.113 593.174 478.215 592.925 478.038C592.676 477.861 591.799 477.24 590.976 476.657C585.198 472.567 581.034 469.6 579.753 468.66C578.93 468.055 577.779 467.213 577.196 466.787C574.129 464.547 564.587 457.383 563.291 456.348C556.697 451.078 549.38 443.845 544.59 437.863C541.204 433.634 537.726 428.496 536.243 425.533C535.013 423.075 533.641 419.311 532.991 416.612C532.213 413.382 531.924 411.179 531.838 407.827C531.78 405.549 531.808 404.748 531.998 403.3C532.192 401.818 532.259 401.553 532.421 401.619C532.527 401.662 535.391 402.71 538.786 403.948ZM383.477 441.812C384.155 442.056 385.215 442.44 385.833 442.665C386.45 442.889 389.209 443.893 391.964 444.895C394.719 445.897 397.188 446.799 397.451 446.899C397.714 446.998 398.883 447.425 400.049 447.846C401.215 448.268 402.45 448.719 402.793 448.849C403.136 448.979 407.681 450.634 412.894 452.526C418.107 454.419 422.652 456.074 422.995 456.206C423.338 456.337 424.331 456.699 425.201 457.011C426.072 457.322 426.998 457.658 427.259 457.757C427.52 457.856 428.66 458.274 429.792 458.685C430.924 459.097 433.73 460.117 436.027 460.953C438.325 461.789 442.366 463.256 445.006 464.213C447.647 465.17 450.088 466.062 450.431 466.194C450.946 466.392 462.527 470.616 465.334 471.629C465.779 471.79 467.21 472.309 468.514 472.782C469.817 473.256 472.847 474.357 475.248 475.23C477.648 476.102 480.033 476.973 480.548 477.165C481.062 477.357 483.321 478.182 485.567 478.997C487.812 479.813 489.65 480.529 489.651 480.588C489.651 480.646 489.184 481.208 488.613 481.835C488.042 482.463 486.567 484.156 485.335 485.597C470.125 503.39 458.157 521.214 448.759 540.066C445.682 546.239 443.33 551.572 440.806 558.102C434.102 575.44 430.029 592.76 428.612 609.956C428.175 615.249 428.118 616.815 428.118 623.372C428.119 630.237 428.198 631.929 428.732 636.476C429.995 647.229 432.972 656.476 437.714 664.37C439.273 666.964 441.695 670.226 443.43 672.064C443.969 672.636 444.352 673.103 444.281 673.103C444.167 673.103 440.323 671.727 438.708 671.108C438.366 670.976 436.542 670.31 434.655 669.628C429.51 667.766 424.983 666.118 417.695 663.454C416.289 662.94 414.101 662.147 412.832 661.691C411.563 661.235 410.244 660.753 409.901 660.621C409.189 660.347 404.182 658.522 400.673 657.257C399.37 656.787 397.546 656.125 396.62 655.785C395.694 655.445 393.898 654.791 392.629 654.332C391.36 653.873 390.126 653.423 389.886 653.331C389.645 653.239 386.263 652.005 382.368 650.589C378.474 649.173 375.079 647.934 374.823 647.836C374.568 647.738 373.321 647.284 372.052 646.827C370.784 646.369 369.549 645.92 369.309 645.828C369.069 645.736 367.301 645.094 365.381 644.402C363.46 643.709 361.608 643.035 361.265 642.904C360.922 642.773 359.098 642.106 357.212 641.423C352.248 639.623 351.394 639.278 349.041 638.119C339.652 633.492 332.766 626.969 327.958 618.146C323.526 610.014 321.064 600.965 320.092 589.24C319.799 585.702 319.801 576.126 320.096 571.644C320.648 563.268 321.629 555.733 323.118 548.432C328.396 522.548 339.067 497.851 355.529 473.419C362.758 462.69 372.053 450.827 380.133 442.018L381.302 440.744L381.773 441.055C382.031 441.227 382.798 441.567 383.477 441.812ZM517.93 503.944C517.107 504.247 516.445 504.805 514.281 507.02C505.826 515.675 499.095 524.076 493.716 532.687C488.226 541.478 484.467 549.573 481.722 558.521C479.627 565.348 478.474 571.533 477.657 580.317C477.432 582.729 477.433 593.11 477.658 595.231C478.225 600.585 478.821 603.835 479.903 607.482C481.807 613.894 485.342 619.605 489.631 623.197C500.027 631.904 515.629 631.819 535.327 622.948C554.365 614.373 571.252 601.443 585.625 584.436C591.092 577.966 598.35 568.258 599.338 566.091C600.07 564.488 600.2 563.146 599.722 562.145C599.493 561.666 599.524 561.689 589.542 554.588C584.734 551.168 577.594 546.088 569.838 540.569C567.266 538.739 561.542 534.668 557.118 531.523C552.694 528.377 547.363 524.586 545.271 523.098C543.179 521.61 539.587 519.056 537.29 517.423C533.947 515.047 528.726 511.184 525.902 508.997C524.795 508.14 522.24 506.087 521.063 505.11C519.351 503.689 518.99 503.555 517.93 503.944ZM518.28 508.974C520.172 510.563 523.675 513.319 526.814 515.69C530.155 518.213 531.21 518.973 543.338 527.59C547.042 530.222 551.054 533.077 552.255 533.935C553.455 534.793 555.952 536.569 557.804 537.882C561.176 540.273 571.526 547.633 581.935 555.044C584.987 557.217 589.522 560.444 592.013 562.215C594.798 564.196 596.517 565.496 596.48 565.593C596.354 565.921 593.895 569.346 591.283 572.83C582.974 583.914 575.118 592.318 565.91 599.974C553.017 610.693 536.806 619.618 523.447 623.351C508.716 627.468 496.6 624.973 489.386 616.335C485.049 611.143 482.522 604.717 481.356 595.917C480.607 590.27 480.632 581.491 481.416 574.639C481.586 573.154 482.011 570.162 482.169 569.335C482.575 567.216 482.949 565.367 483.102 564.718C483.789 561.817 484.053 560.811 484.724 558.541C489.083 543.797 498.417 528.313 511.466 514.18C513.816 511.635 517.126 508.248 517.263 508.248C517.347 508.248 517.804 508.575 518.28 508.974Z" stroke="#F1D9AA" stroke-width="2.9925"/>
</g>
<path d="M279.17 190.365C277.932 191.3 276.584 192.018 275.124 192.52C273.665 193.021 272.188 193.218 270.692 193.11C269.22 192.986 267.822 192.469 266.498 191.559L268.772 188.463C269.655 189.069 270.603 189.413 271.619 189.494C272.618 189.553 273.605 189.408 274.579 189.061C275.577 188.696 276.48 188.208 277.29 187.596C278.191 186.916 278.935 186.124 279.525 185.219C280.114 184.314 280.435 183.382 280.488 182.423C280.547 181.425 280.236 180.475 279.556 179.575C278.859 178.652 277.969 178.176 276.885 178.146C275.802 178.115 274.266 178.516 272.278 179.346L268.924 180.872C267.685 181.384 266.389 181.798 265.036 182.113C263.706 182.411 262.4 182.39 261.118 182.05C259.859 181.693 258.702 180.817 257.648 179.422C256.679 178.139 256.248 176.75 256.356 175.255C256.486 173.743 257.003 172.274 257.906 170.849C258.832 169.408 259.981 168.168 261.354 167.131C262.412 166.332 263.566 165.708 264.817 165.258C266.073 164.768 267.344 164.533 268.631 164.551C269.922 164.529 271.17 164.824 272.374 165.435L270.108 168.472C269.085 168.007 267.937 167.938 266.663 168.264C265.412 168.573 264.269 169.118 263.234 169.9C262.423 170.512 261.749 171.234 261.21 172.065C260.655 172.874 260.336 173.715 260.254 174.59C260.173 175.464 260.429 176.296 261.025 177.083C261.586 177.826 262.25 178.261 263.018 178.388C263.808 178.498 264.665 178.416 265.589 178.142C266.519 177.829 267.499 177.442 268.53 176.981L271.402 175.66C272.754 175.063 274.115 174.618 275.485 174.326C276.854 174.033 278.177 174.077 279.454 174.456C280.73 174.835 281.912 175.745 283 177.185C283.782 178.22 284.24 179.341 284.374 180.548C284.491 181.732 284.345 182.92 283.938 184.112C283.513 185.281 282.882 186.412 282.046 187.503C281.231 188.578 280.273 189.532 279.17 190.365Z" fill="#F2D6A5"/>
<path d="M310.339 168.501C308.055 169.903 305.772 170.577 303.488 170.523C301.189 170.445 299.032 169.735 297.015 168.391C294.999 167.048 293.238 165.151 291.732 162.699C290.197 160.199 289.318 157.744 289.095 155.332C288.881 152.882 289.298 150.623 290.345 148.556C291.393 146.49 293.047 144.763 295.306 143.375C297.325 142.135 299.427 141.49 301.614 141.438C303.824 141.372 305.876 141.965 307.771 143.218L305.478 146.115C304.286 145.358 302.942 144.975 301.447 144.966C299.961 144.919 298.437 145.375 296.875 146.334C295.457 147.205 294.392 148.355 293.681 149.785C292.995 151.199 292.757 152.834 292.97 154.69C293.168 156.521 293.909 158.482 295.193 160.573C296.433 162.592 297.82 164.124 299.355 165.167C300.889 166.211 302.47 166.763 304.096 166.824C305.746 166.87 307.316 166.435 308.806 165.52C310.368 164.56 311.472 163.419 312.116 162.097C312.784 160.76 313.055 159.369 312.929 157.924L316.55 157.19C316.777 159.5 316.337 161.64 315.23 163.61C314.108 165.557 312.478 167.187 310.339 168.501Z" fill="#F2D6A5"/>
<path d="M332.815 154.653L331.417 151.851L334.976 150.076L325.154 130.389L321.596 132.165L320.198 129.363L330.874 124.037L332.272 126.838L328.713 128.614L338.535 148.3L342.093 146.525L343.491 149.326L332.815 154.653Z" fill="#F2D6A5"/>
<path d="M357.2 142.564L346.635 116.351L364.411 109.187L365.692 112.365L351.605 118.043L354.816 126.009L365.214 121.818L366.496 124.996L356.097 129.188L359.608 137.899L373.695 132.221L374.977 135.4L357.2 142.564Z" fill="#F2D6A5"/>
<path d="M389.254 129.844L381.294 102.726L386.937 101.07L406.047 120.506L399.278 97.4473L403.094 96.3271L411.054 123.445L405.452 125.089L386.266 105.544L393.07 128.724L389.254 129.844Z" fill="#F2D6A5"/>
<path d="M438.173 117.574C435.539 118.068 433.165 117.881 431.052 117.015C428.932 116.121 427.171 114.686 425.768 112.711C424.365 110.735 423.398 108.334 422.868 105.506C422.327 102.623 422.384 100.015 423.037 97.6833C423.713 95.3183 424.909 93.3578 426.626 91.802C428.344 90.2461 430.505 89.2239 433.111 88.7354C435.44 88.2989 437.634 88.4471 439.694 89.1801C441.782 89.9079 443.487 91.1953 444.809 93.0424L441.633 94.9291C440.789 93.7959 439.671 92.9581 438.278 92.4158C436.907 91.8405 435.321 91.7217 433.519 92.0595C431.883 92.3661 430.478 93.06 429.303 94.1411C428.156 95.2171 427.35 96.6595 426.886 98.4684C426.416 100.25 426.408 102.346 426.86 104.758C427.296 107.087 428.045 109.012 429.105 110.536C430.165 112.059 431.444 113.139 432.941 113.777C434.466 114.409 436.088 114.564 437.806 114.242C439.608 113.904 441.046 113.233 442.121 112.228C443.223 111.218 443.973 110.015 444.372 108.621L448.015 109.229C447.402 111.468 446.226 113.309 444.488 114.754C442.745 116.172 440.64 117.111 438.173 117.574Z" fill="#F2D6A5"/>
<path d="M463.985 112.616L461.452 84.4682L480.54 82.7502L480.847 86.1634L465.72 87.5249L466.49 96.0789L477.656 95.0739L477.963 98.4871L466.797 99.4921L467.639 108.847L482.766 107.485L483.074 110.898L463.985 112.616Z" fill="#F2D6A5"/>
<path d="M540.183 109.417L536.6 105.078L535.973 104.275L529.184 95.6633C528.531 94.8305 527.906 93.9855 527.31 93.1281C526.716 92.2426 526.192 91.3756 525.737 90.5272C525.31 89.6805 524.966 88.8674 524.705 88.0877C524.473 87.2817 524.379 86.5409 524.422 85.8654C524.512 84.4297 524.96 83.1722 525.763 82.0926C526.596 80.9866 527.681 80.151 529.016 79.5856C530.38 79.022 531.921 78.7946 533.638 78.9035C534.905 78.9837 536.072 79.2979 537.139 79.846C538.209 80.366 539.111 81.0732 539.845 81.9676C540.61 82.8357 541.14 83.8302 541.437 84.9512L538.01 86.8537C537.557 85.5249 536.955 84.54 536.204 83.8989C535.482 83.2596 534.543 82.9034 533.389 82.8303C532.517 82.775 531.776 82.8693 531.167 83.1134C530.56 83.3292 530.085 83.6807 529.743 84.1678C529.402 84.6548 529.207 85.2784 529.159 86.0384C529.119 86.6577 529.245 87.358 529.534 88.1395C529.854 88.8945 530.257 89.669 530.743 90.463C531.23 91.2569 531.734 91.9954 532.256 92.6785C532.778 93.3616 533.235 93.9558 533.627 94.4611L539.082 101.378L540.22 102.807L545.841 109.776L540.183 109.417ZM528.798 109.12C526.799 108.993 525.011 108.456 523.431 107.508C521.854 106.532 520.617 105.309 519.721 103.839C518.855 102.343 518.476 100.75 518.583 99.0612C518.724 96.8374 519.451 94.9475 520.765 93.3916C522.107 91.8374 523.988 90.699 526.408 89.9762L528.904 93.3987C527.078 93.6786 525.699 94.2554 524.767 95.129C523.837 95.9745 523.323 97.1713 523.225 98.7195C523.15 99.9018 523.366 100.961 523.872 101.898C524.378 102.834 525.135 103.589 526.145 104.161C527.182 104.736 528.433 105.069 529.897 105.162C531.163 105.242 532.333 105.076 533.405 104.664C534.506 104.225 535.508 103.582 536.41 102.735C537.311 101.887 538.069 100.847 538.685 99.6145C539.328 98.3834 539.825 97.0018 540.177 95.4697L544.061 95.7159C543.727 97.4187 543.218 98.9833 542.534 100.41C541.879 101.838 541.077 103.115 540.129 104.242C539.21 105.371 538.161 106.322 536.981 107.095C535.832 107.842 534.567 108.397 533.187 108.762C531.809 109.099 530.346 109.218 528.798 109.12Z" fill="#F2D6A5"/>
<path d="M580.115 115.544L586.273 87.9615L593.788 89.6393C595.991 90.131 597.948 90.8136 599.66 91.6872C601.406 92.5394 602.837 93.6392 603.952 94.9864C605.068 96.3336 605.797 97.9848 606.141 99.9401C606.491 101.868 606.374 104.139 605.79 106.754C605.2 109.397 604.334 111.53 603.191 113.153C602.054 114.749 600.692 115.933 599.103 116.706C597.521 117.451 595.755 117.851 593.806 117.908C591.891 117.942 589.832 117.714 587.63 117.222L580.115 115.544ZM584.725 113.149L588.276 113.942C589.707 114.261 591.108 114.459 592.479 114.533C593.883 114.587 595.185 114.386 596.385 113.931C597.618 113.455 598.694 112.583 599.613 111.314C600.566 110.024 601.303 108.209 601.826 105.869C602.348 103.529 602.447 101.601 602.121 100.083C601.829 98.5438 601.223 97.3103 600.303 96.3824C599.416 95.4331 598.323 94.6978 597.024 94.1764C595.758 93.6337 594.409 93.2025 592.977 92.8829L589.426 92.0901L584.725 113.149Z" fill="#F2D6A5"/>
<path d="M618.215 124.493L627.062 97.6513L645.265 103.651L644.192 106.906L629.766 102.151L627.078 110.308L637.726 113.818L636.653 117.073L626.005 113.563L623.065 122.483L637.49 127.238L636.417 130.493L618.215 124.493Z" fill="#F2D6A5"/>
<path d="M658.926 139.582C657.502 138.968 656.211 138.151 655.053 137.13C653.896 136.11 652.995 134.923 652.349 133.57C651.73 132.228 651.488 130.757 651.625 129.157L655.441 129.604C655.35 130.67 655.52 131.665 655.951 132.588C656.394 133.485 657.007 134.271 657.791 134.947C658.601 135.634 659.472 136.178 660.404 136.58C661.44 137.026 662.497 137.282 663.575 137.347C664.653 137.412 665.621 137.231 666.481 136.803C667.379 136.36 668.05 135.621 668.497 134.585C668.955 133.523 668.929 132.514 668.42 131.557C667.91 130.6 666.803 129.463 665.099 128.145L662.114 125.984C661.057 125.159 660.057 124.237 659.114 123.217C658.198 122.207 657.57 121.062 657.232 119.78C656.92 118.509 657.11 117.07 657.802 115.464C658.438 113.988 659.433 112.927 660.786 112.281C662.165 111.647 663.697 111.371 665.382 111.452C667.093 111.544 668.738 111.93 670.318 112.611C671.536 113.136 672.649 113.831 673.658 114.696C674.705 115.546 675.538 116.535 676.158 117.662C676.815 118.774 677.176 120.004 677.24 121.353L673.479 120.884C673.378 119.765 672.871 118.733 671.958 117.787C671.071 116.852 670.032 116.127 668.84 115.614C667.908 115.212 666.947 114.982 665.958 114.925C664.981 114.841 664.091 114.98 663.291 115.342C662.49 115.703 661.894 116.337 661.504 117.244C661.135 118.099 661.086 118.891 661.355 119.621C661.649 120.362 662.144 121.067 662.839 121.735C663.571 122.388 664.392 123.049 665.302 123.718L667.87 125.562C669.058 126.442 670.117 127.405 671.048 128.451C671.979 129.497 672.595 130.669 672.896 131.966C673.198 133.263 672.991 134.74 672.277 136.398C671.763 137.589 671.015 138.542 670.032 139.254C669.06 139.941 667.956 140.402 666.718 140.637C665.492 140.845 664.198 140.856 662.835 140.668C661.498 140.491 660.195 140.129 658.926 139.582Z" fill="#F2D6A5"/>
<path d="M682.74 149.766L684.22 147.007L687.725 148.887L698.126 129.501L694.622 127.621L696.102 124.862L706.615 130.503L705.135 133.261L701.631 131.381L691.229 150.767L694.734 152.648L693.253 155.406L682.74 149.766Z" fill="#F2D6A5"/>
<path d="M716.578 169.664C714.312 168.183 712.715 166.398 711.789 164.31C710.901 162.214 710.635 159.967 710.988 157.57C711.366 155.188 712.341 152.793 713.915 150.385C715.52 147.929 717.365 146.086 719.451 144.854C721.575 143.615 723.795 143.027 726.112 143.092C728.428 143.157 730.696 143.915 732.915 145.366C734.898 146.662 736.38 148.287 737.36 150.242C738.364 152.212 738.715 154.329 738.415 156.593L734.781 155.734C734.956 154.332 734.729 152.953 734.098 151.598C733.507 150.234 732.444 149.051 730.909 148.048C729.516 147.137 728.022 146.666 726.425 146.633C724.853 146.616 723.273 147.1 721.686 148.085C720.115 149.045 718.658 150.553 717.315 152.607C716.019 154.59 715.215 156.491 714.903 158.309C714.614 160.142 714.778 161.799 715.394 163.28C716.033 164.776 717.085 166.002 718.549 166.959C719.328 167.468 720.192 167.899 721.142 168.25C722.092 168.601 723.056 168.776 724.034 168.775C725.027 168.75 725.998 168.475 726.948 167.951C727.898 167.426 728.774 166.549 729.576 165.321L730.085 164.542L723.18 160.029L725.054 157.16L735.112 163.734L727.127 175.952L725.214 174.702L726.273 171.149C724.731 171.859 723.121 172.053 721.444 171.732C719.806 171.403 718.184 170.714 716.578 169.664Z" fill="#F2D6A5"/>
<path d="M740.368 185.096L758.255 163.214L762.808 166.936L757.557 193.682L772.766 175.076L775.845 177.593L757.959 199.475L753.438 195.78L758.737 168.909L743.447 187.613L740.368 185.096Z" fill="#F2D6A5"/>
<path d="M791.813 226.493C790.935 225.538 790.362 224.456 790.093 223.247C789.864 222.04 789.925 220.835 790.275 219.632C790.644 218.449 791.295 217.429 792.23 216.57C793.185 215.692 794.257 215.128 795.445 214.878C796.673 214.63 797.869 214.681 799.032 215.029C800.235 215.379 801.275 216.031 802.153 216.987C803.032 217.942 803.585 219.023 803.814 220.23C804.082 221.439 804.032 222.635 803.663 223.817C803.334 225.001 802.692 226.032 801.737 226.91C800.802 227.769 799.721 228.323 798.493 228.57C797.284 228.839 796.078 228.798 794.875 228.448C793.712 228.1 792.691 227.449 791.813 226.493Z" fill="#F2D6A5"/>
<path d="M817.874 262.928L841.092 246.888L846.118 254.163C847.433 256.066 848.402 257.865 849.024 259.561C849.663 261.279 849.752 262.897 849.292 264.415C848.872 265.94 847.698 267.367 845.772 268.698C843.869 270.013 842.119 270.605 840.52 270.475C838.961 270.352 837.491 269.688 836.11 268.482C834.768 267.284 833.439 265.734 832.125 263.831L829.359 259.828L820.135 266.2L817.874 262.928ZM832.179 257.88L835.137 262.161C835.922 263.298 836.709 264.263 837.497 265.056C838.284 265.849 839.153 266.312 840.102 266.445C841.09 266.585 842.21 266.222 843.463 265.356C844.74 264.475 845.487 263.547 845.706 262.573C845.941 261.622 845.838 260.631 845.398 259.597C844.959 258.564 844.346 257.479 843.561 256.342L840.603 252.06L832.179 257.88Z" fill="#F2D6A5"/>
<path d="M837.697 292.238L862.382 278.476L866.749 286.311C867.875 288.331 868.68 290.208 869.162 291.941C869.682 293.685 869.665 295.277 869.111 296.716C868.595 298.166 867.352 299.44 865.381 300.539C864.273 301.157 863.142 301.562 861.989 301.752C860.836 301.943 859.652 301.731 858.437 301.117C857.237 300.527 855.965 299.346 854.623 297.576L848.245 311.159L845.875 306.909L852.077 293.618L850.017 289.923L839.633 295.712L837.697 292.238ZM852.937 288.295L855.512 292.915C856.185 294.122 856.875 295.158 857.583 296.022C858.305 296.912 859.12 297.475 860.027 297.712C860.972 297.96 862.073 297.733 863.33 297.033C864.611 296.319 865.382 295.501 865.644 294.58C865.919 293.684 865.868 292.695 865.491 291.614C865.153 290.543 864.647 289.404 863.974 288.197L861.399 283.578L852.937 288.295Z" fill="#F2D6A5"/>
<path d="M859.604 335.557C858.535 333.069 858.181 330.673 858.542 328.369C858.929 326.054 859.915 323.957 861.503 322.078C863.127 320.213 865.247 318.719 867.865 317.594C870.482 316.47 873 315.971 875.419 316.098C877.874 316.241 880.062 316.974 881.982 318.298C883.927 319.611 885.435 321.511 886.503 323.999C887.584 326.513 887.93 328.927 887.543 331.242C887.183 333.546 886.203 335.625 884.605 337.478C883.044 339.346 880.954 340.843 878.337 341.967C875.72 343.092 873.17 343.589 870.689 343.458C868.244 343.341 866.049 342.627 864.104 341.314C862.184 339.99 860.684 338.071 859.604 335.557ZM862.675 334.238C863.354 335.818 864.368 337.071 865.717 337.996C867.077 338.946 868.683 339.469 870.535 339.563C872.413 339.647 874.479 339.204 876.734 338.235C878.962 337.278 880.68 336.095 881.886 334.686C883.118 333.267 883.844 331.742 884.065 330.112C884.323 328.497 884.112 326.899 883.433 325.319C882.764 323.764 881.75 322.511 880.39 321.56C879.067 320.625 877.467 320.115 875.589 320.032C873.737 319.937 871.697 320.368 869.468 321.326C867.214 322.295 865.47 323.489 864.238 324.909C863.032 326.317 862.3 327.829 862.043 329.444C861.796 331.085 862.007 332.683 862.675 334.238Z" fill="#F2D6A5"/>
<path d="M871.14 362.155L898.136 353.79L900.415 361.145C901.083 363.3 901.464 365.338 901.556 367.258C901.685 369.197 901.441 370.985 900.827 372.622C900.212 374.26 899.142 375.713 897.616 376.983C896.117 378.245 894.088 379.272 891.528 380.066C888.942 380.867 886.66 381.175 884.684 380.99C882.734 380.797 881.029 380.203 879.57 379.209C878.137 378.206 876.912 376.873 875.894 375.21C874.912 373.565 874.087 371.665 873.419 369.51L871.14 362.155ZM875.51 364.964L876.587 368.44C877.021 369.841 877.546 371.154 878.163 372.381C878.814 373.626 879.635 374.656 880.626 375.471C881.652 376.305 882.944 376.805 884.502 376.972C886.095 377.157 888.036 376.895 890.326 376.186C892.616 375.476 894.339 374.603 895.494 373.566C896.684 372.547 897.453 371.408 897.801 370.149C898.185 368.908 898.28 367.594 898.086 366.207C897.928 364.839 897.632 363.454 897.198 362.053L896.121 358.578L875.51 364.964Z" fill="#F2D6A5"/>
<path d="M884.054 410.634C883.256 406.623 883.682 403.562 885.333 401.45C887.011 399.333 889.87 397.873 893.909 397.07L910.05 393.858L910.826 397.759L894.394 401.028C891.655 401.573 889.674 402.528 888.45 403.893C887.232 405.286 886.887 407.31 887.415 409.966C887.944 412.621 889.034 414.345 890.688 415.138C892.346 415.958 894.545 416.096 897.284 415.551L913.716 412.282L914.492 416.183L898.35 419.394C894.311 420.198 891.111 419.943 888.751 418.629C886.423 417.338 884.858 414.673 884.054 410.634Z" fill="#F2D6A5"/>
<path d="M890.205 449.191C889.946 446.524 890.34 444.176 891.39 442.146C892.467 440.114 894.051 438.486 896.143 437.262C898.234 436.039 900.711 435.287 903.575 435.008C906.494 434.724 909.087 435.01 911.352 435.866C913.649 436.748 915.496 438.112 916.895 439.96C918.293 441.807 919.121 444.051 919.378 446.69C919.607 449.048 919.266 451.22 918.355 453.208C917.446 455.224 916.013 456.808 914.057 457.962L912.457 454.632C913.66 453.892 914.594 452.852 915.257 451.512C915.95 450.197 916.208 448.628 916.031 446.803C915.869 445.147 915.302 443.686 914.329 442.42C913.358 441.183 911.992 440.253 910.231 439.631C908.498 439.006 906.411 438.813 903.968 439.051C901.61 439.281 899.626 439.856 898.015 440.778C896.405 441.7 895.216 442.879 894.449 444.314C893.685 445.777 893.387 447.379 893.557 449.119C893.734 450.944 894.276 452.436 895.183 453.594C896.092 454.781 897.223 455.634 898.578 456.154L897.651 459.73C895.475 458.922 893.744 457.589 892.458 455.73C891.2 453.869 890.449 451.689 890.205 449.191Z" fill="#F2D6A5"/>
<path d="M892.866 481.707L917.701 481.653L917.68 472.261L921.107 472.254L921.157 495.015L917.73 495.023L917.709 485.63L892.874 485.684L892.866 481.707Z" fill="#F2D6A5"/>
<path d="M891.164 529.766L919.122 533.901L917.995 541.519C917.665 543.751 917.127 545.753 916.38 547.524C915.657 549.327 914.664 550.834 913.402 552.045C912.139 553.255 910.545 554.103 908.62 554.588C906.723 555.077 904.449 555.125 901.798 554.733C899.12 554.337 896.929 553.628 895.227 552.606C893.553 551.589 892.273 550.316 891.387 548.788C890.529 547.264 890.001 545.532 889.803 543.592C889.629 541.685 889.707 539.615 890.037 537.383L891.164 529.766ZM893.889 534.189L893.356 537.788C893.142 539.239 893.047 540.651 893.072 542.023C893.121 543.427 893.416 544.711 893.956 545.875C894.521 547.07 895.469 548.08 896.801 548.905C898.157 549.761 900.021 550.365 902.393 550.715C904.764 551.066 906.695 551.024 908.185 550.589C909.699 550.185 910.885 549.491 911.744 548.506C912.626 547.553 913.28 546.41 913.705 545.075C914.155 543.773 914.487 542.397 914.701 540.946L915.234 537.347L893.889 534.189Z" fill="#F2D6A5"/>
<path d="M885.099 568.034L912.541 574.794L907.956 593.403L904.629 592.584L908.262 577.836L899.923 575.781L897.241 586.668L893.913 585.848L896.595 574.962L887.475 572.715L883.842 587.463L880.515 586.643L885.099 568.034Z" fill="#F2D6A5"/>
<path d="M874.406 607.707L904.282 607.791L902.858 611.909L878.043 611.427L897.836 626.423L896.411 630.542L872.884 612.105L874.406 607.707Z" fill="#F2D6A5"/>
<path d="M864.77 634.61L890.513 646.274L882.603 663.731L879.482 662.317L885.75 648.482L877.927 644.938L873.3 655.15L870.178 653.736L874.805 643.523L866.25 639.647L859.982 653.482L856.86 652.068L864.77 634.61Z" fill="#F2D6A5"/>
<path d="M850.339 665.759L874.937 679.678L872.978 683.139L851.363 670.908L843.883 684.128L840.901 682.44L850.339 665.759Z" fill="#F2D6A5"/>
<path d="M826.694 703.974C828.252 701.759 830.107 700.201 832.257 699.3C834.432 698.415 836.735 698.156 839.167 698.522C841.606 698.927 843.991 699.949 846.321 701.588C848.651 703.227 850.396 705.109 851.556 707.235C852.723 709.401 853.246 711.648 853.125 713.977C853.027 716.322 852.2 718.602 850.642 720.817C849.068 723.055 847.194 724.616 845.02 725.501C842.869 726.402 840.585 726.658 838.169 726.269C835.76 725.919 833.39 724.925 831.06 723.286C828.73 721.647 826.97 719.737 825.78 717.555C824.597 715.413 824.055 713.169 824.152 710.824C824.273 708.495 825.12 706.212 826.694 703.974ZM829.428 705.897C828.438 707.304 827.904 708.824 827.824 710.458C827.728 712.114 828.125 713.756 829.015 715.382C829.929 717.025 831.39 718.552 833.397 719.964C835.381 721.359 837.289 722.201 839.12 722.489C840.975 722.794 842.654 722.613 844.158 721.946C845.668 721.319 846.918 720.301 847.908 718.894C848.882 717.51 849.416 715.989 849.513 714.333C849.616 712.716 849.21 711.086 848.296 709.443C847.406 707.817 845.969 706.306 843.984 704.91C841.977 703.498 840.046 702.64 838.192 702.336C836.36 702.047 834.689 702.217 833.178 702.844C831.652 703.495 830.402 704.512 829.428 705.897Z" fill="#F2D6A5"/>
<path d="M809.773 728.2L831.066 746.72L825.262 753.392C823.745 755.137 822.242 756.521 820.753 757.544C819.247 758.589 817.701 759.076 816.117 759.007C814.535 758.977 812.861 758.194 811.095 756.657C809.35 755.139 808.342 753.59 808.072 752.01C807.805 750.469 808.084 748.88 808.91 747.243C809.739 745.646 810.912 743.975 812.43 742.23L815.623 738.559L807.163 731.201L809.773 728.2ZM818.208 740.808L814.793 744.734C813.886 745.777 813.146 746.778 812.573 747.738C812 748.697 811.767 749.653 811.873 750.605C811.982 751.597 812.611 752.593 813.761 753.593C814.931 754.611 816.015 755.105 817.013 755.076C817.992 755.067 818.927 754.722 819.82 754.041C820.712 753.359 821.611 752.496 822.518 751.453L825.934 747.527L818.208 740.808Z" fill="#F2D6A5"/>
<path d="M786.82 754.512L806.108 775.169L801.284 779.674L780.014 767.929L790.275 789.953L785.451 794.457L766.163 773.8L769.069 771.086L785.528 788.712L775.038 765.513L777.914 762.828L800.371 774.853L783.913 757.226L786.82 754.512Z" fill="#F2D6A5"/>
<path d="M753.138 785.158L770.173 807.709L754.88 819.262L752.814 816.527L764.934 807.372L759.757 800.519L750.811 807.277L748.745 804.542L757.691 797.784L752.03 790.29L739.91 799.445L737.845 796.711L753.138 785.158Z" fill="#F2D6A5"/>
<path d="M725.606 805.786L740.396 829.87L735.385 832.947L711.849 819.2L724.425 839.678L721.036 841.759L706.246 817.676L711.221 814.62L734.859 828.454L722.217 807.867L725.606 805.786Z" fill="#F2D6A5"/>
<path d="M686.791 828.513L697.709 850.819L706.145 846.69L707.652 849.768L687.207 859.775L685.701 856.697L694.137 852.567L683.219 830.261L686.791 828.513Z" fill="#F2D6A5"/>
<path d="M642.974 847.932L651.642 874.832L634.165 880.464L633.114 877.202L646.805 872.79L644.171 864.615L630.48 869.027L629.429 865.765L643.12 861.354L639.189 849.152L642.974 847.932Z" fill="#F2D6A5"/>
<path d="M598.379 860.401C601.027 859.834 603.446 859.95 605.637 860.749C607.833 861.577 609.7 862.95 611.237 864.871C612.752 866.825 613.808 869.195 614.405 871.98C615.002 874.766 615.004 877.333 614.412 879.681C613.797 882.063 612.655 884.067 610.984 885.695C609.32 887.349 607.164 888.461 604.516 889.028C601.841 889.602 599.405 889.475 597.209 888.648C595.018 887.848 593.168 886.485 591.659 884.559C590.128 882.666 589.064 880.326 588.467 877.541C587.87 874.755 587.876 872.158 588.484 869.749C589.071 867.373 590.197 865.358 591.861 863.703C593.531 862.075 595.704 860.975 598.379 860.401ZM599.08 863.669C597.398 864.03 595.972 864.783 594.804 865.927C593.609 867.078 592.785 868.553 592.334 870.351C591.889 872.177 591.924 874.29 592.438 876.69C592.947 879.061 593.775 880.975 594.924 882.431C596.079 883.914 597.434 884.922 598.99 885.453C600.525 886.019 602.133 886.121 603.816 885.76C605.471 885.405 606.896 884.653 608.091 883.502C609.265 882.385 610.075 880.913 610.52 879.087C610.971 877.289 610.942 875.203 610.434 872.832C609.919 870.432 609.085 868.491 607.93 867.008C606.782 865.552 605.44 864.542 603.905 863.976C602.343 863.417 600.735 863.315 599.08 863.669Z" fill="#F2D6A5"/>
<path d="M569.471 866.702L572.52 894.799L563.603 895.767C561.303 896.016 559.261 896.025 557.477 895.793C555.668 895.592 554.209 894.956 553.1 893.885C551.965 892.845 551.277 891.203 551.033 888.96C550.896 887.698 550.965 886.499 551.239 885.363C551.513 884.226 552.169 883.219 553.209 882.34C554.22 881.464 555.803 880.754 557.957 880.208L547.936 869.039L552.773 868.514L562.594 879.407L566.8 878.951L565.517 867.131L569.471 866.702ZM567.16 882.273L561.903 882.844C560.529 882.993 559.305 883.225 558.233 883.54C557.133 883.858 556.297 884.388 555.725 885.131C555.128 885.905 554.907 887.007 555.062 888.437C555.22 889.896 555.672 890.925 556.418 891.525C557.136 892.128 558.067 892.466 559.21 892.541C560.328 892.647 561.574 892.625 562.948 892.476L568.205 891.906L567.16 882.273Z" fill="#F2D6A5"/>
<path d="M506.296 870.651L505.356 895.468L514.742 895.824L514.612 899.248L491.867 898.387L491.996 894.963L501.382 895.318L502.322 870.501L506.296 870.651Z" fill="#F2D6A5"/>
<path d="M479.401 869.563L475.672 897.578L471.73 897.053L473.316 885.143L458.637 883.189L457.052 895.099L453.11 894.575L456.839 866.56L460.781 867.084L459.089 879.792L473.768 881.746L475.459 869.038L479.401 869.563Z" fill="#F2D6A5"/>
<path d="M441.548 864.261L435.189 891.798L416.515 887.486L417.286 884.147L432.085 887.564L434.017 879.196L423.093 876.673L423.864 873.334L434.788 875.857L436.902 866.705L422.103 863.288L422.874 859.949L441.548 864.261Z" fill="#F2D6A5"/>
<path d="M387.794 850.037L377.495 876.31L369.262 873.082C367.109 872.238 365.301 871.287 363.837 870.229C362.348 869.16 361.37 867.868 360.904 866.352C360.401 864.852 360.577 863.012 361.431 860.833C362.275 858.68 363.396 857.21 364.795 856.426C366.157 855.657 367.747 855.386 369.566 855.615C371.349 855.859 373.316 856.403 375.47 857.248L380 859.023L384.092 848.585L387.794 850.037ZM378.749 862.214L373.904 860.315C372.617 859.81 371.426 859.449 370.33 859.232C369.233 859.014 368.255 859.115 367.393 859.535C366.495 859.97 365.768 860.897 365.213 862.315C364.646 863.76 364.545 864.947 364.907 865.876C365.243 866.796 365.883 867.561 366.824 868.173C367.766 868.785 368.88 869.343 370.167 869.847L375.012 871.746L378.749 862.214Z" fill="#F2D6A5"/>
<path d="M346.044 831.872C349.69 833.724 351.833 835.952 352.472 838.554C353.099 841.182 352.479 844.332 350.614 848.003L343.16 862.676L339.614 860.875L347.203 845.938C348.467 843.448 348.942 841.3 348.625 839.495C348.284 837.676 346.906 836.153 344.492 834.927C342.078 833.701 340.048 833.492 338.403 834.302C336.733 835.098 335.265 836.741 334.001 839.231L326.412 854.168L322.867 852.366L330.321 837.693C332.186 834.022 334.365 831.665 336.856 830.621C339.31 829.59 342.373 830.007 346.044 831.872Z" fill="#F2D6A5"/>
<path d="M320.469 819.12L305.186 842.893L295.612 836.739C293.88 835.625 292.664 834.441 291.962 833.185C291.237 831.914 290.915 830.667 290.996 829.445C291.038 828.232 291.388 827.115 292.043 826.095C292.654 825.146 293.47 824.346 294.491 823.695C295.513 823.045 296.649 822.634 297.898 822.465C297.108 821.085 296.772 819.679 296.889 818.245C296.967 816.82 297.372 815.538 298.104 814.399C298.836 813.26 299.834 812.359 301.098 811.697C302.339 811.019 303.754 810.722 305.344 810.805C306.933 810.888 308.594 811.486 310.326 812.599L320.469 819.12ZM308.384 830.564L301.8 826.332C300.59 825.554 299.444 825.354 298.363 825.732C297.258 826.094 296.416 826.726 295.836 827.628C295.44 828.245 295.201 828.929 295.119 829.682C295.014 830.419 295.12 831.141 295.437 831.848C295.715 832.563 296.257 833.18 297.064 833.698L303.648 837.931L308.384 830.564ZM315.316 819.781L308.163 815.182C307.285 814.618 306.42 814.347 305.567 814.369C304.715 814.391 303.936 814.611 303.231 815.03C302.511 815.472 301.93 816.037 301.487 816.725C301.045 817.413 300.787 818.153 300.715 818.944C300.603 819.744 300.733 820.532 301.106 821.308C301.44 822.093 302.058 822.775 302.959 823.355L310.077 827.931L315.316 819.781Z" fill="#F2D6A5"/>
<path d="M290.582 799.667L273.201 821.953L270.065 819.507L285.339 799.924L273.362 790.583L275.47 787.881L290.582 799.667Z" fill="#F2D6A5"/>
<path d="M264.605 779.106L262.488 781.412L259.559 778.723L244.68 794.929L247.609 797.618L245.492 799.925L236.703 791.856L238.821 789.55L241.75 792.239L256.629 776.033L253.699 773.343L255.817 771.037L264.605 779.106Z" fill="#F2D6A5"/>
<path d="M236.89 751.764C238.703 753.736 239.802 755.848 240.187 758.1C240.551 760.371 240.266 762.625 239.334 764.862C238.402 767.098 236.877 769.19 234.759 771.137C232.599 773.122 230.358 774.456 228.033 775.136C225.669 775.816 223.373 775.839 221.143 775.206C218.914 774.574 216.903 773.282 215.108 771.33C213.505 769.586 212.468 767.646 211.999 765.51C211.511 763.354 211.7 761.226 212.566 759.126L215.849 760.821C215.334 762.137 215.216 763.529 215.494 764.998C215.732 766.465 216.471 767.874 217.712 769.223C218.838 770.448 220.171 771.273 221.71 771.697C223.23 772.1 224.88 772.02 226.661 771.456C228.42 770.911 230.203 769.808 232.01 768.147C233.754 766.544 234.991 764.889 235.722 763.183C236.452 761.477 236.691 759.82 236.439 758.212C236.168 756.584 235.441 755.126 234.258 753.839C233.017 752.489 231.686 751.625 230.264 751.246C228.824 750.846 227.407 750.846 226.012 751.247L224.599 747.834C226.822 747.169 229.007 747.191 231.153 747.9C233.279 748.628 235.191 749.916 236.89 751.764Z" fill="#F2D6A5"/>
<path d="M199.324 705.415C200.82 707.672 201.58 709.942 201.605 712.227C201.591 714.503 200.948 716.672 199.675 718.734C198.387 720.772 196.543 722.586 194.145 724.176C191.7 725.796 189.277 726.76 186.874 727.066C184.433 727.365 182.161 727.026 180.059 726.05C177.958 725.075 176.174 723.482 174.71 721.272C173.401 719.297 172.683 717.218 172.555 715.035C172.413 712.829 172.927 710.745 174.098 708.785L177.096 711.011C176.381 712.229 176.044 713.586 176.087 715.08C176.091 716.566 176.6 718.074 177.612 719.602C178.532 720.989 179.718 722.013 181.171 722.674C182.609 723.312 184.251 723.492 186.098 723.215C187.922 722.954 189.856 722.146 191.902 720.79C193.876 719.481 195.367 718.054 196.372 716.507C197.362 714.938 197.867 713.351 197.887 711.747C197.891 710.12 197.41 708.578 196.444 707.12C195.93 706.344 195.306 705.607 194.573 704.909C193.839 704.211 193.023 703.669 192.125 703.283C191.203 702.913 190.202 702.781 189.122 702.888C188.042 702.995 186.891 703.453 185.668 704.263L184.892 704.777L189.45 711.654L186.594 713.548L179.956 703.532L192.122 695.468L193.384 697.373L191.006 700.218C192.704 700.175 194.26 700.633 195.673 701.591C197.047 702.542 198.264 703.816 199.324 705.415Z" fill="#F2D6A5"/>
<path d="M178.045 670.682C179.291 673.086 179.817 675.451 179.623 677.775C179.404 680.112 178.571 682.274 177.124 684.263C175.638 686.24 173.631 687.884 171.101 689.194C168.572 690.505 166.097 691.183 163.675 691.231C161.216 691.266 158.981 690.693 156.971 689.511C154.935 688.341 153.295 686.555 152.049 684.151C150.791 681.721 150.271 679.338 150.489 677.001C150.683 674.677 151.51 672.533 152.971 670.57C154.393 668.594 156.369 666.951 158.898 665.64C161.428 664.33 163.935 663.65 166.419 663.602C168.866 663.542 171.106 664.096 173.142 665.265C175.152 666.447 176.786 668.253 178.045 670.682ZM175.077 672.22C174.286 670.692 173.184 669.516 171.772 668.691C170.347 667.841 168.707 667.436 166.853 667.475C164.974 667.527 162.945 668.118 160.767 669.246C158.613 670.362 156.985 671.666 155.884 673.158C154.758 674.663 154.143 676.236 154.041 677.877C153.9 679.507 154.226 681.085 155.017 682.613C155.796 684.116 156.897 685.292 158.322 686.142C159.71 686.98 161.343 687.373 163.221 687.32C165.075 687.281 167.079 686.704 169.233 685.588C171.412 684.459 173.064 683.142 174.191 681.637C175.292 680.145 175.913 678.585 176.054 676.955C176.181 675.301 175.856 673.722 175.077 672.22Z" fill="#F2D6A5"/>
<path d="M160.204 632.813C161.178 635.339 161.442 637.747 160.994 640.035C160.52 642.334 159.455 644.393 157.798 646.211C156.105 648.012 153.929 649.426 151.271 650.451C148.613 651.476 146.078 651.879 143.666 651.66C141.217 651.425 139.059 650.61 137.191 649.215C135.296 647.829 133.862 645.873 132.887 643.347C131.903 640.794 131.648 638.368 132.122 636.069C132.569 633.781 133.627 631.74 135.294 629.949C136.924 628.141 139.069 626.725 141.727 625.7C144.385 624.675 146.951 624.275 149.426 624.499C151.864 624.708 154.031 625.505 155.925 626.89C157.794 628.286 159.22 630.26 160.204 632.813ZM157.086 634.015C156.467 632.41 155.501 631.12 154.188 630.145C152.864 629.144 151.279 628.561 149.432 628.396C147.559 628.242 145.477 628.607 143.188 629.489C140.925 630.362 139.164 631.479 137.905 632.841C136.621 634.213 135.837 635.71 135.555 637.33C135.237 638.934 135.387 640.539 136.006 642.144C136.615 643.723 137.581 645.013 138.904 646.014C140.191 647 141.771 647.569 143.644 647.724C145.491 647.888 147.546 647.534 149.81 646.661C152.099 645.778 153.886 644.651 155.171 643.279C156.429 641.917 157.218 640.434 157.536 638.83C157.845 637.199 157.695 635.594 157.086 634.015Z" fill="#F2D6A5"/>
<path d="M149.739 606.447L122.45 613.798L120.447 606.363C119.86 604.185 119.556 602.134 119.535 600.212C119.479 598.27 119.789 596.492 120.464 594.879C121.14 593.265 122.263 591.853 123.836 590.64C125.38 589.435 127.447 588.485 130.034 587.787C132.648 587.083 134.94 586.86 136.908 587.119C138.849 587.384 140.531 588.041 141.952 589.09C143.347 590.145 144.521 591.523 145.476 593.223C146.396 594.903 147.149 596.833 147.736 599.012L149.739 606.447ZM145.478 603.476L144.531 599.963C144.15 598.546 143.674 597.214 143.104 595.966C142.499 594.697 141.717 593.637 140.757 592.786C139.763 591.914 138.491 591.366 136.94 591.141C135.355 590.896 133.405 591.086 131.09 591.709C128.775 592.333 127.022 593.141 125.829 594.135C124.601 595.108 123.79 596.217 123.395 597.463C122.966 598.689 122.822 599.998 122.964 601.391C123.071 602.765 123.315 604.159 123.697 605.576L124.643 609.089L145.478 603.476Z" fill="#F2D6A5"/>
<path d="M131.776 542.02C131.931 543.308 131.763 544.521 131.274 545.659C130.754 546.772 130.001 547.714 129.013 548.486C128.023 549.229 126.898 549.677 125.637 549.827C124.349 549.981 123.15 549.812 122.04 549.32C120.899 548.803 119.958 548.064 119.218 547.101C118.446 546.114 117.984 544.976 117.83 543.688C117.675 542.4 117.858 541.199 118.379 540.086C118.867 538.948 119.607 538.007 120.598 537.264C121.557 536.496 122.68 536.034 123.969 535.88C125.229 535.73 126.43 535.913 127.571 536.429C128.709 536.918 129.664 537.656 130.435 538.643C131.175 539.606 131.622 540.731 131.776 542.02Z" fill="#F2D6A5"/>
<path d="M131.885 499.434L103.626 498.981L103.933 479.818L107.36 479.873L107.117 495.06L115.704 495.197L115.884 483.987L119.31 484.042L119.131 495.252L128.522 495.403L128.765 480.216L132.192 480.271L131.885 499.434Z" fill="#F2D6A5"/>
<path d="M134.085 456.029C133.919 457.571 133.52 459.046 132.886 460.453C132.253 461.86 131.386 463.072 130.284 464.089C129.185 465.077 127.851 465.742 126.282 466.085L125.581 462.307C126.627 462.079 127.527 461.623 128.281 460.938C129.008 460.25 129.578 459.431 129.992 458.483C130.408 457.506 130.671 456.513 130.779 455.504C130.9 454.382 130.832 453.297 130.576 452.248C130.319 451.199 129.86 450.327 129.197 449.632C128.509 448.906 127.604 448.483 126.482 448.362C125.332 448.239 124.376 448.562 123.612 449.331C122.849 450.1 122.09 451.494 121.334 453.512L120.151 457.002C119.676 458.255 119.09 459.483 118.394 460.685C117.701 461.859 116.792 462.797 115.667 463.499C114.545 464.173 113.115 464.416 111.376 464.23C109.777 464.058 108.47 463.422 107.453 462.32C106.44 461.19 105.723 459.808 105.302 458.174C104.885 456.512 104.768 454.826 104.952 453.115C105.093 451.797 105.428 450.528 105.956 449.308C106.459 448.058 107.157 446.969 108.051 446.044C108.919 445.088 109.988 444.38 111.257 443.92L111.921 447.651C110.882 448.078 110.046 448.868 109.411 450.02C108.78 451.143 108.395 452.35 108.257 453.64C108.149 454.65 108.213 455.635 108.45 456.597C108.659 457.556 109.055 458.364 109.637 459.022C110.219 459.68 111 460.062 111.982 460.167C112.907 460.267 113.679 460.08 114.297 459.607C114.918 459.107 115.445 458.426 115.878 457.564C116.286 456.672 116.675 455.692 117.044 454.626L118.047 451.627C118.537 450.233 119.144 448.936 119.869 447.738C120.593 446.539 121.53 445.604 122.68 444.933C123.83 444.262 125.302 444.023 127.097 444.216C128.387 444.354 129.518 444.787 130.489 445.516C131.433 446.241 132.199 447.16 132.789 448.273C133.351 449.383 133.743 450.616 133.967 451.974C134.193 453.303 134.232 454.654 134.085 456.029Z" fill="#F2D6A5"/>
<path d="M137.87 423.568L113.519 418.687L111.674 427.897L108.313 427.223L112.786 404.905L116.147 405.579L114.301 414.788L138.652 419.668L137.87 423.568Z" fill="#F2D6A5"/>
<path d="M148.615 378.004L145.624 376.944C144.423 372.988 143.242 369.562 142.083 366.668C140.933 363.747 139.728 361.405 138.468 359.642C137.19 357.843 135.767 356.666 134.198 356.11C132.816 355.62 131.544 355.663 130.382 356.239C129.221 356.815 128.362 357.888 127.806 359.456C127.364 360.706 127.295 361.998 127.6 363.333C127.888 364.632 128.786 365.728 130.295 366.622L128.151 369.633C126.38 368.466 125.218 366.888 124.667 364.897C124.089 362.897 124.214 360.727 125.043 358.387C125.627 356.739 126.419 355.389 127.42 354.337C128.404 353.249 129.542 352.53 130.833 352.18C132.133 351.803 133.528 351.878 135.017 352.405C136.559 352.951 137.943 353.86 139.168 355.132C140.366 356.395 141.439 357.927 142.387 359.729C143.308 361.521 144.163 363.5 144.952 365.665C145.715 367.82 146.444 370.068 147.141 372.41L152.34 357.734L155.411 358.822L148.615 378.004Z" fill="#F2D6A5"/>
<path d="M165.031 336.286C163.505 339.589 161.2 341.584 158.117 342.273C155.019 342.923 151.32 342.255 147.019 340.267C142.743 338.292 139.862 335.92 138.375 333.151C136.901 330.357 136.927 327.309 138.453 324.006C139.979 320.703 142.278 318.72 145.35 318.057C148.433 317.369 152.113 318.013 156.389 319.989C160.69 321.976 163.591 324.373 165.091 327.179C166.577 329.947 166.557 332.983 165.031 336.286ZM160.041 326.71C158.706 325.565 156.95 324.489 154.774 323.484C151.419 321.934 148.592 321.295 146.291 321.568C144.002 321.815 142.336 323.066 141.295 325.319C140.526 326.983 140.405 328.59 140.933 330.138L160.041 326.71ZM162.189 334.973C163.005 333.206 163.085 331.519 162.43 329.911L143.189 333.325C143.864 333.947 144.659 334.548 145.573 335.125C146.487 335.703 147.507 336.252 148.634 336.772C151.988 338.322 154.822 338.979 157.137 338.744C159.464 338.483 161.148 337.226 162.189 334.973Z" fill="#F2D6A5"/>
<path d="M175.376 313.025L172.632 311.431C172.181 307.321 171.654 303.736 171.049 300.678C170.458 297.595 169.706 295.07 168.793 293.105C167.87 291.101 166.688 289.681 165.249 288.845C163.981 288.108 162.723 287.916 161.475 288.267C160.227 288.619 159.185 289.514 158.349 290.953C157.683 292.1 157.377 293.357 157.431 294.725C157.474 296.055 158.154 297.298 159.472 298.455L156.809 301.018C155.284 299.545 154.434 297.779 154.259 295.721C154.06 293.648 154.584 291.539 155.831 289.393C156.709 287.88 157.737 286.7 158.915 285.851C160.083 284.964 161.334 284.467 162.667 284.361C164.015 284.23 165.372 284.562 166.738 285.355C168.153 286.177 169.345 287.326 170.314 288.802C171.259 290.264 172.03 291.968 172.629 293.914C173.203 295.845 173.678 297.948 174.054 300.221C174.405 302.48 174.707 304.825 174.96 307.254L182.779 293.791L185.596 295.427L175.376 313.025Z" fill="#F2D6A5"/>
<path d="M192.857 283.173L190.268 281.338C190.192 277.203 189.99 273.586 189.665 270.485C189.356 267.361 188.835 264.78 188.103 262.739C187.365 260.66 186.317 259.139 184.959 258.176C183.763 257.328 182.527 257.022 181.253 257.26C179.978 257.497 178.859 258.294 177.897 259.652C177.13 260.733 176.711 261.958 176.641 263.325C176.563 264.654 177.129 265.953 178.336 267.225L175.453 269.536C174.067 267.931 173.38 266.096 173.392 264.03C173.382 261.948 174.094 259.895 175.53 257.87C176.541 256.443 177.672 255.361 178.922 254.622C180.165 253.844 181.456 253.462 182.794 253.477C184.148 253.469 185.469 253.922 186.758 254.835C188.092 255.782 189.175 257.034 190.007 258.592C190.816 260.133 191.43 261.9 191.85 263.892C192.247 265.868 192.53 268.004 192.699 270.302C192.844 272.584 192.933 274.946 192.965 277.389L201.97 264.688L204.627 266.572L192.857 283.173Z" fill="#F2D6A5"/>
<path d="M227.366 226.726C226.482 227.675 225.447 228.329 224.262 228.69C223.076 229.011 221.87 229.043 220.643 228.787C219.436 228.51 218.368 227.939 217.44 227.073C216.491 226.188 215.847 225.163 215.506 223.998C215.165 222.792 215.123 221.596 215.381 220.41C215.637 219.184 216.208 218.096 217.092 217.147C217.977 216.198 219.013 215.563 220.199 215.242C221.384 214.881 222.58 214.839 223.787 215.116C224.992 215.354 226.07 215.915 227.019 216.799C227.947 217.665 228.582 218.7 228.924 219.906C229.284 221.09 229.337 222.296 229.08 223.522C228.822 224.709 228.251 225.777 227.366 226.726Z" fill="#F2D6A5"/>
<defs>
<filter id="filter0_d_1558_74586" x="0.495605" y="0.764465" width="1026" height="1026" filterUnits="userSpaceOnUse" color-interpolation-filters="sRGB">
<feFlood flood-opacity="0" result="BackgroundImageFix"/>
<feColorMatrix in="SourceAlpha" type="matrix" values="0 0 0 0 0 0 0 0 0 0 0 0 0 0 0 0 0 0 127 0" result="hardAlpha"/>
<feMorphology radius="24" operator="erode" in="SourceAlpha" result="effect1_dropShadow_1558_74586"/>
<feOffset dy="24"/>
<feGaussianBlur stdDeviation="42"/>
<feComposite in2="hardAlpha" operator="out"/>
<feColorMatrix type="matrix" values="0 0 0 0 0 0 0 0 0 0 0 0 0 0 0 0 0 0 0.25 0"/>
<feBlend mode="normal" in2="BackgroundImageFix" result="effect1_dropShadow_1558_74586"/>
<feBlend mode="normal" in="SourceGraphic" in2="effect1_dropShadow_1558_74586" result="shape"/>
</filter>
<filter id="filter1_i_1558_74586" x="165.496" y="141.764" width="696" height="696" filterUnits="userSpaceOnUse" color-interpolation-filters="sRGB">
<feFlood flood-opacity="0" result="BackgroundImageFix"/>
<feBlend mode="normal" in="SourceGraphic" in2="BackgroundImageFix" result="shape"/>
<feColorMatrix in="SourceAlpha" type="matrix" values="0 0 0 0 0 0 0 0 0 0 0 0 0 0 0 0 0 0 127 0" result="hardAlpha"/>
<feOffset/>
<feGaussianBlur stdDeviation="12"/>
<feComposite in2="hardAlpha" operator="arithmetic" k2="-1" k3="1"/>
<feColorMatrix type="matrix" values="0 0 0 0 0 0 0 0 0 0 0 0 0 0 0 0 0 0 0.55 0"/>
<feBlend mode="normal" in2="shape" result="effect1_innerShadow_1558_74586"/>
</filter>
<filter id="filter2_d_1558_74586" x="430.596" y="702.464" width="165.8" height="122.6" filterUnits="userSpaceOnUse" color-interpolation-filters="sRGB">
<feFlood flood-opacity="0" result="BackgroundImageFix"/>
<feColorMatrix in="SourceAlpha" type="matrix" values="0 0 0 0 0 0 0 0 0 0 0 0 0 0 0 0 0 0 127 0" result="hardAlpha"/>
<feOffset/>
<feGaussianBlur stdDeviation="11.4"/>
<feComposite in2="hardAlpha" operator="out"/>
<feColorMatrix type="matrix" values="0 0 0 0 0 0 0 0 0 0 0 0 0 0 0 0 0 0 0.19 0"/>
<feBlend mode="normal" in2="BackgroundImageFix" result="effect1_dropShadow_1558_74586"/>
<feBlend mode="normal" in="SourceGraphic" in2="effect1_dropShadow_1558_74586" result="shape"/>
</filter>
<filter id="filter3_d_1558_74586" x="290.491" y="217.723" width="443.201" height="496.643" filterUnits="userSpaceOnUse" color-interpolation-filters="sRGB">
<feFlood flood-opacity="0" result="BackgroundImageFix"/>
<feColorMatrix in="SourceAlpha" type="matrix" values="0 0 0 0 0 0 0 0 0 0 0 0 0 0 0 0 0 0 127 0" result="hardAlpha"/>
<feOffset/>
<feGaussianBlur stdDeviation="12"/>
<feComposite in2="hardAlpha" operator="out"/>
<feColorMatrix type="matrix" values="0 0 0 0 0 0 0 0 0 0 0 0 0 0 0 0 0 0 0.55 0"/>
<feBlend mode="normal" in2="BackgroundImageFix" result="effect1_dropShadow_1558_74586"/>
<feBlend mode="normal" in="SourceGraphic" in2="effect1_dropShadow_1558_74586" result="shape"/>
</filter>
</defs>
</svg>
