<svg width="819" height="822" viewBox="0 0 819 822" fill="none" xmlns="http://www.w3.org/2000/svg">
<path d="M176.476 112.4C175.238 113.335 173.889 114.054 172.43 114.555C170.971 115.057 169.493 115.253 167.998 115.146C166.525 115.021 165.127 114.504 163.804 113.595L166.078 110.498C166.96 111.105 167.909 111.448 168.925 111.529C169.924 111.588 170.91 111.444 171.885 111.096C172.882 110.732 173.786 110.243 174.596 109.631C175.496 108.951 176.241 108.159 176.83 107.254C177.42 106.35 177.741 105.418 177.794 104.459C177.852 103.46 177.542 102.51 176.862 101.61C176.165 100.688 175.274 100.211 174.191 100.181C173.108 100.151 171.572 100.551 169.584 101.382L166.23 102.908C164.99 103.42 163.694 103.833 162.342 104.148C161.011 104.446 159.705 104.425 158.424 104.086C157.164 103.729 156.008 102.853 154.954 101.457C153.985 100.175 153.554 98.7855 153.662 97.2903C153.792 95.778 154.308 94.3095 155.212 92.8848C156.138 91.4431 157.287 90.2037 158.66 89.1667C159.718 88.3676 160.872 87.7431 162.123 87.2931C163.379 86.8036 164.65 86.568 165.936 86.5861C167.228 86.5647 168.476 86.8594 169.68 87.4701L167.414 90.5072C166.391 90.0425 165.243 89.9732 163.969 90.2991C162.718 90.6081 161.575 91.1536 160.539 91.9356C159.729 92.5477 159.055 93.2692 158.516 94.1003C157.96 94.9089 157.642 95.7506 157.56 96.6252C157.479 97.4999 157.735 98.3311 158.33 99.1188C158.891 99.8615 159.556 100.296 160.323 100.423C161.113 100.534 161.971 100.452 162.895 100.178C163.825 99.8642 164.805 99.4772 165.835 99.0167L168.708 97.6952C170.06 97.0982 171.421 96.6535 172.79 96.3611C174.16 96.0687 175.483 96.1121 176.759 96.4912C178.036 96.8704 179.218 97.7802 180.306 99.2206C181.088 100.256 181.546 101.377 181.68 102.584C181.797 103.768 181.651 104.956 181.244 106.148C180.819 107.317 180.188 108.447 179.351 109.539C178.537 110.613 177.579 111.567 176.476 112.4Z" fill="black"/>
<path d="M207.644 90.5356C205.361 91.9379 203.078 92.612 200.794 92.5582C198.495 92.4803 196.338 91.7697 194.321 90.4263C192.304 89.0829 190.543 87.1854 189.038 84.7338C187.503 82.2342 186.624 79.7785 186.4 77.3669C186.186 74.9165 186.603 72.658 187.651 70.5912C188.699 68.5245 190.352 66.7974 192.612 65.4099C194.631 64.1701 196.733 63.5244 198.919 63.4728C201.129 63.4065 203.182 63.9997 205.076 65.2524L202.784 68.1495C201.591 67.3927 200.247 67.0098 198.752 67.0011C197.267 66.9535 195.743 67.4094 194.181 68.3688C192.763 69.2397 191.698 70.3899 190.987 71.8194C190.3 73.2342 190.063 74.8693 190.276 76.7247C190.474 78.5561 191.215 80.5173 192.499 82.6083C193.739 84.6273 195.126 86.1586 196.66 87.2022C198.195 88.2458 199.775 88.7979 201.401 88.8585C203.051 88.9044 204.622 88.4698 206.112 87.5546C207.674 86.5952 208.777 85.4543 209.422 84.1319C210.09 82.7947 210.361 81.4035 210.235 79.9584L213.855 79.2245C214.082 81.5344 213.642 83.6747 212.536 85.6453C211.414 87.5919 209.784 89.222 207.644 90.5356Z" fill="black"/>
<path d="M230.121 76.688L228.723 73.8865L232.282 72.111L222.46 52.4247L218.902 54.2002L217.504 51.3987L228.18 46.0723L229.578 48.8738L226.019 50.6493L235.841 70.3356L239.4 68.5601L240.797 71.3616L230.121 76.688Z" fill="black"/>
<path d="M254.506 64.5994L243.941 38.3865L261.717 31.2218L262.998 34.4003L248.911 40.0783L252.121 48.0442L262.52 43.8529L263.801 47.0314L253.402 51.2227L256.914 59.9342L271.001 54.2562L272.282 57.4347L254.506 64.5994Z" fill="black"/>
<path d="M286.561 51.8791L278.6 24.7613L284.243 23.1048L303.353 42.5404L296.584 19.4822L300.4 18.362L308.361 45.4798L302.758 47.1243L283.572 27.5789L290.377 50.7589L286.561 51.8791Z" fill="black"/>
<path d="M335.479 39.6093C332.846 40.103 330.472 39.9167 328.358 39.0503C326.239 38.1561 324.478 36.7214 323.074 34.7461C321.671 32.7709 320.704 30.3694 320.174 27.5416C319.634 24.6585 319.69 22.0508 320.343 19.7187C321.019 17.3536 322.216 15.3932 323.933 13.8373C325.65 12.2815 327.812 11.2593 330.417 10.7708C332.746 10.3342 334.941 10.4825 337.001 11.2155C339.088 11.9432 340.793 13.2307 342.115 15.0777L338.939 16.9645C338.096 15.8313 336.977 14.9935 335.584 14.4511C334.214 13.8758 332.627 13.7571 330.825 14.0949C329.19 14.4015 327.785 15.0954 326.61 16.1765C325.463 17.2525 324.657 18.6949 324.193 20.5037C323.723 22.2849 323.714 24.3814 324.166 26.7933C324.603 29.122 325.351 31.0479 326.412 32.5709C327.472 34.094 328.751 35.1743 330.248 35.812C331.772 36.4445 333.394 36.5996 335.113 36.2774C336.915 35.9396 338.353 35.2683 339.427 34.2634C340.529 33.2533 341.28 32.0508 341.678 30.656L345.322 31.2643C344.708 33.5029 343.533 35.3447 341.795 36.7897C340.052 38.2069 337.947 39.1468 335.479 39.6093Z" fill="black"/>
<path d="M361.291 34.6515L358.758 6.50327L377.846 4.78524L378.154 8.19843L363.026 9.55996L363.796 18.114L374.963 17.109L375.27 20.5222L364.103 21.5272L364.945 30.8818L380.073 29.5203L380.38 32.9335L361.291 34.6515Z" fill="black"/>
<path d="M437.488 31.4526L433.906 27.1133L433.278 26.3105L426.49 17.6984C425.836 16.8656 425.212 16.0205 424.616 15.1632C424.022 14.2777 423.497 13.4107 423.043 12.5623C422.616 11.7156 422.272 10.9025 422.01 10.1228C421.779 9.3168 421.684 8.576 421.727 7.90042C421.818 6.46482 422.265 5.20722 423.068 4.12764C423.902 3.02169 424.986 2.18603 426.322 1.62067C427.686 1.05708 429.227 0.829704 430.944 0.938528C432.21 1.01881 433.377 1.333 434.445 1.88111C435.514 2.40108 436.416 3.10827 437.151 4.0027C437.915 4.87076 438.446 5.86529 438.742 6.9863L435.315 8.88876C434.862 7.56 434.261 6.57508 433.51 5.934C432.787 5.2947 431.849 4.93848 430.695 4.86533C429.822 4.81003 429.081 4.90439 428.472 5.14842C427.865 5.3643 427.391 5.71577 427.049 6.20283C426.707 6.68989 426.512 7.31343 426.464 8.07346C426.425 8.69274 426.55 9.3931 426.84 10.1745C427.159 10.9296 427.562 11.7041 428.049 12.498C428.536 13.2919 429.04 14.0305 429.562 14.7136C430.084 15.3967 430.541 15.9909 430.933 16.4962L436.387 23.4128L437.526 24.8416L443.146 31.8111L437.488 31.4526ZM426.104 31.155C424.105 31.0283 422.316 30.491 420.737 29.543C419.16 28.567 417.923 27.344 417.027 25.8741C416.161 24.3778 415.781 22.7852 415.888 21.0962C416.029 18.8725 416.757 16.9826 418.071 15.4267C419.413 13.8725 421.293 12.734 423.713 12.0113L426.21 15.4338C424.383 15.7137 423.004 16.2904 422.073 17.1641C421.143 18.0095 420.629 19.2064 420.531 20.7546C420.456 21.9368 420.671 22.9962 421.177 23.9326C421.683 24.8691 422.441 25.6237 423.45 26.1964C424.488 26.7708 425.738 27.1045 427.202 27.1972C428.469 27.2775 429.638 27.1114 430.71 26.6989C431.812 26.26 432.813 25.6169 433.715 24.7696C434.617 23.9224 435.375 22.8823 435.99 21.6495C436.633 20.4185 437.131 19.0369 437.482 17.5048L441.367 17.751C441.033 19.4538 440.524 21.0183 439.84 22.4446C439.184 23.8727 438.382 25.1502 437.435 26.2772C436.516 27.4059 435.466 28.3569 434.287 29.13C433.137 29.8767 431.872 30.4325 430.493 30.7972C429.115 31.1338 427.652 31.2531 426.104 31.155Z" fill="black"/>
<path d="M477.421 37.5795L483.58 9.99658L491.095 11.6744C493.297 12.1661 495.254 12.8487 496.967 13.7224C498.713 14.5746 500.143 15.6743 501.259 17.0215C502.374 18.3687 503.103 20.0199 503.447 21.9752C503.797 23.9029 503.68 26.1744 503.096 28.7895C502.506 31.4322 501.64 33.5652 500.497 35.1886C499.361 36.7844 497.998 37.9686 496.409 38.741C494.827 39.4859 493.061 39.8865 491.113 39.9427C489.197 39.9775 487.139 39.749 484.936 39.2574L477.421 37.5795ZM482.031 35.184L485.582 35.9769C487.014 36.2965 488.415 36.4936 489.785 36.5684C491.189 36.6218 492.491 36.4212 493.691 35.9666C494.924 35.4905 496.001 34.6181 496.92 33.3494C497.872 32.0593 498.61 30.2444 499.132 27.9045C499.655 25.5646 499.753 23.6358 499.427 22.1181C499.135 20.5789 498.529 19.3454 497.609 18.4175C496.723 17.4683 495.63 16.7329 494.33 16.2116C493.064 15.6688 491.715 15.2376 490.284 14.918L486.733 14.1252L482.031 35.184Z" fill="black"/>
<path d="M515.521 46.5282L524.368 19.6867L542.571 25.6865L541.498 28.9412L527.073 24.1864L524.384 32.3434L535.032 35.8532L533.96 39.1079L523.311 35.5981L520.371 44.5185L534.796 49.2733L533.724 52.528L515.521 46.5282Z" fill="black"/>
<path d="M556.232 61.6178C554.808 61.0039 553.517 60.1866 552.36 59.1658C551.202 58.145 550.301 56.9581 549.656 55.605C549.036 54.263 548.795 52.7922 548.931 51.1926L552.747 51.639C552.656 52.7055 552.826 53.7002 553.257 54.6233C553.7 55.5204 554.313 56.3068 555.097 56.9824C555.907 57.6691 556.778 58.2135 557.711 58.6153C558.747 59.0618 559.803 59.3176 560.881 59.3827C561.959 59.4478 562.928 59.2664 563.788 58.8384C564.685 58.3958 565.357 57.6564 565.803 56.6203C566.261 55.5583 566.235 54.549 565.726 53.5925C565.217 52.6359 564.11 51.4986 562.405 50.1804L559.42 48.019C558.363 47.1947 557.363 46.2724 556.42 45.252C555.504 44.2428 554.877 43.0972 554.538 41.8151C554.226 40.5441 554.416 39.1057 555.108 37.4997C555.744 36.0232 556.739 34.9623 558.092 34.3168C559.471 33.6825 561.003 33.4059 562.688 33.4871C564.399 33.5793 566.044 33.9659 567.624 34.6468C568.842 35.1714 569.955 35.8662 570.965 36.7312C572.011 37.5813 572.844 38.57 573.464 39.6971C574.121 40.8095 574.482 42.0398 574.546 43.388L570.786 42.9195C570.684 41.8008 570.177 40.7684 569.264 39.8221C568.377 38.8871 567.338 38.1628 566.146 37.6493C565.214 37.2475 564.253 37.0178 563.264 36.9603C562.287 36.8769 561.398 37.0159 560.597 37.3772C559.796 37.7386 559.201 38.3726 558.81 39.2792C558.442 40.134 558.392 40.9265 558.661 41.6566C558.956 42.3979 559.45 43.1026 560.145 43.7706C560.877 44.4239 561.698 45.0847 562.608 45.7532L565.177 47.5971C566.364 48.4772 567.423 49.4404 568.354 50.4867C569.285 51.5329 569.901 52.7045 570.203 54.0013C570.504 55.2982 570.297 56.7755 569.583 58.4333C569.069 59.6248 568.321 60.577 567.338 61.2899C566.367 61.9768 565.262 62.4376 564.024 62.6721C562.798 62.8808 561.504 62.8912 560.141 62.7033C558.805 62.5266 557.502 62.1648 556.232 61.6178Z" fill="black"/>
<path d="M580.046 71.8009L581.526 69.0421L585.031 70.9224L595.432 51.5362L591.928 49.6559L593.408 46.8971L603.921 52.538L602.441 55.2968L598.937 53.4165L588.535 72.8027L592.04 74.683L590.559 77.4418L580.046 71.8009Z" fill="black"/>
<path d="M613.885 91.6996C611.618 90.2181 610.021 88.4333 609.095 86.3452C608.208 84.2488 607.941 82.0021 608.294 79.605C608.672 77.2233 609.647 74.8284 611.221 72.4202C612.826 69.9647 614.671 68.1212 616.757 66.8897C618.881 65.6499 621.101 65.0625 623.418 65.1275C625.734 65.1924 628.002 65.9502 630.221 67.4008C632.204 68.697 633.686 70.3225 634.666 72.2772C635.67 74.2473 636.021 76.3641 635.721 78.6278L632.087 77.769C632.262 76.3671 632.035 74.9884 631.404 73.6329C630.813 72.2692 629.75 71.0858 628.215 70.0828C626.822 69.1724 625.328 68.7009 623.732 68.6685C622.159 68.6515 620.579 69.1353 618.992 70.1198C617.421 71.0807 615.964 72.5882 614.621 74.6423C613.325 76.6255 612.521 78.526 612.209 80.3439C611.92 82.1771 612.084 83.8341 612.7 85.3149C613.339 86.8111 614.391 88.0376 615.855 88.9944C616.634 89.5036 617.498 89.9338 618.448 90.285C619.398 90.6363 620.362 90.8113 621.34 90.8103C622.333 90.7856 623.305 90.5107 624.254 89.9858C625.204 89.4608 626.08 88.5845 626.882 87.3567L627.392 86.5776L620.486 82.0639L622.361 79.1953L632.418 85.7691L624.433 97.9872L622.52 96.7373L623.579 93.1838C622.037 93.8941 620.427 94.0886 618.75 93.7675C617.112 93.4382 615.49 92.7489 613.885 91.6996Z" fill="black"/>
<path d="M637.674 107.131L655.561 85.2494L660.114 88.9713L654.863 115.717L670.072 97.1113L673.151 99.6283L655.265 121.51L650.744 117.815L656.043 90.9438L640.753 109.648L637.674 107.131Z" fill="black"/>
<path d="M689.119 148.529C688.241 147.574 687.667 146.491 687.399 145.282C687.17 144.075 687.231 142.87 687.581 141.667C687.95 140.485 688.601 139.464 689.536 138.605C690.491 137.727 691.562 137.163 692.751 136.914C693.979 136.666 695.174 136.716 696.338 137.064C697.541 137.414 698.581 138.067 699.459 139.022C700.337 139.977 700.891 141.058 701.12 142.266C701.388 143.475 701.338 144.67 700.969 145.852C700.64 147.036 699.998 148.067 699.042 148.945C698.108 149.804 697.027 150.358 695.799 150.606C694.59 150.874 693.384 150.834 692.181 150.484C691.018 150.136 689.997 149.484 689.119 148.529Z" fill="black"/>
<path d="M715.181 184.964L738.399 168.924L743.425 176.199C744.739 178.102 745.708 179.901 746.331 181.596C746.969 183.315 747.059 184.933 746.599 186.45C746.178 187.975 745.004 189.403 743.078 190.734C741.175 192.048 739.425 192.641 737.827 192.51C736.268 192.388 734.798 191.723 733.416 190.518C732.074 189.32 730.746 187.769 729.431 185.866L726.666 181.863L717.441 188.236L715.181 184.964ZM729.485 179.915L732.443 184.197C733.229 185.334 734.015 186.299 734.803 187.092C735.591 187.884 736.459 188.347 737.408 188.48C738.396 188.62 739.517 188.258 740.77 187.392C742.046 186.51 742.794 185.582 743.012 184.609C743.247 183.658 743.144 182.666 742.705 181.633C742.265 180.599 741.653 179.514 740.867 178.377L737.909 174.096L729.485 179.915Z" fill="black"/>
<path d="M735.003 214.274L759.688 200.512L764.056 208.346C765.182 210.366 765.986 212.243 766.468 213.977C766.988 215.721 766.971 217.313 766.417 218.752C765.902 220.202 764.658 221.476 762.688 222.575C761.579 223.193 760.448 223.597 759.295 223.788C758.142 223.979 756.958 223.767 755.744 223.152C754.543 222.562 753.271 221.382 751.929 219.612L745.551 233.194L743.182 228.945L749.384 215.654L747.323 211.959L736.939 217.748L735.003 214.274ZM750.243 210.331L752.818 214.95C753.491 216.157 754.181 217.193 754.89 218.058C755.611 218.947 756.426 219.51 757.333 219.747C758.279 219.995 759.38 219.769 760.636 219.069C761.917 218.354 762.688 217.537 762.95 216.616C763.225 215.72 763.175 214.731 762.798 213.649C762.459 212.579 761.953 211.44 761.28 210.233L758.705 205.613L750.243 210.331Z" fill="black"/>
<path d="M756.91 257.593C755.841 255.105 755.487 252.709 755.848 250.405C756.235 248.09 757.222 245.993 758.809 244.114C760.433 242.249 762.554 240.755 765.171 239.63C767.788 238.505 770.306 238.007 772.725 238.134C775.181 238.276 777.368 239.009 779.288 240.333C781.234 241.646 782.741 243.547 783.81 246.035C784.89 248.548 785.236 250.963 784.85 253.278C784.489 255.582 783.509 257.66 781.911 259.514C780.35 261.382 778.261 262.878 775.643 264.003C773.026 265.127 770.477 265.624 767.995 265.493C765.551 265.377 763.355 264.662 761.41 263.349C759.49 262.025 757.99 260.106 756.91 257.593ZM759.981 256.273C760.66 257.854 761.674 259.107 763.023 260.031C764.383 260.982 765.989 261.504 767.841 261.599C769.719 261.682 771.785 261.24 774.04 260.271C776.269 259.313 777.986 258.13 779.192 256.722C780.424 255.302 781.15 253.778 781.371 252.148C781.629 250.533 781.418 248.935 780.739 247.354C780.071 245.799 779.057 244.547 777.697 243.596C776.373 242.66 774.773 242.151 772.895 242.067C771.043 241.973 769.003 242.404 766.774 243.362C764.52 244.33 762.777 245.525 761.545 246.944C760.339 248.353 759.607 249.864 759.349 251.479C759.102 253.12 759.313 254.718 759.981 256.273Z" fill="black"/>
<path d="M768.446 284.19L795.442 275.826L797.721 283.181C798.389 285.336 798.769 287.374 798.862 289.294C798.99 291.233 798.747 293.021 798.132 294.658C797.518 296.295 796.447 297.749 794.921 299.019C793.423 300.281 791.393 301.308 788.834 302.101C786.247 302.903 783.966 303.211 781.989 303.026C780.04 302.833 778.335 302.239 776.875 301.245C775.442 300.242 774.217 298.909 773.2 297.245C772.218 295.601 771.393 293.701 770.725 291.545L768.446 284.19ZM772.816 287L773.893 290.475C774.327 291.876 774.852 293.19 775.468 294.416C776.12 295.661 776.941 296.692 777.932 297.507C778.958 298.34 780.249 298.841 781.807 299.008C783.4 299.193 785.342 298.931 787.632 298.222C789.922 297.512 791.644 296.639 792.799 295.602C793.99 294.583 794.759 293.444 795.107 292.185C795.49 290.944 795.585 289.63 795.392 288.243C795.233 286.875 794.937 285.49 794.503 284.089L793.426 280.614L772.816 287Z" fill="black"/>
<path d="M781.36 332.67C780.562 328.658 780.988 325.597 782.639 323.486C784.317 321.369 787.175 319.909 791.214 319.105L807.356 315.894L808.132 319.794L791.7 323.063C788.961 323.608 786.98 324.563 785.756 325.928C784.538 327.321 784.193 329.345 784.721 332.001C785.249 334.657 786.34 336.381 787.993 337.174C789.652 337.994 791.851 338.132 794.589 337.587L811.021 334.317L811.797 338.218L795.656 341.429C791.617 342.233 788.417 341.978 786.056 340.665C783.729 339.374 782.163 336.709 781.36 332.67Z" fill="black"/>
<path d="M787.512 371.226C787.252 368.559 787.647 366.211 788.696 364.182C789.773 362.15 791.358 360.522 793.449 359.298C795.54 358.074 798.018 357.323 800.881 357.044C803.801 356.76 806.393 357.045 808.659 357.902C810.955 358.783 812.802 360.148 814.201 361.995C815.599 363.843 816.427 366.086 816.684 368.725C816.914 371.083 816.573 373.256 815.661 375.243C814.752 377.259 813.32 378.844 811.363 379.998L809.764 376.668C810.967 375.927 811.9 374.887 812.563 373.547C813.257 372.233 813.515 370.663 813.337 368.838C813.176 367.182 812.608 365.721 811.635 364.456C810.664 363.218 809.298 362.289 807.538 361.667C805.805 361.042 803.717 360.849 801.275 361.086C798.917 361.316 796.932 361.892 795.322 362.814C793.711 363.736 792.522 364.914 791.755 366.349C790.991 367.812 790.693 369.414 790.863 371.155C791.041 372.979 791.583 374.471 792.489 375.63C793.398 376.816 794.53 377.67 795.884 378.19L794.957 381.766C792.781 380.957 791.05 379.624 789.764 377.766C788.506 375.904 787.755 373.724 787.512 371.226Z" fill="black"/>
<path d="M790.172 403.743L815.007 403.689L814.986 394.296L818.413 394.289L818.463 417.051L815.036 417.058L815.015 407.666L790.18 407.72L790.172 403.743Z" fill="black"/>
<path d="M788.471 451.801L816.428 455.936L815.302 463.554C814.971 465.786 814.433 467.788 813.686 469.559C812.963 471.362 811.97 472.869 810.708 474.08C809.445 475.29 807.852 476.138 805.926 476.623C804.029 477.112 801.755 477.16 799.105 476.768C796.426 476.372 794.236 475.663 792.534 474.641C790.859 473.624 789.579 472.351 788.693 470.823C787.835 469.299 787.307 467.567 787.109 465.627C786.935 463.72 787.014 461.65 787.344 459.418L788.471 451.801ZM791.195 456.224L790.663 459.823C790.448 461.274 790.353 462.686 790.378 464.058C790.427 465.462 790.722 466.746 791.263 467.91C791.827 469.105 792.775 470.115 794.108 470.939C795.464 471.796 797.327 472.399 799.699 472.75C802.071 473.101 804.002 473.059 805.492 472.624C807.005 472.22 808.192 471.526 809.05 470.541C809.932 469.588 810.586 468.445 811.012 467.11C811.461 465.808 811.793 464.432 812.008 462.981L812.54 459.381L791.195 456.224Z" fill="black"/>
<path d="M782.405 490.068L809.847 496.829L805.262 515.438L801.935 514.618L805.568 499.871L797.229 497.816L794.547 508.702L791.219 507.883L793.901 496.996L784.781 494.75L781.148 509.498L777.821 508.678L782.405 490.068Z" fill="black"/>
<path d="M771.712 529.741L801.589 529.826L800.164 533.944L775.349 533.462L795.142 548.458L793.717 552.576L770.19 534.14L771.712 529.741Z" fill="black"/>
<path d="M762.075 556.646L787.818 568.309L779.909 585.767L776.787 584.353L783.056 570.518L775.233 566.973L770.606 577.186L767.484 575.771L772.111 565.559L763.556 561.683L757.287 575.518L754.166 574.103L762.075 556.646Z" fill="black"/>
<path d="M747.646 587.795L772.243 601.713L770.284 605.174L748.67 592.944L741.19 606.163L738.207 604.475L747.646 587.795Z" fill="black"/>
<path d="M724 626.009C725.558 623.795 727.412 622.237 729.563 621.336C731.737 620.451 734.041 620.192 736.473 620.557C738.912 620.963 741.297 621.985 743.627 623.624C745.957 625.262 747.702 627.145 748.862 629.271C750.029 631.436 750.552 633.684 750.431 636.013C750.333 638.358 749.505 640.638 747.948 642.852C746.374 645.09 744.5 646.652 742.326 647.536C740.175 648.437 737.891 648.693 735.475 648.304C733.066 647.955 730.696 646.96 728.366 645.322C726.036 643.683 724.276 641.772 723.086 639.591C721.903 637.448 721.361 635.205 721.458 632.86C721.579 630.531 722.426 628.247 724 626.009ZM726.734 627.932C725.744 629.34 725.209 630.86 725.13 632.493C725.033 634.15 725.431 635.791 726.321 637.418C727.235 639.061 728.695 640.588 730.703 641.999C732.687 643.395 734.594 644.237 736.426 644.525C738.281 644.83 739.96 644.649 741.464 643.982C742.974 643.354 744.224 642.337 745.214 640.93C746.187 639.545 746.722 638.025 746.818 636.368C746.921 634.751 746.516 633.121 745.602 631.479C744.712 629.852 743.274 628.341 741.29 626.946C739.283 625.534 737.352 624.676 735.497 624.371C733.666 624.083 731.995 624.253 730.484 624.88C728.958 625.531 727.708 626.548 726.734 627.932Z" fill="black"/>
<path d="M707.079 650.235L728.371 668.755L722.568 675.427C721.05 677.172 719.547 678.556 718.059 679.579C716.552 680.624 715.007 681.111 713.423 681.042C711.841 681.012 710.167 680.229 708.401 678.693C706.656 677.175 705.648 675.625 705.378 674.045C705.111 672.504 705.39 670.915 706.216 669.278C707.044 667.681 708.217 666.01 709.735 664.265L712.928 660.594L704.469 653.236L707.079 650.235ZM715.514 662.843L712.099 666.769C711.192 667.812 710.452 668.813 709.879 669.773C709.306 670.732 709.073 671.688 709.179 672.641C709.288 673.633 709.917 674.628 711.066 675.628C712.237 676.646 713.321 677.14 714.318 677.111C715.298 677.103 716.233 676.758 717.125 676.076C718.017 675.394 718.917 674.531 719.824 673.489L723.239 669.562L715.514 662.843Z" fill="black"/>
<path d="M684.126 676.548L703.414 697.205L698.59 701.709L677.32 689.964L687.581 711.988L682.757 716.493L663.469 695.836L666.376 693.121L682.834 710.748L672.344 687.549L675.22 684.863L697.677 696.888L681.219 679.262L684.126 676.548Z" fill="black"/>
<path d="M650.443 707.193L667.479 729.744L652.186 741.296L650.12 738.562L662.24 729.407L657.063 722.554L648.117 729.312L646.051 726.577L654.997 719.819L649.336 712.325L637.216 721.48L635.151 718.745L650.443 707.193Z" fill="black"/>
<path d="M622.912 727.822L637.702 751.905L632.691 754.982L609.155 741.235L621.731 761.713L618.342 763.794L603.552 739.711L608.527 736.656L632.165 750.489L619.523 729.903L622.912 727.822Z" fill="black"/>
<path d="M584.098 750.548L595.015 772.855L603.452 768.726L604.958 771.804L584.514 781.81L583.007 778.732L591.443 774.603L580.526 752.296L584.098 750.548Z" fill="black"/>
<path d="M540.281 769.967L548.948 796.868L531.471 802.499L530.42 799.237L544.112 794.826L541.478 786.651L527.786 791.062L526.735 787.8L540.427 783.389L536.495 771.187L540.281 769.967Z" fill="black"/>
<path d="M495.686 782.436C498.333 781.869 500.752 781.985 502.943 782.784C505.14 783.611 507.006 784.985 508.543 786.906C510.058 788.86 511.114 791.23 511.711 794.015C512.308 796.801 512.311 799.368 511.718 801.716C511.104 804.098 509.961 806.102 508.291 807.729C506.626 809.384 504.47 810.496 501.823 811.063C499.148 811.637 496.712 811.51 494.515 810.683C492.324 809.883 490.474 808.52 488.965 806.594C487.434 804.701 486.37 802.361 485.773 799.576C485.176 796.79 485.182 794.193 485.79 791.784C486.377 789.408 487.503 787.392 489.167 785.738C490.838 784.11 493.01 783.01 495.686 782.436ZM496.386 785.704C494.704 786.065 493.279 786.818 492.111 787.962C490.915 789.113 490.092 790.588 489.641 792.386C489.196 794.212 489.23 796.325 489.745 798.724C490.253 801.096 491.082 803.01 492.23 804.466C493.385 805.949 494.74 806.957 496.297 807.488C497.831 808.054 499.44 808.156 501.122 807.795C502.777 807.44 504.202 806.688 505.398 805.537C506.572 804.42 507.381 802.948 507.826 801.122C508.277 799.324 508.248 797.238 507.74 794.867C507.226 792.467 506.391 790.526 505.237 789.043C504.088 787.587 502.746 786.576 501.212 786.011C499.649 785.452 498.041 785.35 496.386 785.704Z" fill="black"/>
<path d="M466.778 788.737L469.826 816.835L460.909 817.802C458.61 818.052 456.568 818.06 454.784 817.828C452.974 817.627 451.515 816.991 450.406 815.92C449.272 814.88 448.583 813.238 448.34 810.995C448.203 809.733 448.271 808.534 448.545 807.398C448.819 806.262 449.476 805.254 450.515 804.375C451.527 803.5 453.109 802.789 455.263 802.243L445.242 791.074L450.079 790.549L459.9 801.442L464.106 800.986L462.824 789.166L466.778 788.737ZM464.467 804.309L459.209 804.879C457.835 805.028 456.612 805.26 455.539 805.575C454.439 805.893 453.603 806.424 453.031 807.167C452.434 807.941 452.213 809.043 452.368 810.473C452.527 811.931 452.979 812.96 453.725 813.56C454.443 814.163 455.373 814.502 456.516 814.576C457.634 814.682 458.88 814.66 460.254 814.511L465.512 813.941L464.467 804.309Z" fill="black"/>
<path d="M403.602 792.687L402.662 817.504L412.048 817.86L411.918 821.284L389.173 820.423L389.302 816.998L398.688 817.354L399.628 792.537L403.602 792.687Z" fill="black"/>
<path d="M376.707 791.598L372.978 819.613L369.036 819.089L370.621 807.178L355.943 805.224L354.358 817.135L350.415 816.61L354.144 788.595L358.086 789.12L356.395 801.827L371.074 803.781L372.765 791.074L376.707 791.598Z" fill="black"/>
<path d="M338.854 786.296L332.495 813.833L313.82 809.521L314.591 806.182L329.391 809.599L331.323 801.231L320.399 798.708L321.17 795.369L332.094 797.892L334.208 788.74L319.408 785.323L320.179 781.983L338.854 786.296Z" fill="black"/>
<path d="M285.1 772.072L274.801 798.345L266.568 795.118C264.415 794.274 262.606 793.323 261.143 792.264C259.653 791.195 258.675 789.903 258.209 788.387C257.707 786.888 257.882 785.048 258.737 782.868C259.581 780.715 260.702 779.246 262.101 778.461C263.462 777.692 265.053 777.422 266.872 777.65C268.654 777.895 270.622 778.439 272.776 779.283L277.305 781.059L281.397 770.621L285.1 772.072ZM276.055 784.25L271.21 782.35C269.923 781.846 268.731 781.485 267.635 781.267C266.539 781.049 265.56 781.15 264.699 781.57C263.801 782.006 263.074 782.933 262.518 784.351C261.952 785.795 261.85 786.982 262.213 787.912C262.549 788.831 263.188 789.597 264.13 790.209C265.072 790.82 266.186 791.378 267.473 791.883L272.318 793.782L276.055 784.25Z" fill="black"/>
<path d="M243.35 753.907C246.996 755.759 249.139 757.987 249.778 760.59C250.404 763.217 249.785 766.367 247.92 770.038L240.466 784.711L236.92 782.91L244.508 767.973C245.773 765.483 246.247 763.336 245.931 761.53C245.589 759.711 244.212 758.189 241.798 756.962C239.383 755.736 237.354 755.527 235.709 756.337C234.039 757.133 232.571 758.776 231.306 761.266L223.718 776.203L220.172 774.402L227.627 759.729C229.492 756.057 231.67 753.7 234.162 752.656C236.616 751.625 239.678 752.042 243.35 753.907Z" fill="black"/>
<path d="M217.775 741.155L202.492 764.928L192.918 758.774C191.186 757.66 189.97 756.476 189.268 755.22C188.543 753.949 188.221 752.702 188.302 751.481C188.344 750.267 188.694 749.15 189.349 748.13C189.96 747.181 190.776 746.381 191.797 745.73C192.819 745.08 193.955 744.67 195.204 744.5C194.414 743.121 194.078 741.714 194.195 740.28C194.273 738.855 194.678 737.573 195.41 736.434C196.142 735.295 197.14 734.395 198.404 733.732C199.645 733.054 201.06 732.757 202.65 732.84C204.239 732.923 205.9 733.521 207.632 734.635L217.775 741.155ZM205.69 752.599L199.106 748.367C197.896 747.589 196.75 747.389 195.669 747.767C194.564 748.129 193.722 748.761 193.142 749.663C192.746 750.28 192.507 750.965 192.425 751.717C192.32 752.454 192.426 753.176 192.743 753.883C193.021 754.598 193.563 755.215 194.37 755.734L200.954 759.966L205.69 752.599ZM212.622 741.816L205.469 737.217C204.591 736.653 203.726 736.382 202.873 736.404C202.021 736.426 201.242 736.646 200.537 737.065C199.817 737.507 199.236 738.072 198.793 738.76C198.351 739.448 198.093 740.188 198.021 740.979C197.909 741.779 198.039 742.567 198.412 743.344C198.746 744.128 199.364 744.81 200.265 745.39L207.383 749.966L212.622 741.816Z" fill="black"/>
<path d="M187.889 721.703L170.508 743.988L167.372 741.542L182.645 721.959L170.669 712.618L172.776 709.916L187.889 721.703Z" fill="black"/>
<path d="M161.911 701.141L159.794 703.447L156.865 700.758L141.986 716.964L144.915 719.653L142.798 721.96L134.009 713.891L136.127 711.585L139.056 714.274L153.935 698.068L151.005 695.378L153.123 693.072L161.911 701.141Z" fill="black"/>
<path d="M134.195 673.799C136.009 675.771 137.108 677.883 137.492 680.135C137.856 682.406 137.572 684.66 136.64 686.896C135.707 689.133 134.182 691.225 132.064 693.172C129.905 695.157 127.663 696.49 125.339 697.171C122.975 697.851 120.678 697.874 118.449 697.241C116.22 696.609 114.208 695.317 112.414 693.365C110.81 691.621 109.774 689.681 109.304 687.545C108.816 685.389 109.005 683.261 109.872 681.161L113.154 682.856C112.64 684.172 112.522 685.564 112.799 687.033C113.037 688.5 113.776 689.909 115.017 691.258C116.144 692.483 117.476 693.308 119.016 693.732C120.536 694.135 122.186 694.055 123.966 693.491C125.726 692.946 127.509 691.843 129.315 690.182C131.059 688.578 132.297 686.924 133.027 685.218C133.758 683.512 133.997 681.855 133.745 680.247C133.474 678.619 132.747 677.161 131.563 675.874C130.322 674.524 128.991 673.66 127.57 673.281C126.129 672.881 124.712 672.881 123.318 673.282L121.904 669.869C124.128 669.204 126.313 669.226 128.459 669.935C130.584 670.663 132.496 671.951 134.195 673.799Z" fill="black"/>
<path d="M96.6298 627.45C98.1257 629.707 98.8862 631.978 98.9114 634.262C98.8974 636.539 98.254 638.708 96.9812 640.77C95.6927 642.808 93.8495 644.622 91.4514 646.211C89.0063 647.832 86.5826 648.795 84.1801 649.102C81.7386 649.4 79.4669 649.062 77.3652 648.086C75.2635 647.11 73.4803 645.517 72.0155 643.307C70.7066 641.332 69.9886 639.254 69.8615 637.071C69.7188 634.864 70.2329 632.781 71.4037 630.82L74.4017 633.046C73.6866 634.265 73.3504 635.621 73.3934 637.115C73.3972 638.602 73.9055 640.109 74.9184 641.637C75.8377 643.024 77.0241 644.048 78.4773 644.709C79.915 645.347 81.5573 645.527 83.4043 645.251C85.2277 644.99 87.1621 644.181 89.2076 642.826C91.1824 641.517 92.6726 640.089 93.6781 638.543C94.668 636.973 95.1729 635.386 95.1929 633.783C95.1973 632.156 94.7164 630.613 93.7503 629.156C93.2361 628.38 92.6122 627.643 91.8788 626.945C91.1453 626.246 90.3293 625.704 89.4307 625.319C88.5086 624.949 87.5076 624.817 86.4278 624.923C85.3479 625.03 84.1967 625.488 82.9742 626.299L82.1983 626.813L86.7562 633.69L83.8997 635.583L77.2616 625.568L89.4282 617.504L90.6904 619.408L88.3124 622.253C90.0101 622.211 91.5656 622.669 92.979 623.627C94.3533 624.577 95.5702 625.851 96.6298 627.45Z" fill="black"/>
<path d="M75.3507 592.717C76.5963 595.122 77.1223 597.486 76.9286 599.81C76.7099 602.147 75.8768 604.31 74.4295 606.298C72.944 608.275 70.9366 609.919 68.4072 611.229C65.8777 612.54 63.4023 613.219 60.9808 613.266C58.5214 613.301 56.2865 612.728 54.2763 611.546C52.2411 610.377 50.6007 608.59 49.355 606.186C48.0964 603.756 47.5765 601.373 47.7952 599.036C47.9889 596.712 48.8159 594.569 50.2763 592.605C51.6986 590.629 53.6745 588.986 56.2039 587.675C58.7334 586.365 61.2404 585.685 63.7249 585.637C66.1713 585.577 68.4122 586.131 70.4475 587.3C72.4577 588.482 74.0921 590.288 75.3507 592.717ZM72.383 594.255C71.5915 592.727 70.4896 591.551 69.0775 590.726C67.6524 589.876 66.0129 589.471 64.159 589.51C62.2801 589.562 60.2512 590.153 58.0724 591.282C55.9186 592.398 54.291 593.701 53.1897 595.193C52.0634 596.698 51.4489 598.271 51.3464 599.913C51.2058 601.542 51.5313 603.121 52.3228 604.648C53.1013 606.151 54.2031 607.327 55.6282 608.177C57.0153 609.015 58.6483 609.408 60.5272 609.356C62.3811 609.316 64.385 608.739 66.5387 607.623C68.7176 606.494 70.3702 605.177 71.4965 603.672C72.5978 602.181 73.2188 600.62 73.3593 598.991C73.4869 597.336 73.1615 595.758 72.383 594.255Z" fill="black"/>
<path d="M57.5105 554.848C58.4847 557.374 58.748 559.782 58.3005 562.071C57.8266 564.369 56.7612 566.428 55.1043 568.246C53.4109 570.047 51.2352 571.461 48.5772 572.486C45.9192 573.511 43.3842 573.914 40.9722 573.695C38.5237 573.46 36.3653 572.645 34.497 571.25C32.6024 569.864 31.1679 567.908 30.1937 565.382C29.2093 562.829 28.9541 560.403 29.4279 558.104C29.8755 555.816 30.9328 553.776 32.5999 551.984C34.2305 550.176 36.3748 548.76 39.0328 547.735C41.6908 546.71 44.2572 546.31 46.732 546.534C49.1703 546.743 51.3368 547.54 53.2314 548.925C55.0997 550.321 56.5261 552.295 57.5105 554.848ZM54.3919 556.05C53.7729 554.445 52.8068 553.155 51.4938 552.18C50.1705 551.179 48.5854 550.596 46.7384 550.432C44.8651 550.277 42.7837 550.642 40.4941 551.524C38.2309 552.397 36.4701 553.515 35.2117 554.876C33.927 556.249 33.1436 557.745 32.8615 559.365C32.5429 560.969 32.6932 562.574 33.3122 564.179C33.9211 565.758 34.8872 567.048 36.2104 568.05C37.4972 569.035 39.0772 569.604 40.9505 569.759C42.7975 569.923 44.8526 569.569 47.1158 568.696C49.4054 567.813 51.1925 566.686 52.4772 565.314C53.7356 563.952 54.5241 562.469 54.8427 560.865C55.1511 559.234 55.0008 557.629 54.3919 556.05Z" fill="black"/>
<path d="M47.0456 528.482L19.7566 535.834L17.7535 528.399C17.1665 526.22 16.8624 524.169 16.8412 522.247C16.7853 520.305 17.0951 518.527 17.7705 516.914C18.4459 515.301 19.5697 513.888 21.1418 512.676C22.6867 511.471 24.7528 510.52 27.3401 509.823C29.9546 509.119 32.2461 508.896 34.2144 509.154C36.1555 509.42 37.8369 510.077 39.2586 511.125C40.653 512.181 41.8275 513.559 42.7821 515.259C43.7021 516.939 44.4556 518.868 45.0426 521.047L47.0456 528.482ZM42.7838 525.511L41.8373 521.998C41.4558 520.582 40.98 519.249 40.4099 518.001C39.8053 516.732 39.0231 515.672 38.0634 514.821C37.0692 513.95 35.7969 513.401 34.2465 513.176C32.6615 512.932 30.7116 513.121 28.3966 513.745C26.0817 514.368 24.3277 515.177 23.1348 516.17C21.9072 517.143 21.0961 518.253 20.7014 519.498C20.2721 520.724 20.1283 522.034 20.2699 523.427C20.377 524.8 20.6213 526.195 21.0028 527.611L21.9493 531.124L42.7838 525.511Z" fill="black"/>
<path d="M29.0827 464.054C29.2368 465.343 29.0695 466.556 28.5807 467.694C28.0605 468.807 27.3069 469.749 26.3197 470.521C25.3292 471.264 24.2038 471.711 22.9436 471.862C21.6553 472.016 20.4562 471.847 19.3463 471.355C18.205 470.838 17.2643 470.099 16.5242 469.136C15.7527 468.149 15.2899 467.011 15.1358 465.723C14.9816 464.435 15.1647 463.234 15.6848 462.121C16.1736 460.983 16.9133 460.042 17.9038 459.299C18.8629 458.53 19.9867 458.069 21.2749 457.915C22.5352 457.764 23.736 457.947 24.8773 458.464C26.0152 458.953 26.9699 459.691 27.7414 460.678C28.4815 461.641 28.9286 462.766 29.0827 464.054Z" fill="black"/>
<path d="M29.191 421.469L0.932617 421.016L1.23973 401.853L4.66628 401.908L4.42289 417.095L13.0104 417.232L13.1901 406.022L16.6166 406.077L16.4369 417.287L25.8282 417.438L26.0716 402.251L29.4981 402.306L29.191 421.469Z" fill="black"/>
<path d="M31.3905 378.064C31.225 379.606 30.8256 381.081 30.1923 382.488C29.5591 383.895 28.6915 385.107 27.5896 386.124C26.4907 387.112 25.1569 387.777 23.5883 388.12L22.8873 384.342C23.933 384.114 24.833 383.658 25.5874 382.973C26.3136 382.285 26.8837 381.466 27.2975 380.518C27.7143 379.542 27.9769 378.548 28.0852 377.539C28.2056 376.417 28.1377 375.332 27.8814 374.283C27.6252 373.234 27.1656 372.362 26.5026 371.667C25.8146 370.941 24.9097 370.518 23.7879 370.397C22.6381 370.274 21.6815 370.597 20.9182 371.366C20.1548 372.135 19.3954 373.529 18.6399 375.547L17.4569 379.037C16.9819 380.291 16.3963 381.518 15.7 382.72C15.0067 383.894 14.0976 384.832 12.9727 385.534C11.8508 386.208 10.4204 386.451 8.68165 386.265C7.08311 386.093 5.7756 385.457 4.75914 384.355C3.74569 383.225 3.02875 381.843 2.60833 380.209C2.19092 378.547 2.074 376.861 2.25756 375.15C2.399 373.832 2.73374 372.563 3.26178 371.344C3.76478 370.093 4.46307 369.004 5.35666 368.079C6.2252 367.123 7.29403 366.415 8.56315 365.955L9.22663 369.686C8.18789 370.113 7.35142 370.903 6.71722 372.055C6.08603 373.178 5.70122 374.385 5.5628 375.675C5.45447 376.685 5.51891 377.671 5.75614 378.632C5.96533 379.591 6.36084 380.399 6.94267 381.057C7.52451 381.715 8.3062 382.097 9.28776 382.202C10.2132 382.302 10.985 382.115 11.6031 381.642C12.2242 381.142 12.7511 380.461 13.1839 379.599C13.5917 378.707 13.9805 377.727 14.3503 376.661L15.3529 373.662C15.8429 372.268 16.45 370.971 17.1744 369.773C17.8988 368.574 18.8359 367.639 19.9859 366.968C21.1358 366.297 22.6082 366.058 24.4031 366.251C25.6931 366.389 26.8239 366.822 27.7953 367.551C28.7387 368.276 29.5053 369.195 30.0951 370.308C30.6568 371.418 31.0493 372.651 31.2724 374.009C31.4986 375.338 31.5379 376.69 31.3905 378.064Z" fill="black"/>
<path d="M35.1761 345.603L10.8253 340.723L8.97952 349.932L5.61936 349.259L10.0924 326.94L13.4525 327.614L11.6068 336.823L35.9576 341.704L35.1761 345.603Z" fill="black"/>
<path d="M45.9212 300.04L42.9302 298.98C41.7285 295.023 40.5481 291.598 39.389 288.704C38.2392 285.783 37.0341 283.441 35.7735 281.678C34.4958 279.879 33.0726 278.701 31.504 278.146C30.1215 277.656 28.8495 277.699 27.6879 278.275C26.5263 278.851 25.6677 279.923 25.112 281.492C24.6694 282.741 24.6006 284.034 24.9057 285.369C25.1936 286.668 26.092 287.764 27.6008 288.657L25.457 291.668C23.6857 290.502 22.5242 288.924 21.9727 286.933C21.3945 284.933 21.5199 282.763 22.3487 280.423C22.9326 278.775 23.725 277.425 24.726 276.373C25.7098 275.285 26.8473 274.566 28.1385 274.215C29.4391 273.838 30.8338 273.913 32.3226 274.441C33.8647 274.987 35.2483 275.896 36.4734 277.168C37.672 278.43 38.7451 279.963 39.6927 281.765C40.6137 283.557 41.4688 285.536 42.258 287.7C43.0206 289.856 43.7502 292.104 44.4468 294.445L49.6456 279.77L52.7164 280.857L45.9212 300.04Z" fill="black"/>
<path d="M62.337 258.321C60.8108 261.624 58.5061 263.62 55.4228 264.308C52.3257 264.959 48.6264 264.29 44.3249 262.303C40.0489 260.327 37.1679 257.955 35.6817 255.187C34.2074 252.393 34.2333 249.344 35.7595 246.041C37.2856 242.738 39.5845 240.755 42.6559 240.093C45.7392 239.405 49.4188 240.048 53.6948 242.024C57.9963 244.012 60.8971 246.408 62.397 249.214C63.8831 251.983 63.8631 255.018 62.337 258.321ZM57.3472 248.745C56.012 247.6 54.2563 246.525 52.0799 245.519C48.7257 243.969 45.8981 243.331 43.597 243.604C41.3078 243.851 39.6427 245.101 38.6016 247.354C37.8326 249.019 37.7117 250.625 38.239 252.174L57.3472 248.745ZM59.4949 257.008C60.3112 255.241 60.3917 253.554 59.7364 251.946L40.4953 255.36C41.1707 255.983 41.9653 256.583 42.8791 257.161C43.793 257.738 44.8132 258.287 45.9398 258.808C49.294 260.358 52.1284 261.015 54.4433 260.779C56.7699 260.518 58.4538 259.261 59.4949 257.008Z" fill="black"/>
<path d="M72.6818 235.06L69.9378 233.466C69.4874 229.356 68.9599 225.771 68.3551 222.713C67.7646 219.63 67.0126 217.105 66.0993 215.14C65.1758 213.136 63.9946 211.716 62.5555 210.88C61.2872 210.143 60.0291 209.951 58.7811 210.302C57.5332 210.654 56.4913 211.549 55.6555 212.988C54.9897 214.135 54.6835 215.392 54.7369 216.76C54.78 218.09 55.4605 219.333 56.7783 220.49L54.1153 223.053C52.5898 221.58 51.7399 219.814 51.5654 217.756C51.3666 215.683 51.8904 213.574 53.137 211.428C54.0153 209.915 55.0434 208.735 56.2214 207.886C57.3892 206.999 58.6399 206.502 59.9736 206.396C61.3215 206.265 62.6784 206.597 64.0442 207.39C65.4589 208.212 66.6508 209.361 67.62 210.837C68.5648 212.299 69.3365 214.003 69.9351 215.949C70.5093 217.88 70.9843 219.983 71.3601 222.256C71.7116 224.515 72.0135 226.86 72.2658 229.289L80.0853 215.826L82.9024 217.462L72.6818 235.06Z" fill="black"/>
<path d="M90.1628 205.209L87.5743 203.373C87.4975 199.239 87.2963 195.621 86.9707 192.521C86.6614 189.397 86.1409 186.815 85.4091 184.775C84.6707 182.696 83.6227 181.175 82.2652 180.212C81.0687 179.364 79.8331 179.058 78.5585 179.295C77.2838 179.533 76.1653 180.33 75.2027 181.688C74.436 182.769 74.0173 183.994 73.9467 185.361C73.8693 186.689 74.4346 187.989 75.6423 189.26L72.7585 191.572C71.3725 189.967 70.6857 188.132 70.6981 186.066C70.6876 183.984 71.4001 181.93 72.8357 179.906C73.8472 178.479 74.9779 177.396 76.2278 176.658C77.4711 175.879 78.7616 175.498 80.0994 175.513C81.4536 175.505 82.7749 175.958 84.0634 176.871C85.3979 177.817 86.481 179.069 87.3128 180.627C88.1215 182.169 88.7359 183.935 89.156 185.928C89.5531 187.903 89.836 190.04 90.0047 192.338C90.1504 194.62 90.2389 196.982 90.2704 199.424L99.2757 186.723L101.933 188.608L90.1628 205.209Z" fill="black"/>
<path d="M124.672 148.761C123.788 149.71 122.753 150.365 121.568 150.726C120.382 151.047 119.176 151.079 117.949 150.823C116.742 150.546 115.674 149.974 114.746 149.109C113.797 148.224 113.152 147.199 112.812 146.033C112.471 144.828 112.429 143.632 112.687 142.446C112.943 141.219 113.514 140.132 114.398 139.183C115.283 138.234 116.319 137.599 117.505 137.278C118.69 136.917 119.886 136.875 121.093 137.152C122.298 137.389 123.376 137.95 124.325 138.835C125.253 139.701 125.888 140.736 126.23 141.941C126.59 143.126 126.643 144.332 126.386 145.558C126.128 146.745 125.557 147.812 124.672 148.761Z" fill="black"/>
</svg>
