<svg width="541" height="615" viewBox="0 0 541 615" fill="none" xmlns="http://www.w3.org/2000/svg">
<path fill-rule="evenodd" clip-rule="evenodd" d="M246.396 3.13308C230.51 4.10925 217.027 7.8976 201.151 15.8456C196.732 18.0575 187.157 23.4284 184.279 25.3089C183.482 25.8296 182.639 26.3557 182.405 26.4782C182.17 26.6006 181.557 27.0019 181.041 27.3699C180.526 27.7379 179.145 28.6694 177.974 29.4397C173.355 32.4762 169.776 35.0424 163.845 39.5703C161.14 41.6355 160.642 42.0318 158.516 43.8146C157.83 44.3902 156.884 45.1503 156.416 45.5036C155.947 45.8572 154.989 46.6584 154.286 47.2844C153.583 47.9105 152.432 48.9211 151.729 49.5302C151.026 50.1394 150.218 50.8623 149.932 51.1369C149.646 51.4116 148.611 52.3653 147.631 53.2562C144.568 56.0416 137.76 62.7717 134.693 66.0468C133.728 67.0768 126.129 75.709 124.633 77.4742C124.117 78.0825 123.516 78.7722 123.297 79.007C123.078 79.2419 122.71 79.7274 122.478 80.086C122.246 80.4447 121.735 81.0596 121.342 81.4529C120.949 81.846 120.168 82.8111 119.606 83.5974C119.043 84.3836 118.368 85.2651 118.104 85.5561C117.841 85.847 117.497 86.2769 117.34 86.5114C117.182 86.7459 116.401 87.8108 115.603 88.8778C114.805 89.9449 113.867 91.2111 113.519 91.6917C113.17 92.1723 112.727 92.7685 112.534 93.0165C111.944 93.7742 111.388 94.5749 110.896 95.3769C110.638 95.7974 110.287 96.2917 110.117 96.4748C109.946 96.6582 109.806 96.8606 109.806 96.9247C109.806 96.9888 109.212 97.8524 108.486 98.8438C107.759 99.8351 106.858 101.129 106.483 101.719C105.341 103.516 104.21 105.324 103.835 105.953C103.639 106.281 103.311 106.83 103.106 107.173C102.902 107.515 102.437 108.312 102.074 108.943C101.711 109.574 101.201 110.406 100.941 110.793C100.681 111.179 100.328 111.802 100.157 112.178C99.9863 112.553 99.6361 113.177 99.3791 113.564C99.1221 113.951 98.4422 115.179 97.868 116.292C97.2939 117.406 96.7133 118.441 96.5778 118.593C96.4423 118.745 95.996 119.555 95.586 120.392C95.1759 121.23 94.7185 122.017 94.5694 122.141C94.4205 122.265 94.2984 122.512 94.2984 122.69C94.2984 122.868 94.1057 123.319 93.8702 123.692C93.6348 124.066 93.4827 124.371 93.5322 124.371C93.6688 124.371 92.7976 126.036 92.6258 126.103C92.5438 126.135 91.8214 127.505 91.0206 129.146C84.715 142.071 79.5326 155.611 76.2485 167.742C72.056 183.228 70.1008 197.323 70.0996 212.068C70.0989 219.529 70.5173 224.245 71.7377 230.532C72.8401 236.211 75.0402 243.554 76.8642 247.642C79.3603 253.237 83.9568 261.675 87.4751 267.123C87.8536 267.709 88.1634 268.263 88.1634 268.355C88.1634 268.481 85.6758 271.34 85.0902 271.887C84.8561 272.106 79.9629 277.735 77.7519 280.329C61.9492 298.869 46.8222 320.568 36.2709 339.833C35.9156 340.482 35.0968 341.978 34.4514 343.158C33.1382 345.559 27.5333 356.711 26.6445 358.692C26.3288 359.395 25.7858 360.585 25.438 361.335C19.2827 374.613 13.0559 392.334 9.36672 407.07C5.6528 421.906 3.71583 434.112 2.49785 450.356C2.06789 456.091 2.06687 472.331 2.49632 477.046C2.99735 482.548 3.49923 486.221 4.40671 491.03C7.55569 507.713 14.8412 522.722 24.6784 532.789C30.0478 538.284 35.4482 542.358 42.4062 546.164C46.8297 548.584 48.9799 549.44 67.1168 556.008C68.8976 556.652 71.8118 557.71 73.5927 558.359C75.3735 559.007 79.5147 560.512 82.7952 561.702C86.0758 562.893 89.0538 563.98 89.4131 564.118C89.7723 564.257 93.121 565.479 96.8547 566.834C100.588 568.19 103.937 569.412 104.296 569.55C104.656 569.688 107.902 570.873 111.511 572.182C115.119 573.49 127.696 578.069 139.459 582.355C151.222 586.642 161.537 590.399 162.38 590.705C167.303 592.489 176.065 595.679 177.377 596.164C178.221 596.477 181.71 597.745 185.131 598.983C188.552 600.222 191.927 601.536 192.63 601.905C199.649 605.586 204.579 607.551 210.944 609.207C218.484 611.167 225.16 612.003 233.274 612C246.637 611.996 259.086 609.569 275.112 603.845C282.884 601.069 292.959 596.409 302.975 590.958C309.942 587.165 320.277 580.753 328.538 575.096C336.72 569.494 349.408 559.766 355.464 554.452C355.745 554.205 357.279 552.868 358.872 551.481C365.347 545.843 368.825 542.544 376.512 534.745C383.821 527.329 390.411 520.107 395.939 513.456C397.108 512.049 398.108 510.859 398.16 510.812C398.267 510.717 403.338 504.439 405.324 501.944C410.745 495.134 418.89 483.839 424.483 475.375C425.918 473.204 426.954 471.796 427.082 471.842C427.349 471.938 429.92 473.602 438.888 479.483C445.888 484.072 447.244 484.958 454.392 489.615C456.407 490.929 458.316 492.091 458.635 492.198C459.423 492.465 460.761 492.441 461.888 492.141C463.168 491.8 463.711 491.509 471.263 487.109C471.872 486.755 473.636 485.736 475.183 484.846C476.729 483.955 479.72 482.229 481.829 481.009C487.158 477.927 493.557 474.227 497.593 471.896C507.4 466.229 517.058 460.651 521.536 458.067C530.205 453.066 530.003 453.195 531.714 451.565C534.363 449.043 536.183 446.096 537.305 442.511C538.585 438.42 538.395 434.913 536.776 432.79C536.352 432.232 534.8 431.147 519.662 420.818C516.147 418.419 511.584 415.304 509.522 413.894C504.154 410.224 501.422 408.359 496.4 404.934C486.517 398.195 483.217 395.942 481.999 395.103C480.958 394.385 471.465 387.892 470.857 387.482C470.751 387.41 471.02 386.53 471.561 385.18C479.957 364.214 484.902 349.552 491.883 324.925C495.984 310.458 499.451 295.485 502.606 278.624C503.4 274.377 504.824 265.55 505.603 260.035C505.971 257.431 506.154 256.082 506.722 251.764C507.302 247.351 507.237 245.523 506.433 243.732C506.014 242.798 504.742 241.361 504.334 241.361C504.242 241.361 503.858 240.907 503.482 240.352C502.347 238.679 501.124 237.845 498.359 236.857C497.469 236.539 492.599 234.767 487.538 232.918C482.477 231.07 477.53 229.267 476.546 228.912C475.562 228.557 473.05 227.644 470.965 226.884C468.879 226.123 465.467 224.878 463.381 224.118C461.296 223.357 458.784 222.444 457.8 222.09C456.816 221.735 450.604 219.471 443.996 217.059C437.388 214.647 431.176 212.383 430.192 212.027C429.208 211.672 425.834 210.446 422.694 209.304C419.554 208.162 415.72 206.767 414.173 206.205C412.626 205.643 410.978 205.037 410.509 204.859C410.04 204.681 402.563 201.954 393.893 198.8C385.223 195.646 372.455 190.989 365.519 188.45L352.908 183.835L351.033 183.819C348.736 183.8 348.395 183.918 344.898 185.934C343.492 186.744 340.501 188.471 338.252 189.772C333.349 192.606 330.015 194.533 326.237 196.714C324.691 197.607 322.697 198.759 321.806 199.273C320.916 199.788 318.615 201.117 316.694 202.227C313.076 204.318 310.156 206.005 305.191 208.877C303.597 209.798 301.757 210.854 301.101 211.223C300.445 211.593 299.463 212.24 298.92 212.661C298.036 213.347 297.942 213.385 298.021 213.026C298.07 212.805 298.307 211.551 298.548 210.237C300.899 197.43 306.812 185.13 315.781 174.387C322.618 166.2 330.089 159.413 338.763 153.511C342.196 151.176 347.662 147.851 350.054 146.645L350.949 146.194L354.058 147.324C355.769 147.946 357.973 148.745 358.958 149.1C362.841 150.503 379.202 156.463 380.004 156.768C380.473 156.946 382.122 157.551 383.668 158.113C393.324 161.622 400.19 164.125 403.011 165.164C405.817 166.198 406.441 166.368 407.697 166.441C408.547 166.491 409.463 166.443 409.913 166.326C410.334 166.216 411.177 166.05 411.784 165.957C413.943 165.625 415.613 164.825 417.657 163.143C418.834 162.175 419.853 161.007 421.967 158.206C422.739 157.184 425.884 153.035 428.955 148.986C432.025 144.938 437.222 138.082 440.503 133.752C443.783 129.421 447.771 124.163 449.364 122.067C459.337 108.945 459.024 109.383 460.201 106.89C461.008 105.178 461.62 103.078 461.89 101.088C462.256 98.3903 461.812 96.7281 459.343 91.5423C454.284 80.9184 447.245 72.9348 437.946 67.2752C434.585 65.2297 433.799 64.781 431.905 63.831C427.295 61.5174 422.608 59.958 417.318 58.9779C416.094 58.7514 414.561 58.3643 413.909 58.1177C413.257 57.8711 411.344 57.1692 409.657 56.558C407.97 55.9466 405.056 54.8841 403.181 54.1967C401.306 53.5092 397.932 52.2807 395.683 51.4665C393.433 50.6524 390.059 49.4233 388.184 48.7352C384.078 47.2276 375.056 43.9449 363.303 39.6823C358.523 37.9484 354.306 36.411 353.932 36.2657C353.35 36.0401 347.024 33.7303 344.387 32.7811C343.918 32.6123 341.196 31.6182 338.337 30.5718C335.478 29.5255 331.682 28.1462 329.901 27.507C328.12 26.8677 326.357 26.2275 325.982 26.0842C325.607 25.9411 324.035 25.3645 322.488 24.8031C320.942 24.2415 318.104 23.2072 316.183 22.5044C314.261 21.8016 310.849 20.5605 308.599 19.7463C306.35 18.9321 302.975 17.7034 301.101 17.016C299.226 16.3284 295.545 14.985 292.921 14.0307C290.296 13.0765 284.502 10.9673 280.046 9.3436C269.801 5.61084 267.758 4.97047 263.523 4.16263C258.151 3.13752 252.172 2.77802 246.396 3.13308ZM258.752 8.82294C261.955 9.24588 265.292 9.94304 267.954 10.7454C268.751 10.9855 272.24 12.2126 275.708 13.472C279.176 14.7316 282.397 15.9003 282.866 16.0695C284.957 16.8236 291.885 19.3496 292.458 19.5664C292.806 19.6984 294.356 20.2656 295.903 20.8268C297.449 21.3881 299.903 22.2819 301.356 22.8129C302.809 23.3442 308.331 25.3497 313.626 27.27C318.922 29.1902 323.561 30.8796 323.935 31.0242C324.744 31.3368 334.429 34.8625 346.091 39.0897C348.715 40.0411 351.131 40.923 351.459 41.0497C351.787 41.1762 356.005 42.7126 360.832 44.4637C365.659 46.215 369.915 47.7653 370.289 47.9091C370.663 48.0527 372.755 48.8176 374.939 49.6085C377.122 50.3995 379.193 51.1546 379.541 51.2866C379.89 51.4186 381.44 51.9867 382.987 52.5491C384.533 53.1116 387.409 54.1582 389.377 54.8749C391.346 55.5917 394.166 56.6141 395.645 57.1468C397.449 57.7963 398.235 58.1522 398.031 58.227C397.864 58.2884 396.692 58.4283 395.427 58.5378C385.606 59.387 373.624 62.7528 362.203 67.87C348.836 73.8591 332.652 83.8706 318.313 95.0205C315.029 97.5743 309.044 102.539 306.554 104.774C296.691 113.632 288.381 122.078 281.233 130.514C257.33 158.722 239.709 190.606 230.365 222.554C228.021 230.566 225.794 240.925 224.835 248.268C224.749 248.924 224.604 250.037 224.513 250.74C223.029 262.184 222.898 274.995 224.17 284.081C225.108 290.776 227.411 299.562 229.534 304.545C230.992 307.969 234.954 315.658 237.333 319.681C237.763 320.408 238.095 321.002 238.07 321.002C238.046 321.002 232.854 319.116 226.533 316.811C220.212 314.506 214.004 312.248 212.739 311.793C211.474 311.338 209.71 310.699 208.819 310.374C207.929 310.049 205.053 309.003 202.429 308.051C199.804 307.098 197.273 306.172 196.805 305.992C196.031 305.695 171.054 296.598 159.824 292.522C147.778 288.15 138.038 284.602 136.647 284.079C135.804 283.761 133.695 282.99 131.961 282.366C130.227 281.741 128.54 281.126 128.212 280.999C127.884 280.872 125.468 279.99 122.843 279.04C120.219 278.089 117.382 277.06 116.538 276.753C115.694 276.445 114.007 275.834 112.789 275.395C111.57 274.956 110.305 274.495 109.977 274.37C109.649 274.245 106.696 273.169 103.416 271.979C100.135 270.789 96.9079 269.613 96.2438 269.364L95.0365 268.912L93.356 266.349C88.9638 259.651 84.6197 251.823 81.8083 245.539C79.3277 239.995 77.0065 231.256 76.0779 223.966C74.682 213.008 75.4301 198.095 78.1014 183.633C81.3607 165.989 87.3486 148.645 96.5014 130.34C114.94 93.464 141.658 61.9653 174.48 38.4106C189.346 27.7418 204.894 19.1206 217.561 14.5225C227.361 10.9649 234.973 9.35861 246.056 8.50915C248.211 8.34407 256.717 8.55417 258.752 8.82294ZM409.487 64.1884C418.613 65.02 426.094 67.6103 434.409 72.8183C439.685 76.1225 442.746 78.6596 446.378 82.7393C450.33 87.1774 454.357 93.8199 456.781 99.8987C457.289 101.171 457.32 101.367 457.24 102.798C457.101 105.277 456.619 106.2 452.939 111.038C451.678 112.696 446.658 119.31 441.784 125.735C436.91 132.16 431.292 139.564 429.299 142.189C424.703 148.242 419.974 154.489 418.904 155.921C416.581 159.03 414.499 160.344 412.676 159.853C411.81 159.62 411.331 159.062 410.253 157.029C404.93 146.993 398.313 139.811 391.013 136.146C387.543 134.404 383.811 133.393 379.547 133.04C373.221 132.515 365.216 134.25 356.869 137.953C344.312 143.526 329.852 153.584 320.699 163.112C311.429 172.76 306.11 180.09 301.353 189.773C296.752 199.137 294.136 208.318 292.898 219.447C292.46 223.389 292.451 233.552 292.884 236.586C293.903 243.733 295.718 249.944 298.548 255.967C300.803 260.766 306.648 269.323 312.217 275.98C317.014 281.714 321.799 286.66 328.879 293.202C332.96 296.973 338.765 301.552 350.181 310.003C351.681 311.113 353.751 312.647 354.782 313.411C359.096 316.609 360.377 317.535 366.797 322.092C376.846 329.225 386.645 336.188 394.66 341.891C398.597 344.692 405.077 349.296 409.06 352.122C413.044 354.948 418.035 358.493 420.151 360C422.267 361.508 424.174 362.835 424.388 362.95C425.051 363.305 426.358 363.193 427.254 362.705C428.631 361.955 430.136 360.341 430.923 358.772C431.709 357.203 436.468 341.476 438.713 333.025C443.171 316.245 446.523 299.894 449.189 281.928C449.745 278.183 450.202 276.869 451.594 275.027C452.843 273.374 452.831 273.382 459.334 269.629C461.536 268.357 465.831 265.878 468.877 264.12C471.923 262.361 476.122 259.936 478.208 258.731C483.063 255.924 488.504 252.781 493.673 249.796C498.769 246.854 498.844 246.818 499.86 246.818C500.903 246.818 501.728 247.334 502.166 248.26C502.691 249.37 502.64 250.125 501.429 259.182C499.693 272.166 496.136 291.43 493.229 303.597C490.948 313.144 488.911 320.924 486.507 329.274C485.697 332.087 484.858 335.004 484.644 335.754C484.024 337.922 482.852 341.853 482.686 342.32C482.602 342.554 482.141 344.012 481.66 345.56C477.974 357.423 472.383 373.022 467.845 384.102C466.354 387.743 466.146 388.458 466.13 389.994C466.108 392.063 466.422 392.472 469.729 394.677C470.62 395.271 472.805 396.754 474.586 397.972C480.979 402.346 485.877 405.693 488.346 407.375C489.727 408.316 491.529 409.546 492.35 410.107C496.829 413.173 505.029 418.769 506.88 420.025C508.052 420.819 510.046 422.177 511.311 423.042C518.112 427.689 529.824 435.686 531.111 436.56C533.102 437.913 533.466 438.484 533.466 440.26C533.466 442.676 532.478 445.042 530.671 446.952C529.684 447.995 528.513 448.764 524.244 451.166C523.833 451.398 522.576 452.121 521.451 452.773C520.326 453.425 517.834 454.867 515.913 455.977C509.932 459.431 500.665 464.787 494.312 468.459C490.961 470.396 487.261 472.533 486.089 473.208C482.946 475.019 478.571 477.544 476.631 478.668C475.694 479.212 473.968 480.209 472.797 480.885C471.625 481.561 469.44 482.824 467.94 483.692C463.054 486.518 463.445 486.334 462.317 486.337C461.323 486.34 461.235 486.302 459.249 484.989C457.331 483.721 445.372 475.893 440.843 472.939C439.719 472.206 436.805 470.298 434.368 468.7C430.053 465.871 429.913 465.795 429.036 465.792C427.915 465.789 426.738 466.354 425.545 467.467C425.007 467.969 423.45 470.123 421.335 473.294C415.17 482.535 409.456 490.434 402.768 498.96C400.755 501.526 394.004 509.781 392.907 511.016C392.632 511.326 391.345 512.808 390.048 514.308C388.751 515.809 387.41 517.344 387.069 517.719C386.727 518.094 385.652 519.284 384.678 520.362C379.631 525.955 370.728 535.075 365.604 539.901C363.236 542.131 358.825 546.064 355.344 549.048C331.26 569.693 303.892 586.973 280.31 596.424C277.438 597.575 276.607 597.884 272.982 599.149C268.683 600.649 261.563 602.696 258.155 603.412C256.117 603.841 254.654 604.135 253.895 604.268C253.426 604.351 252.391 604.534 251.594 604.674C245.212 605.799 237 606.336 231.433 605.994C222.598 605.451 215.698 604.173 208.308 601.712C198.025 598.286 187.963 591.959 180.613 584.296C175.442 578.904 170.413 570.812 167.076 562.511C163.447 553.483 161.375 544.152 160.304 532.005C159.934 527.802 159.88 512.642 160.219 507.913C160.819 499.537 161.591 492.001 162.29 487.704C163.407 480.835 163.808 478.57 164.535 474.999C165.355 470.971 165.826 468.886 166.904 464.511C171.228 446.957 178.393 427.582 186.898 410.45C191.131 401.924 195.44 394.159 200.954 385.125C211.554 367.759 226.535 347.735 240.677 332.032C242 330.562 243.386 328.927 243.757 328.398C245.084 326.502 245.87 323.565 245.493 321.912C245.404 321.521 244.489 319.833 243.459 318.16C238.166 309.562 234.327 301.913 232.396 296.115C229.208 286.543 227.909 278.24 227.912 267.453C227.916 253.595 229.749 240.328 233.757 225.16C235.493 218.589 238.768 208.966 241.708 201.796C244.303 195.468 249.463 184.582 252.541 178.944C257.594 169.687 262.732 161.37 268.118 153.729C269.2 152.195 270.2 150.772 270.34 150.567C270.481 150.362 270.794 149.929 271.036 149.604C271.279 149.28 272.043 148.247 272.734 147.309C275.135 144.052 280.788 136.951 283.394 133.921C299.517 115.168 317.773 99.3436 338.422 86.2232C345.286 81.862 350.862 78.6994 356.827 75.7835C361.917 73.296 363.157 72.7442 367.393 71.0816C377.415 67.1483 385.952 65.1197 396.109 64.2585C401.113 63.8342 405.354 63.8119 409.487 64.1884ZM379.408 139.223C388.21 140.584 395.395 145.579 401.834 154.813C403.526 157.239 405.221 159.99 405.099 160.112C405.057 160.155 403.994 159.814 402.738 159.356C401.482 158.898 398.63 157.859 396.401 157.047C394.172 156.236 392.063 155.463 391.715 155.329C391.135 155.107 384.053 152.53 379.749 150.974C378.764 150.619 376.809 149.909 375.403 149.397C373.997 148.885 371.428 147.95 369.694 147.32C367.96 146.691 365.314 145.727 363.814 145.178C362.315 144.629 360.38 143.925 359.514 143.613C358.649 143.301 357.939 142.998 357.938 142.94C357.934 142.805 360.593 141.791 362.755 141.101C366.32 139.965 370.102 139.187 373.102 138.974C374.452 138.878 378.113 139.023 379.408 139.223ZM354.309 190.095C358.461 191.588 368.611 195.278 369.404 195.582C369.76 195.719 373.134 196.95 376.902 198.318C380.67 199.686 385.325 201.38 387.247 202.083C389.168 202.785 392.006 203.819 393.552 204.38C395.099 204.941 396.748 205.546 397.216 205.723C397.685 205.901 401.059 207.131 404.715 208.456C408.37 209.782 412.895 211.428 414.769 212.116C417.773 213.217 419.54 213.861 426.017 216.211C438.11 220.599 442.863 222.33 443.57 222.603C444.039 222.784 450.25 225.048 457.374 227.633C464.497 230.218 470.709 232.479 471.178 232.657C471.646 232.835 473.314 233.447 474.884 234.016C481.98 236.589 483.486 237.136 484.044 237.346C484.372 237.469 487.44 238.586 490.861 239.827C494.282 241.068 497.143 242.14 497.219 242.209C497.294 242.278 495.722 243.279 493.725 244.433C487.187 248.212 481.622 251.431 478.847 253.039C477.347 253.908 475.123 255.194 473.905 255.896C472.686 256.599 469.197 258.615 466.15 260.375C463.104 262.136 459.078 264.457 457.204 265.533C455.329 266.61 453.188 267.955 452.445 268.524L451.096 269.558L449.634 269.032C447.153 268.14 439.782 265.457 428.659 261.398C422.8 259.261 416.857 257.099 415.451 256.594C414.045 256.09 412.511 255.531 412.043 255.352C411.574 255.173 409.925 254.568 408.379 254.007C406.832 253.446 403.995 252.412 402.073 251.709C400.152 251.006 396.739 249.765 394.49 248.951C392.24 248.136 388.866 246.907 386.991 246.219C385.117 245.531 381.781 244.315 379.578 243.517C377.375 242.719 373.234 241.211 370.376 240.166C367.517 239.122 364.679 238.089 364.07 237.872C363.461 237.655 355.792 234.863 347.028 231.668C338.265 228.472 329.484 225.273 327.515 224.558C323.454 223.083 318.962 221.444 316.95 220.704C316.2 220.428 312.993 219.259 309.824 218.106C306.655 216.953 304.047 215.952 304.03 215.882C304.012 215.811 305.992 214.601 308.429 213.192C310.866 211.783 314.393 209.744 316.268 208.66C318.142 207.576 320.635 206.136 321.806 205.46C322.978 204.784 324.665 203.81 325.556 203.295C326.446 202.781 328.747 201.451 330.668 200.341C332.59 199.232 335.772 197.392 337.741 196.255C350.819 188.694 350.219 189.024 350.901 189.012C351.109 189.008 352.643 189.496 354.309 190.095ZM306.639 222.642C319.159 227.207 322.127 228.288 325.47 229.503C326.689 229.945 329.258 230.879 331.179 231.579C333.101 232.279 338.584 234.271 343.364 236.006C348.145 237.74 352.362 239.278 352.736 239.423C353.11 239.567 355.202 240.333 357.385 241.124C359.569 241.915 361.64 242.672 361.988 242.805C362.337 242.939 364.347 243.674 366.456 244.438C368.565 245.202 372.399 246.596 374.977 247.536C377.554 248.476 380.469 249.535 381.453 249.889C384.988 251.163 401.665 257.237 402.499 257.555C402.968 257.734 404.655 258.351 406.249 258.926C407.842 259.502 409.529 260.119 409.998 260.296C410.466 260.474 412.537 261.229 414.599 261.973C416.661 262.718 422.068 264.685 426.614 266.344C431.159 268.003 435.914 269.732 437.179 270.185C441.204 271.625 447.472 273.944 447.548 274.021C447.589 274.061 447.273 274.814 446.846 275.692C445.57 278.315 445.237 279.619 444.415 285.189C441.175 307.17 436.185 329.088 429.565 350.42C428.954 352.39 428.274 354.596 428.055 355.321C427.835 356.047 427.593 356.752 427.517 356.887C427.372 357.147 427.963 357.562 384.456 326.616C382.687 325.358 380.962 324.13 380.622 323.889C380.282 323.647 379.084 322.798 377.959 322.002C370.063 316.413 364.372 312.358 362.622 311.073C361.497 310.248 359.925 309.096 359.128 308.514C354.936 305.453 341.897 295.664 340.126 294.248C331.116 287.047 321.116 277.164 314.57 268.988C309.944 263.209 305.191 256.188 303.164 252.138C301.483 248.78 299.608 243.636 298.72 239.949C297.657 235.534 297.262 232.523 297.144 227.943C297.064 224.829 297.103 223.735 297.363 221.756C297.628 219.731 297.719 219.369 297.941 219.459C298.085 219.517 302 220.95 306.639 222.642ZM94.4022 274.384C95.3293 274.718 96.778 275.243 97.6216 275.55C98.4652 275.857 102.236 277.229 106.001 278.598C109.765 279.967 113.14 281.199 113.499 281.336C113.858 281.472 115.456 282.055 117.049 282.631C118.643 283.207 120.33 283.823 120.798 284.001C121.267 284.179 127.479 286.44 134.602 289.026C141.726 291.612 147.938 293.875 148.406 294.054C148.875 294.234 150.231 294.729 151.421 295.154C152.61 295.58 153.875 296.039 154.233 296.174C154.59 296.31 156.147 296.881 157.694 297.443C159.24 298.005 163.075 299.4 166.215 300.542C169.355 301.684 174.876 303.688 178.485 304.997C182.094 306.305 185.429 307.523 185.898 307.704C186.601 307.974 202.428 313.746 206.263 315.13C206.872 315.35 208.828 316.06 210.609 316.707C212.39 317.354 216.531 318.859 219.811 320.051C223.092 321.243 226.351 322.433 227.054 322.696C227.757 322.958 230.843 324.085 233.912 325.2C236.981 326.315 239.493 327.293 239.494 327.373C239.494 327.453 238.856 328.221 238.076 329.078C237.296 329.936 235.28 332.249 233.596 334.219C212.811 358.534 196.455 382.89 183.614 408.653C179.409 417.088 176.195 424.377 172.745 433.299C163.584 456.993 158.018 480.661 156.081 504.161C155.485 511.393 155.406 513.533 155.407 522.494C155.407 531.875 155.516 534.187 156.245 540.401C157.971 555.095 162.04 567.733 168.52 578.52C170.65 582.065 173.96 586.521 176.331 589.034C177.067 589.815 177.591 590.454 177.494 590.454C177.338 590.454 172.085 588.573 169.879 587.727C169.41 587.547 166.918 586.637 164.34 585.704C157.309 583.16 151.122 580.909 141.163 577.268C139.242 576.566 136.251 575.481 134.517 574.858C132.783 574.235 130.981 573.577 130.512 573.397C129.539 573.022 122.697 570.528 117.901 568.799C116.12 568.158 113.628 567.252 112.363 566.788C111.097 566.323 108.643 565.43 106.909 564.803C105.175 564.175 103.488 563.559 103.16 563.434C102.832 563.308 98.2095 561.622 92.8876 559.687C87.5657 557.752 82.9261 556.059 82.5773 555.925C82.2286 555.791 80.5244 555.17 78.7904 554.546C77.0566 553.921 75.3694 553.307 75.0412 553.182C74.7132 553.056 72.2975 552.179 69.673 551.232C67.0486 550.285 64.5179 549.364 64.0493 549.185C63.5806 549.006 61.0882 548.096 58.5107 547.161C51.7268 544.702 50.5595 544.231 47.3449 542.646C34.5138 536.323 25.1041 527.409 18.5338 515.353C12.4777 504.24 9.11246 491.874 7.78422 475.852C7.3834 471.016 7.38663 457.931 7.79035 451.806C8.54462 440.36 9.88496 430.062 11.9194 420.086C19.1324 384.714 33.7147 350.964 56.2104 317.576C66.089 302.915 78.7911 286.704 89.8333 274.666L91.4301 272.925L92.0735 273.351C92.4272 273.585 93.4752 274.05 94.4022 274.384ZM278.139 359.291C277.014 359.704 276.11 360.467 273.152 363.494C261.597 375.321 252.399 386.801 245.049 398.569C237.546 410.582 232.41 421.645 228.659 433.872C225.796 443.201 224.22 451.655 223.103 463.658C222.797 466.954 222.798 481.14 223.105 484.038C223.879 491.354 224.694 495.796 226.173 500.78C228.775 509.543 233.605 517.346 239.466 522.255C253.673 534.154 274.993 534.037 301.912 521.914C327.929 510.197 351.006 492.527 370.646 469.286C378.117 460.445 388.035 447.178 389.386 444.217C390.386 442.027 390.564 440.193 389.91 438.825C389.597 438.17 389.641 438.202 375.999 428.498C369.429 423.824 359.672 416.882 349.073 409.341C345.558 406.84 337.736 401.277 331.691 396.978C325.645 392.68 318.36 387.499 315.501 385.465C312.642 383.431 307.734 379.942 304.594 377.71C300.026 374.464 292.891 369.185 289.032 366.195C287.52 365.024 284.028 362.219 282.42 360.884C280.081 358.943 279.586 358.759 278.139 359.291ZM278.616 366.164C281.202 368.336 285.989 372.103 290.279 375.343C294.844 378.79 296.286 379.829 312.859 391.604C317.921 395.201 323.404 399.102 325.044 400.275C326.685 401.448 330.097 403.875 332.628 405.669C337.236 408.935 351.38 418.994 365.604 429.121C369.775 432.091 375.972 436.5 379.375 438.92C383.182 441.627 385.531 443.404 385.481 443.536C385.308 443.985 381.948 448.665 378.379 453.426C367.023 468.573 356.288 480.058 343.705 490.519C326.086 505.168 303.933 517.364 285.678 522.466C265.547 528.092 248.99 524.681 239.131 512.878C233.205 505.783 229.751 497.001 228.158 484.976C227.135 477.259 227.169 465.262 228.241 455.899C228.473 453.869 229.054 449.78 229.27 448.651C229.825 445.755 230.335 443.228 230.545 442.341C231.483 438.377 231.844 437.002 232.761 433.899C238.718 413.752 251.473 392.593 269.305 373.279C272.516 369.801 277.04 365.172 277.227 365.172C277.341 365.172 277.966 365.619 278.616 366.164Z" fill="black" stroke="black" stroke-width="4.08938"/>
</svg>
