<svg width="819" height="820" viewBox="0 0 819 820" fill="none" xmlns="http://www.w3.org/2000/svg">
<path d="M290.091 46.4699C282.643 48.8263 278.597 46.0514 276.229 38.5644L271.504 23.629L275.113 22.4872L279.923 37.6915C281.526 42.7595 284.193 44.9147 289.107 43.3599C294.022 41.8052 294.964 38.5083 293.361 33.4402L288.551 18.236L292.16 17.0943L296.885 32.0297C299.253 39.5166 297.578 44.1013 290.091 46.4699Z" fill="black"/>
<path d="M309.881 33.7372L313.069 31.9455C314.61 34.5703 317.927 35.1849 320.794 34.5386C323.937 33.8302 326.617 31.6163 325.908 28.4736C325.377 26.1165 323.383 25.3276 318.164 25.4307C313.923 25.4784 308.275 25.5129 306.973 19.7381C305.973 15.299 310.181 11.626 315.013 10.5369C318.706 9.70457 322.823 10.3866 325.234 13.3932L322.077 15.1368C320.639 13.5207 317.952 13.1357 315.556 13.6758C312.688 14.3221 310.2 16.2865 310.819 19.0364C311.483 21.9827 314.816 21.9334 318.559 21.874C323.338 21.829 328.549 22.0579 329.833 27.7541C330.931 32.6254 326.483 36.5175 321.337 37.6775C317.016 38.6515 312.212 37.6701 309.881 33.7372Z" fill="black"/>
<path d="M340.738 32.8046L347.058 4.73301L351.247 4.1536L364.911 29.4605L360.922 30.0123L358.082 24.4698L345.955 26.1473L344.727 32.2527L340.738 32.8046ZM349.657 8.23562L346.665 22.7562L356.478 21.3987L349.657 8.23562Z" fill="black"/>
<path d="M375 28.2823L373.551 1.42107L384.367 0.837349C390.198 0.522702 392.867 3.64529 393.051 7.06327C393.166 9.19447 392.283 11.5006 390.556 13.1262C393.286 14.3904 394.751 16.8924 394.89 19.4659C395.099 23.3262 392.331 27.3471 386.46 27.6639L375 28.2823ZM378.112 15.6932L378.609 24.9016L386.691 24.4655C389.667 24.3049 391.109 21.888 390.983 19.5557C390.86 17.2637 389.21 15.0943 386.154 15.2592L378.112 15.6932ZM384.941 3.99235L377.502 4.3938L377.951 12.7176L385.39 12.3161C388.125 12.1686 389.381 10.044 389.27 7.99322C389.158 5.90223 387.635 3.84697 384.941 3.99235Z" fill="black"/>
<path d="M407.255 23.9149L411.04 23.9958L411.487 3.06019L407.703 2.9793L407.766 0L419.12 0.242677L419.056 3.22197L415.272 3.14108L414.824 24.0767L418.609 24.1576L418.545 27.1369L407.191 26.8942L407.255 23.9149Z" fill="black"/>
<path d="M431.18 27.5127L433.559 0.717789L437.329 1.0526L435.239 24.5984L449.639 25.8771L449.35 29.1262L431.18 27.5127Z" fill="black"/>
<path d="M460.192 27.3896L463.929 27.9888L467.244 7.31232L463.506 6.7132L463.978 3.77079L475.191 5.56815L474.719 8.51056L470.981 7.91144L467.667 28.5879L471.405 29.187L470.933 32.1294L459.72 30.3321L460.192 27.3896Z" fill="black"/>
<path d="M486.814 10.7399L487.554 7.56308L508.655 12.4774L507.915 15.6542L499.208 13.6264L493.846 36.6487L490.159 35.7901L495.521 12.7678L486.814 10.7399Z" fill="black"/>
<path d="M517.393 14.5727L521.349 15.8206L524.541 30.4665L535.52 20.2912L539.476 21.5391L525.304 34.3387L522.166 44.2854L518.556 43.1465L521.694 33.1999L517.393 14.5727Z" fill="black"/>
<path d="M560.871 47.4012C562.388 44.0214 566.327 42.5235 569.707 44.041C573.087 45.5585 574.585 49.4976 573.067 52.8774C571.566 56.2205 567.611 57.7551 564.231 56.2376C560.851 54.7201 559.37 50.7442 560.871 47.4012Z" fill="black"/>
<path d="M592.611 73.7871L615.168 55.9218L618.79 58.103L613.517 86.3757L610.067 84.2984L611.341 78.2022L600.853 71.8871L596.061 75.8644L592.611 73.7871ZM614.988 60.2793L603.536 69.6951L612.023 74.8054L614.988 60.2793Z" fill="black"/>
<path d="M635.856 68.5928L639.226 71.0106L632.05 93.5175L651.104 79.5316L654.474 81.9494L631.268 98.4079L627.668 95.8258L635.856 68.5928Z" fill="black"/>
<path d="M644.459 107.837L669.589 93.821L672.815 96.555L663.075 123.616L660.003 121.012L662.238 115.199L652.899 107.284L647.531 110.441L644.459 107.837ZM668.713 98.0934L655.899 105.55L663.456 111.956L668.713 98.0934Z" fill="black"/>
<path d="M672.702 128.329L675.401 130.983L690.084 116.054L687.386 113.4L689.475 111.275L697.572 119.238L695.482 121.363L692.783 118.709L678.099 133.638L680.798 136.292L678.709 138.417L670.612 130.454L672.702 128.329Z" fill="black"/>
<path d="M687.931 147.695L708.038 129.825L710.553 132.655L692.884 148.358L702.488 159.164L700.05 161.331L687.931 147.695Z" fill="black"/>
<path d="M705.271 167.174L732.886 159.088L735.424 162.47L719.919 186.693L717.501 183.472L720.971 178.3L713.623 168.509L707.688 170.395L705.271 167.174ZM731.083 163.059L716.933 167.485L722.879 175.408L731.083 163.059Z" fill="black"/>
<path d="M725.983 195.196L748.771 180.902L754.527 190.079C757.63 195.025 756.194 198.873 753.294 200.692C751.486 201.826 749.041 202.172 746.781 201.45C747 204.45 745.523 206.946 743.339 208.315C740.064 210.369 735.206 209.899 732.082 204.919L725.983 195.196ZM738.502 191.812L730.69 196.712L734.991 203.569C736.574 206.094 739.387 206.183 741.366 204.942C743.31 203.722 744.408 201.228 742.781 198.635L738.502 191.812ZM752.046 192.11L748.088 185.799L741.026 190.229L744.985 196.54C746.44 198.859 748.907 198.928 750.647 197.837C752.421 196.724 753.48 194.396 752.046 192.11Z" fill="black"/>
<path d="M745.251 221.035L747.025 224.38L765.525 214.57L763.752 211.226L766.385 209.83L771.704 219.863L769.072 221.259L767.298 217.915L748.798 227.724L750.571 231.068L747.938 232.464L742.619 222.431L745.251 221.035Z" fill="black"/>
<path d="M753.929 244.139L778.511 233.212L780.048 236.671L758.448 246.273L764.32 259.483L761.339 260.808L753.929 244.139Z" fill="black"/>
<path d="M768.553 270.604L769.833 274.167L789.539 267.085L788.259 263.523L791.064 262.515L794.904 273.202L792.1 274.21L790.82 270.647L771.113 277.729L772.393 281.291L769.589 282.299L765.748 271.612L768.553 270.604Z" fill="black"/>
<path d="M795.876 285.655L799.011 284.755L804.986 305.58L801.851 306.48L799.385 297.887L776.663 304.406L775.619 300.767L798.341 294.248L795.876 285.655Z" fill="black"/>
<path d="M807.423 314.437L808.242 318.503L796.961 328.373L811.175 333.07L811.993 337.137L793.939 330.912L783.715 332.971L782.968 329.26L793.192 327.201L807.423 314.437Z" fill="black"/>
<path d="M799.706 368.283C803.399 367.986 806.609 370.716 806.907 374.409C807.204 378.102 804.473 381.312 800.78 381.61C797.128 381.904 793.878 379.176 793.58 375.483C793.282 371.79 796.054 368.578 799.706 368.283Z" fill="black"/>
<path d="M791.808 411.179L818.687 412.257L818.393 419.581C818.051 428.111 814.625 434.14 804.405 433.73C794.104 433.317 791.172 427.033 791.514 418.502L791.808 411.179ZM815.356 415.912L794.835 415.089L794.696 418.55C794.473 424.102 795.385 429.499 804.56 429.867C813.653 430.232 814.995 424.925 815.217 419.373L815.356 415.912Z" fill="black"/>
<path d="M816.851 447.747L814.631 465.854L811.394 465.457L813.153 451.107L805.039 450.113L803.74 460.705L800.502 460.308L801.801 449.716L792.927 448.628L791.168 462.978L787.931 462.581L790.15 444.474L816.851 447.747Z" fill="black"/>
<path d="M812.687 479.575L811.537 485.053L786.638 492.338L809.024 497.034L808.247 500.739L781.919 495.216L783.06 489.777L808.087 482.477L785.583 477.756L786.36 474.051L812.687 479.575Z" fill="black"/>
<path d="M781.796 508.316L780.737 511.95L800.84 517.811L801.9 514.177L804.761 515.011L801.582 525.914L798.721 525.08L799.781 521.445L779.677 515.584L778.618 519.218L775.757 518.384L778.936 507.482L781.796 508.316Z" fill="black"/>
<path d="M772.979 528.383L794.697 547.259L793.221 551.221L764.461 551.251L765.866 547.478L772.093 547.605L776.366 536.133L771.573 532.156L772.979 528.383ZM790.381 547.886L779.015 538.366L775.557 547.65L790.381 547.886Z" fill="black"/>
<path d="M760.595 560.935L784.931 572.397L780.315 582.197C777.827 587.479 773.812 588.348 770.716 586.89C768.785 585.98 767.173 584.109 766.561 581.817C764.154 583.621 761.256 583.725 758.924 582.627C755.427 580.979 753.199 576.636 755.704 571.317L760.595 560.935ZM770.203 569.644L761.86 565.715L758.411 573.037C757.141 575.733 758.585 578.149 760.698 579.144C762.775 580.123 765.467 579.699 766.771 576.93L770.203 569.644ZM777.265 581.206L780.44 574.466L772.899 570.914L769.724 577.654C768.557 580.131 769.832 582.245 771.69 583.12C773.584 584.012 776.116 583.647 777.265 581.206Z" fill="black"/>
<path d="M749.327 591.045L747.469 594.343L765.716 604.618L767.573 601.32L770.169 602.782L764.597 612.677L762.001 611.215L763.858 607.917L745.612 597.641L743.755 600.94L741.158 599.478L746.73 589.583L749.327 591.045Z" fill="black"/>
<path d="M734.593 610.88L757.062 625.669L754.981 628.831L735.236 615.835L727.288 627.911L724.563 626.118L734.593 610.88Z" fill="black"/>
<path d="M721.092 636.339L718.796 639.349L735.446 652.048L737.741 649.039L740.111 650.846L733.224 659.875L730.854 658.068L733.15 655.058L716.5 642.358L714.204 645.368L711.835 643.561L718.722 634.531L721.092 636.339Z" fill="black"/>
<path d="M723.692 667.026L726.149 669.171L711.898 685.49L709.441 683.344L715.321 676.611L697.516 661.062L700.006 658.211L717.811 673.76L723.692 667.026Z" fill="black"/>
<path d="M705.357 692.848L702.383 695.739L687.975 691.607L691.73 706.098L688.756 708.99L684.203 690.444L676.932 682.966L679.646 680.327L686.917 687.805L705.357 692.848Z" fill="black"/>
<path d="M656.292 715.261C658.549 718.199 658.002 722.377 655.064 724.634C652.126 726.892 647.948 726.344 645.691 723.406C643.458 720.5 643.981 716.29 646.919 714.033C649.857 711.775 654.06 712.355 656.292 715.261Z" fill="black"/>
<path d="M618.728 730.26L623.834 758.578L620.201 760.742L597.763 742.751L601.223 740.69L605.997 744.689L616.514 738.423L615.269 732.321L618.728 730.26ZM620.077 756.363L617.18 741.823L608.669 746.894L620.077 756.363Z" fill="black"/>
<path d="M600.187 772.263L595.144 774.693L574.186 759.403L584.116 780.008L580.706 781.651L569.028 757.418L574.034 755.006L595.081 770.388L585.098 749.673L588.508 748.03L600.187 772.263Z" fill="black"/>
<path d="M562.428 775.344C565.253 782.929 562.711 790.064 555.466 792.763C548.182 795.476 541.592 791.742 538.767 784.157C535.927 776.534 538.455 769.362 545.739 766.649C552.984 763.95 559.589 767.721 562.428 775.344ZM558.805 776.693C556.373 770.165 551.415 767.929 546.849 769.63C542.245 771.345 539.958 776.279 542.39 782.808C544.807 789.299 549.751 791.497 554.355 789.782C558.922 788.081 561.223 783.184 558.805 776.693Z" fill="black"/>
<path d="M529.481 801.492L524.077 802.953L506.29 784.066L512.259 806.147L508.605 807.135L501.585 781.167L506.95 779.716L524.807 798.709L518.807 776.512L522.461 775.524L529.481 801.492Z" fill="black"/>
<path d="M496.979 810.146L492.898 810.887L483.245 799.418L478.277 813.54L474.196 814.28L480.765 796.349L478.903 786.086L482.627 785.411L484.489 795.673L496.979 810.146Z" fill="black"/>
<path d="M461.907 816.401L455.65 816.953L446.577 795.681L441.369 818.213L435.111 818.765L432.747 791.969L436.518 791.636L438.535 814.501L444.26 790.953L447.99 790.624L457.79 812.802L455.773 789.937L459.543 789.605L461.907 816.401Z" fill="black"/>
<path d="M419.028 795.576L415.243 795.58L415.267 816.52L419.052 816.516L419.056 819.496L407.7 819.509L407.696 816.529L411.482 816.525L411.458 795.584L407.672 795.589L407.669 792.609L419.025 792.596L419.028 795.576Z" fill="black"/>
<path d="M396.813 816.338L396.597 819.593L374.979 818.159L375.195 814.905L384.115 815.496L385.68 791.91L389.457 792.16L387.892 815.747L396.813 816.338Z" fill="black"/>
<path d="M366.181 817.591L362.076 816.995L356.572 803.052L347.37 814.86L343.266 814.264L355.196 799.353L356.695 789.031L360.441 789.575L358.942 799.897L366.181 817.591Z" fill="black"/>
<path d="M317.843 792.263C316.885 795.842 313.235 797.949 309.656 796.99C306.078 796.031 303.97 792.382 304.929 788.803C305.878 785.263 309.538 783.117 313.116 784.076C316.695 785.035 318.792 788.723 317.843 792.263Z" fill="black"/>
<path d="M269.516 765.77C276.653 768.638 278.677 775.7 275.629 783.286C272.506 791.058 265.891 794.346 258.828 791.508C254.643 789.827 251.904 786.383 251.642 782.067L255.156 782.177C255.376 784.87 256.95 787.325 260.201 788.631C264.61 790.403 269.429 788.346 272.042 781.844C274.564 775.567 272.777 770.509 268.106 768.632C264.855 767.326 262.035 767.972 259.961 769.786L257.347 767.434C260.627 764.456 265.107 763.999 269.516 765.77Z" fill="black"/>
<path d="M242.851 769.949C239.165 777.155 232.186 780.098 225.302 776.577C218.383 773.037 216.686 765.655 220.373 758.449C224.078 751.207 231.075 748.228 237.994 751.768C244.878 755.29 246.556 762.707 242.851 769.949ZM239.41 768.188C242.583 761.986 240.883 756.82 236.546 754.6C232.172 752.363 226.988 754.008 223.815 760.21C220.66 766.376 222.377 771.507 226.751 773.745C231.089 775.964 236.255 774.355 239.41 768.188Z" fill="black"/>
<path d="M202.134 763.781L197.403 760.789L199.281 734.914L187.056 754.247L183.856 752.224L198.233 729.487L202.93 732.458L201.022 758.456L213.311 739.022L216.511 741.045L202.134 763.781Z" fill="black"/>
<path d="M172.426 744.616L158.453 734.119L160.412 731.511L171.359 739.735L176.269 733.199L165.322 724.975L167.281 722.367L178.228 730.591L185.557 720.835L188.584 723.109L172.426 744.616Z" fill="black"/>
<path d="M163.617 707.803L160.757 705.323L147.041 721.147L149.902 723.626L147.95 725.878L139.369 718.44L141.321 716.188L144.181 718.667L157.897 702.844L155.036 700.365L156.988 698.113L165.569 705.551L163.617 707.803Z" fill="black"/>
<path d="M147.783 690.23L128.707 709.197L123.54 703.999C117.52 697.945 115.432 691.333 122.685 684.121C129.996 676.852 136.596 678.979 142.616 685.032L147.783 690.23ZM128.294 704.269L142.858 689.789L140.416 687.333C136.498 683.392 131.922 680.389 125.411 686.863C118.957 693.28 121.934 697.873 125.853 701.813L128.294 704.269Z" fill="black"/>
<path d="M104.275 684.268L92.5189 670.32L95.013 668.217L104.33 679.272L110.581 674.004L103.703 665.844L106.198 663.742L113.075 671.902L119.911 666.14L110.594 655.086L113.088 652.984L124.844 666.933L104.275 684.268Z" fill="black"/>
<path d="M82.7248 658.379L79.5022 653.802L91.1566 630.624L72.4542 643.793L70.2749 640.698L92.2699 625.21L95.4693 629.754L83.7394 653.035L102.541 639.797L104.72 642.892L82.7248 658.379Z" fill="black"/>
<path d="M65.7234 628.245L62.9085 629.893L51.9622 611.197L54.7771 609.548L59.294 617.263L79.6933 605.32L81.6059 608.587L61.2065 620.53L65.7234 628.245Z" fill="black"/>
<path d="M67.9888 590.795L66.3062 587.404L47.5484 596.712L49.231 600.103L46.5616 601.428L41.5137 591.255L44.1831 589.931L45.8657 593.322L64.6235 584.013L62.9409 580.622L65.6103 579.298L70.6582 589.47L67.9888 590.795Z" fill="black"/>
<path d="M60.7631 569.914L32.0005 570.734L30.4029 566.819L51.543 547.319L53.0645 551.048L48.3968 555.171L53.0221 566.505L59.2416 566.185L60.7631 569.914ZM34.7514 567.35L49.5607 566.656L45.8179 557.484L34.7514 567.35Z" fill="black"/>
<path d="M47.5624 536.854L21.9149 544.968L20.7731 541.359L43.3107 534.229L38.9502 520.446L42.0601 519.462L47.5624 536.854Z" fill="black"/>
<path d="M36.1243 509.829L35.2354 506.15L14.8806 511.068L15.7696 514.747L12.873 515.447L10.206 504.409L13.1027 503.709L13.9916 507.388L34.3464 502.47L33.4574 498.791L36.354 498.091L39.021 509.13L36.1243 509.829Z" fill="black"/>
<path d="M10.4972 491.978L7.28122 492.524L3.65813 471.164L6.87406 470.618L8.36909 479.432L31.6747 475.479L32.3077 479.211L9.00212 483.164L10.4972 491.978Z" fill="black"/>
<path d="M2.32573 463.957L1.94551 459.826L14.215 451.216L0.583348 445.029L0.203125 440.899L17.4902 449.013L27.8762 448.057L28.2232 451.827L17.8372 452.783L2.32573 463.957Z" fill="black"/>
<path d="M15.5922 409.203C11.889 409.096 8.99622 406.032 9.10314 402.328C9.21006 398.625 12.2748 395.732 15.9781 395.839C19.6411 395.945 22.5741 399.011 22.4672 402.714C22.3603 406.418 19.2553 409.309 15.5922 409.203Z" fill="black"/>
<path d="M27.6841 370.132L2.52664 356.165L3.14958 351.983L31.2794 345.995L30.6861 349.978L24.5683 351.143L22.7647 363.251L28.2774 366.149L27.6841 370.132ZM6.61905 354.658L19.7105 361.616L21.17 351.817L6.61905 354.658Z" fill="black"/>
<path d="M35.5462 327.01C33.7462 334.612 29.2885 336.66 21.6471 334.851L6.40349 331.242L7.27563 327.558L22.7935 331.232C27.9661 332.457 31.1845 331.274 32.3721 326.258C33.5596 321.242 31.2135 318.742 26.0408 317.517L10.523 313.843L11.3951 310.159L26.6387 313.768C34.2801 315.578 37.3554 319.368 35.5462 327.01Z" fill="black"/>
<path d="M17.8589 297.812L14.7591 296.797L21.5029 276.208L24.6027 277.223L21.8199 285.719L44.2841 293.077L43.1058 296.674L20.6417 289.316L17.8589 297.812Z" fill="black"/>
<path d="M25.7417 263.928L27.2166 260.441L37.7495 264.897L43.2409 251.917L32.708 247.461L34.1829 243.975L58.9575 254.455L57.4826 257.942L46.245 253.188L40.7536 266.168L51.9911 270.922L50.5163 274.409L25.7417 263.928Z" fill="black"/>
<path d="M40.4571 230.177L48.9423 214.028L51.8298 215.545L45.1054 228.343L52.342 232.145L57.3058 222.698L60.1933 224.216L55.2295 233.663L63.1435 237.821L69.868 225.023L72.7555 226.54L64.2703 242.689L40.4571 230.177Z" fill="black"/>
<path d="M55.5854 201.831L58.5943 197.111L84.4626 199.083L65.1749 186.788L67.2096 183.596L89.8931 198.056L86.9059 202.742L60.9141 200.739L80.3037 213.099L78.2689 216.291L55.5854 201.831Z" fill="black"/>
<path d="M76.0064 176.091L73.4057 174.123L86.4818 156.849L89.0826 158.817L83.6869 165.945L102.534 180.212L100.25 183.231L81.4022 168.963L76.0064 176.091Z" fill="black"/>
<path d="M111.85 163.367L114.34 160.516L98.5674 146.742L96.0775 149.593L93.833 147.633L101.303 139.08L103.547 141.04L101.057 143.891L116.83 157.665L119.32 154.814L121.565 156.774L114.095 165.327L111.85 163.367Z" fill="black"/>
<path d="M137.99 139.907C132.516 145.31 125.233 144.351 119.49 138.533C113.607 132.571 113.228 125.193 118.645 119.847C121.855 116.679 126.106 115.539 130.168 117.018L128.666 120.198C126.109 119.327 123.23 119.792 120.736 122.253C117.354 125.591 117.32 130.83 122.242 135.817C126.994 140.632 132.345 141.009 135.928 137.473C138.421 135.012 138.953 132.168 138.116 129.543L141.315 128.083C142.739 132.279 141.373 136.57 137.99 139.907Z" fill="black"/>
<path d="M151.278 122.356L154.164 119.906L140.609 103.945L137.723 106.395L135.794 104.124L144.45 96.7726L146.379 99.044L143.494 101.494L157.049 117.456L159.934 115.005L161.863 117.277L153.207 124.628L151.278 122.356Z" fill="black"/>
<path d="M156.639 90.6919L154.711 88.0609L172.186 75.2544L174.114 77.8854L166.903 83.1699L180.876 102.237L177.823 104.474L163.85 85.4074L156.639 90.6919Z" fill="black"/>
<path d="M180.106 69.5158L183.636 67.3386L196.805 74.4994L196.284 59.5388L199.814 57.3616L200.233 76.4537L205.708 85.3312L202.486 87.3182L197.011 78.4406L180.106 69.5158Z" fill="black"/>
<path d="M232.45 58.4768C230.881 55.121 232.317 51.159 235.673 49.5892C239.029 48.0194 242.991 49.456 244.561 52.8118C246.113 56.1312 244.694 60.1296 241.338 61.6994C237.982 63.2692 234.003 61.7961 232.45 58.4768Z" fill="black"/>
</svg>
